<?xml version="1.0" encoding="utf-8"?>
<!-- Generator: Adobe Illustrator 25.4.1, SVG Export Plug-In . SVG Version: 6.00 Build 0)  -->
<svg version="1.1" id="Layer_1" xmlns="http://www.w3.org/2000/svg" xmlns:xlink="http://www.w3.org/1999/xlink" x="0px" y="0px"
	 viewBox="0 0 320 100" style="enable-background:new 0 0 320 100;" xml:space="preserve">
<style type="text/css">
	.st0{fill:#F05639;}
	.st1{opacity:0.98;fill:#1F1B2D;}
</style>
<path class="st0" d="M30.1,55.5c2.5-3.8,5.2-7.2,8.1-10.2l3-3.8h-7.2c-1.3,1.3-2.6,2.5-3.6,3.7l-5.1,6.6l-2.6,3.5l-0.2,0.3l-0.1,0.1
	V41.5H16v31.4h6.5v-9l3.4-3.6l8.1,12.6h7.7L30.1,55.5z"/>
<path class="st0" d="M170.8,39c-2.8-1.1-88.6-38.5-132.6,6.3c-3,3-5.7,6.4-8.1,10.2l-7.6,0.2c0-0.1,0.1-0.2,0.2-0.3
	c0.8-1.4,3.3-5.3,7.7-10.2c1.1-1.2,2.3-2.4,3.6-3.7C51.8,23.7,88,0,170.8,39z"/>
<path class="st1" d="M60.2,55.3v12.2c0,4.4-2.1,6.6-6.2,6.6h-5.7c-4.1,0-6.2-2.2-6.2-6.6V55.3c0-4.4,2.1-6.6,6.2-6.6H54
	C58.1,48.6,60.2,50.8,60.2,55.3z M53.5,68.9V53.8c0-0.3-0.1-0.5-0.3-0.7c-0.2-0.2-0.4-0.3-0.7-0.3h-2.8c-0.3,0-0.5,0.1-0.7,0.3
	c-0.2,0.2-0.3,0.4-0.3,0.7v15.1c0,0.3,0.1,0.5,0.3,0.7c0.2,0.2,0.4,0.3,0.7,0.3h2.8c0.3,0,0.5-0.1,0.7-0.3
	C53.4,69.4,53.5,69.2,53.5,68.9z"/>
<path class="st1" d="M71.5,73.6h-6.7V49.1h6.1v1.3c1-1.2,2.6-1.8,4.7-1.8h1.1c4.1,0,6.2,2.2,6.2,6.6v18.4h-6.7V54.5
	c0-0.3-0.1-0.5-0.3-0.7c-0.2-0.2-0.4-0.3-0.7-0.3h-2.8c-0.3,0-0.5,0.1-0.7,0.3c-0.2,0.2-0.3,0.4-0.3,0.7V73.6z"/>
<path class="st1" d="M94.2,73.6h-6.7V49.1h6.1v1.3c1-1.2,2.6-1.8,4.7-1.8h1.1c4.1,0,6.2,2.2,6.2,6.6v18.4h-6.7V54.5
	c0-0.3-0.1-0.5-0.3-0.7c-0.2-0.2-0.4-0.3-0.7-0.3h-2.8c-0.3,0-0.5,0.1-0.7,0.3c-0.2,0.2-0.3,0.4-0.3,0.7V73.6z"/>
<path class="st1" d="M122,48.6c4.1,0,6.2,2.2,6.2,6.6v7.9h-11.4v5.1c0,0.3,0.1,0.5,0.3,0.7c0.2,0.2,0.4,0.3,0.7,0.3h2.8
	c0.3,0,0.5-0.1,0.7-0.3c0.2-0.2,0.3-0.4,0.3-0.7v-2.7h6.7v1.9c0,4.4-2.1,6.6-6.2,6.6h-5.7c-4.1,0-6.2-2.2-6.2-6.6V55.3
	c0-4.4,2.1-6.6,6.2-6.6H122z M116.8,58.8h4.7v-4.5c0-0.3-0.1-0.5-0.3-0.7c-0.2-0.2-0.4-0.3-0.7-0.3h-2.8c-0.3,0-0.5,0.1-0.7,0.3
	c-0.2,0.2-0.3,0.4-0.3,0.7V58.8z"/>
<path class="st1" d="M150,58.8h-6.7v-4.3c0-0.3-0.1-0.5-0.3-0.7c-0.2-0.2-0.4-0.3-0.7-0.3h-2.8c-0.3,0-0.5,0.1-0.7,0.3
	c-0.2,0.2-0.3,0.4-0.3,0.7v13.8c0,0.3,0.1,0.5,0.3,0.7c0.2,0.2,0.4,0.3,0.7,0.3h2.8c0.3,0,0.5-0.1,0.7-0.3c0.2-0.2,0.3-0.4,0.3-0.7
	V64h6.7v3.5c0,4.4-2.1,6.6-6.2,6.6h-5.7c-4.1,0-6.2-2.2-6.2-6.6V55.3c0-4.4,2.1-6.6,6.2-6.6h5.7c4.1,0,6.2,2.2,6.2,6.6V58.8z"/>
<path class="st1" d="M163.2,69.8h2v4.4h-4.7c-4.1,0-6.2-2.2-6.2-6.6V43.8h6.7v5.3h4.2V54H161v13.3c0,0.9,0.2,1.6,0.6,1.9
	C162,69.6,162.5,69.8,163.2,69.8z"/>
<path class="st0" d="M175.6,46.1c-0.7,0.7-1.6,1.1-2.6,1.1c-1,0-1.9-0.4-2.6-1.1c-0.7-0.7-1.1-1.6-1.1-2.6c0-1,0.4-1.9,1.1-2.6
	c0.7-0.7,1.6-1.1,2.6-1.1c1,0,1.9,0.4,2.6,1.1c0.7,0.7,1.1,1.6,1.1,2.6C176.7,44.5,176.3,45.4,175.6,46.1z M169.7,73.6V49.1h6.7
	v24.5H169.7z"/>
<path class="st1" d="M187.8,73.6h-6.7V49.1h6.1v1.3c1-1.2,2.6-1.8,4.7-1.8h1.1c4.1,0,6.2,2.2,6.2,6.6v18.4h-6.7V54.5
	c0-0.3-0.1-0.5-0.3-0.7c-0.2-0.2-0.4-0.3-0.7-0.3h-2.8c-0.3,0-0.5,0.1-0.7,0.3c-0.2,0.2-0.3,0.4-0.3,0.7V73.6z"/>
<path class="st1" d="M221.9,49.1v26.3c0,4.4-2.1,6.6-6.2,6.6h-5c-4.1,0-6.2-2.2-6.2-6.6v-0.8h6.1v1.6c0,0.3,0.1,0.5,0.3,0.7
	c0.2,0.2,0.4,0.3,0.7,0.3h2.8c0.3,0,0.5-0.1,0.7-0.3c0.2-0.2,0.3-0.4,0.3-0.7v-5c-1,0.8-2.4,1.2-4.1,1.2H210c-4.1,0-6.2-2.2-6.2-6.6
	V55.3c0-4.4,2.1-6.6,6.2-6.6h1.1c2.4,0,4.1,0.8,5.2,2.3v-1.8H221.9z M215.2,66.7V54.5c0-0.3-0.1-0.5-0.3-0.7
	c-0.2-0.2-0.4-0.3-0.7-0.3h-2.8c-0.3,0-0.5,0.1-0.7,0.3c-0.2,0.2-0.3,0.4-0.3,0.7v12.2c0,0.3,0.1,0.5,0.3,0.7
	c0.2,0.2,0.4,0.3,0.7,0.3h2.8c0.3,0,0.5-0.1,0.7-0.3C215.1,67.2,215.2,66.9,215.2,66.7z"/>
<path class="st1" d="M233.7,48.6c1.7,0,3.1,0.4,4.1,1.2v-8.7h6.7v32.5h-5.7v-1.8c-1,1.5-2.8,2.3-5.2,2.3h-1.1
	c-4.1,0-6.2-2.2-6.2-6.6V55.3c0-4.4,2.1-6.6,6.2-6.6H233.7z M237.8,68.3V54.5c0-0.3-0.1-0.5-0.3-0.7c-0.2-0.2-0.4-0.3-0.7-0.3h-2.8
	c-0.3,0-0.5,0.1-0.7,0.3c-0.2,0.2-0.3,0.4-0.3,0.7v13.8c0,0.3,0.1,0.5,0.3,0.7c0.2,0.2,0.4,0.3,0.7,0.3h2.8c0.3,0,0.5-0.1,0.7-0.3
	C237.7,68.8,237.8,68.6,237.8,68.3z"/>
<path class="st1" d="M267.2,55.3v12.2c0,4.4-2.1,6.6-6.2,6.6h-5.7c-4.1,0-6.2-2.2-6.2-6.6V55.3c0-4.4,2.1-6.6,6.2-6.6h5.7
	C265.2,48.6,267.2,50.8,267.2,55.3z M260.5,68.9V53.8c0-0.3-0.1-0.5-0.3-0.7c-0.2-0.2-0.4-0.3-0.7-0.3h-2.8c-0.3,0-0.5,0.1-0.7,0.3
	c-0.2,0.2-0.3,0.4-0.3,0.7v15.1c0,0.3,0.1,0.5,0.3,0.7c0.2,0.2,0.4,0.3,0.7,0.3h2.8c0.3,0,0.5-0.1,0.7-0.3
	C260.4,69.4,260.5,69.2,260.5,68.9z"/>
<path class="st1" d="M280.7,69.8h2v4.4H278c-4.1,0-6.2-2.2-6.2-6.6V43.8h6.7v5.3h4.2V54h-4.2v13.3c0,0.9,0.2,1.6,0.6,1.9
	C279.4,69.6,280,69.8,280.7,69.8z"/>
<path class="st1" d="M297.8,58.3c4.1,0,6.2,2.2,6.2,6.6v2.6c0,4.4-2.1,6.6-6.2,6.6h-5.6c-4.1,0-6.2-2.2-6.2-6.6v-1.6h6.2v2.2
	c0,0.3,0.1,0.5,0.3,0.7c0.2,0.2,0.4,0.3,0.7,0.3h4.1c0.3,0,0.5-0.1,0.7-0.3c0.2-0.2,0.3-0.4,0.3-0.7v-3c0-0.3-0.1-0.5-0.3-0.7
	c-0.2-0.2-0.4-0.3-0.7-0.3h-5.2c-4.1,0-6.2-2.2-6.2-6.6v-2.3c0-4.4,2.1-6.6,6.2-6.6h5.3c4.1,0,6.2,2.2,6.2,6.6v0.9h-6.2v-1.6
	c0-0.3-0.1-0.5-0.3-0.7c-0.2-0.2-0.4-0.3-0.7-0.3h-3.8c-0.3,0-0.5,0.1-0.7,0.3c-0.2,0.2-0.3,0.4-0.3,0.7v2.7c0,0.3,0.1,0.5,0.3,0.7
	c0.2,0.2,0.4,0.3,0.7,0.3H297.8z"/>
</svg>
