<?xml version="1.0" encoding="utf-8"?>
<!-- Generator: Adobe Illustrator 25.4.1, SVG Export Plug-In . SVG Version: 6.00 Build 0)  -->
<svg version="1.1"
	 id="svg114" xmlns:cc="http://creativecommons.org/ns#" xmlns:dc="http://purl.org/dc/elements/1.1/" xmlns:inkscape="http://www.inkscape.org/namespaces/inkscape" xmlns:rdf="http://www.w3.org/1999/02/22-rdf-syntax-ns#" xmlns:sodipodi="http://sodipodi.sourceforge.net/DTD/sodipodi-0.dtd" xmlns:svg="http://www.w3.org/2000/svg"
	 xmlns="http://www.w3.org/2000/svg" xmlns:xlink="http://www.w3.org/1999/xlink" x="0px" y="0px" viewBox="0 0 200 200"
	 style="enable-background:new 0 0 200 200;" xml:space="preserve">
<style type="text/css">
	.st0{fill-rule:evenodd;clip-rule:evenodd;fill:url(#Combined-Shape_00000071550507203165113340000000835922282170366116_);}
	.st1{fill-rule:evenodd;clip-rule:evenodd;fill:url(#Combined-Shape-Copy-6_00000152253272468033921630000003800232219474342322_);}
	.st2{fill-rule:evenodd;clip-rule:evenodd;fill:url(#Combined-Shape-Copy-5_00000130627238146249529920000009499273867851429291_);}
	.st3{fill-rule:evenodd;clip-rule:evenodd;fill:url(#Combined-Shape-Copy-4_00000006676131106798674980000003012119636515938213_);}
	.st4{fill-rule:evenodd;clip-rule:evenodd;fill:url(#path-8_00000093134849595977126260000011081032706510248877_);}
	
		.st5{fill-rule:evenodd;clip-rule:evenodd;fill:url(#path-8_00000127748242955052389290000018118528816989784974_);fill-opacity:0.1;}
	.st6{opacity:0.5049;}
	.st7{fill-rule:evenodd;clip-rule:evenodd;fill:url(#path-9_00000039833035956645003070000018012195235933014975_);}
	.st8{fill-rule:evenodd;clip-rule:evenodd;fill-opacity:0.4962;}
	.st9{opacity:0.5443;}
	.st10{fill-rule:evenodd;clip-rule:evenodd;fill:url(#path-11_00000092430212430131467060000008779055932735500441_);}
	.st11{fill-rule:evenodd;clip-rule:evenodd;fill-opacity:0.4999;}
	.st12{opacity:0.5622;}
	.st13{fill-rule:evenodd;clip-rule:evenodd;fill:url(#path-13_00000075123661097688251730000002719454662367000461_);}
	.st14{fill-rule:evenodd;clip-rule:evenodd;}
	.st15{opacity:0.5842;}
	.st16{fill-rule:evenodd;clip-rule:evenodd;fill:url(#path-15_00000142862966586280195560000004405592832383598256_);}
	.st17{fill-rule:evenodd;clip-rule:evenodd;fill-opacity:0.5031;}
	.st18{opacity:0.1801;}
	.st19{fill-rule:evenodd;clip-rule:evenodd;fill:url(#path-16_00000064322025644088291140000012446696300242554815_);}
	.st20{fill-rule:evenodd;clip-rule:evenodd;fill-opacity:0.7728;}
	.st21{fill:#FFFFFF;}
	.st22{fill-rule:evenodd;clip-rule:evenodd;fill:#FFFFFF;}
	.st23{fill:none;stroke:#C0BFBC;stroke-dasharray:2,1;}
	.st24{fill:#F05639;}
	.st25{fill:#F3F3F3;}
</style>
<sodipodi:namedview  bordercolor="#666666" borderopacity="1" gridtolerance="10" guidetolerance="10" id="namedview84" inkscape:current-layer="svg114" inkscape:cx="177.05496" inkscape:cy="82.980987" inkscape:guide-bbox="true" inkscape:pageopacity="0" inkscape:pageshadow="2" inkscape:window-height="1016" inkscape:window-maximized="1" inkscape:window-width="1920" inkscape:window-x="0" inkscape:window-y="27" inkscape:zoom="2.2389646" objecttolerance="10" pagecolor="#ffffff" showgrid="false" showguides="true">
	</sodipodi:namedview>
<desc  id="desc4">Created with Sketch.</desc>
<g id="Rectangle">
</g>
<g>
	<g id="g108" transform="translate(-12.598536,-12.100617)">
		<g id="Group-5" transform="rotate(40,14.707207,46.948765)">
			
				<linearGradient id="Combined-Shape_00000155845956289405098190000008421969150187653557_" gradientUnits="userSpaceOnUse" x1="274.8777" y1="1161.2335" x2="254.8501" y2="1160.3701" gradientTransform="matrix(2.5937 -3.1174 -2.1764 -3.7152 1945.8131 5220.0811)">
				<stop  offset="0" style="stop-color:#FF5C34"/>
				<stop  offset="1" style="stop-color:#EB0256"/>
			</linearGradient>
			
				<path id="Combined-Shape" inkscape:connector-curvature="0" style="fill-rule:evenodd;clip-rule:evenodd;fill:url(#Combined-Shape_00000155845956289405098190000008421969150187653557_);" d="
				M131.7,33.7c-18.2-4.5-36.6,6.5-41.2,24.4c-4.5,18,6.5,36.2,24.7,40.7l1.4,0.3c-29-6.5-50.9-31.3-52.7-61.4l0-0.5
				C62.9,18.7,77.3,2.9,96,2S130.7,15.2,131.7,33.7z"/>
			
				<linearGradient id="Combined-Shape-Copy-6_00000096053387121237687170000006575514433598619564_" gradientUnits="userSpaceOnUse" x1="157.1493" y1="1213.2968" x2="164.4974" y2="1230.6307" gradientTransform="matrix(3.7814 -2.1383 -3.173 -2.5483 3372.2717 3526.8193)">
				<stop  offset="0" style="stop-color:#A63FDB"/>
				<stop  offset="1" style="stop-color:#FF257E"/>
			</linearGradient>
			
				<path id="Combined-Shape-Copy-6" inkscape:connector-curvature="0" style="fill-rule:evenodd;clip-rule:evenodd;fill:url(#Combined-Shape-Copy-6_00000096053387121237687170000006575514433598619564_);" d="
				M131.7,33.7c-9.7,15.9-4.5,36.5,11.6,46c16.1,9.5,36.9,4.4,46.6-11.5l0.6-1.1c-11.7,20.1-33.7,33.6-58.9,33.6
				c-5.2,0-10.2-0.6-15.1-1.7l-1.4-0.3C97.1,94.3,86,76.1,90.5,58.1C95.1,40.1,113.5,29.2,131.7,33.7z"/>
			
				<linearGradient id="Combined-Shape-Copy-5_00000157281493605682248050000016552359625765670300_" gradientUnits="userSpaceOnUse" x1="263.4117" y1="1173.5646" x2="279.6796" y2="1169.9825" gradientTransform="matrix(2.7274 -2.9646 -2.2886 -3.533 2106.3997 4955.792)">
				<stop  offset="0" style="stop-color:#00FFF0"/>
				<stop  offset="1" style="stop-color:#0087FF"/>
			</linearGradient>
			
				<path id="Combined-Shape-Copy-5" inkscape:connector-curvature="0" style="fill-rule:evenodd;clip-rule:evenodd;fill:url(#Combined-Shape-Copy-5_00000157281493605682248050000016552359625765670300_);" d="
				M131.7,33.7c12.1,14.2,33.5,16,47.8,4.1c14.4-11.9,16.2-33.1,4.2-47.3l-0.3-0.3c10.1,11.7,16.2,26.9,16.2,43.4
				c0,12.2-3.3,23.6-9.1,33.5l-0.6,1.1c-9.7,15.9-30.5,21-46.6,11.5S122,49.6,131.7,33.7z"/>
			
				<linearGradient id="Combined-Shape-Copy-4_00000142177113928647738680000017178562103916313001_" gradientUnits="userSpaceOnUse" x1="228.0678" y1="1210.8802" x2="215.7152" y2="1197.6958" gradientTransform="matrix(3.2532 -2.4854 -2.7298 -2.962 2737.8674 4127.2192)">
				<stop  offset="0" style="stop-color:#17C934"/>
				<stop  offset="1" style="stop-color:#03FF6E"/>
			</linearGradient>
			
				<path id="Combined-Shape-Copy-4" inkscape:connector-curvature="0" style="fill-rule:evenodd;clip-rule:evenodd;fill:url(#Combined-Shape-Copy-4_00000142177113928647738680000017178562103916313001_);" d="
				M131.7,33.7c17.4-6.9,25.8-26.5,18.8-43.7s-26.8-25.5-44.2-18.5l-1.4,0.6c8.2-3.5,17.3-5.5,26.9-5.5c20.7,0,39.3,9.2,51.7,23.6
				l0.3,0.3c12.1,14.2,10.2,35.3-4.2,47.3C165.2,49.7,143.8,47.9,131.7,33.7z"/>
			<g id="Combined-Shape-Copy-3">
				<g id="use71">
					
						<linearGradient id="path-8_00000116934328369201862670000000498438774778320784_" gradientUnits="userSpaceOnUse" x1="183.703" y1="1217.6525" x2="179.9486" y2="1239.2657" gradientTransform="matrix(3.5366 -2.2863 -2.9676 -2.7247 3078.2402 3782.7917)">
						<stop  offset="0" style="stop-color:#FFB000"/>
						<stop  offset="1" style="stop-color:#FF7725"/>
					</linearGradient>
					
						<path id="path-8" inkscape:connector-curvature="0" style="fill-rule:evenodd;clip-rule:evenodd;fill:url(#path-8_00000116934328369201862670000000498438774778320784_);" d="
						M131.7,33.7C130.7,15.2,114.7,1,96,2S62.9,18.7,63.9,37.2l0,0.5c-0.1-1.3-0.1-2.7-0.1-4c0-27.6,16.9-51.3,41-61.6l1.4-0.6
						c17.4-6.9,37.2,1.4,44.2,18.5C157.5,7.2,149.1,26.8,131.7,33.7z"/>
				</g>
				<g id="use73">
					
						<linearGradient id="path-8_00000118379340542054061330000009103527377993449650_" gradientUnits="userSpaceOnUse" x1="183.703" y1="1217.6525" x2="179.9486" y2="1239.2657" gradientTransform="matrix(3.5366 -2.2863 -2.9676 -2.7247 3078.2402 3782.7917)">
						<stop  offset="0" style="stop-color:#FFB000"/>
						<stop  offset="1" style="stop-color:#FF7725"/>
					</linearGradient>
					
						<path id="path-8_00000024697530980511891170000013577268006353882034_" inkscape:connector-curvature="0" style="fill-rule:evenodd;clip-rule:evenodd;fill:url(#path-8_00000118379340542054061330000009103527377993449650_);fill-opacity:0.1;" d="
						M131.7,33.7C130.7,15.2,114.7,1,96,2S62.9,18.7,63.9,37.2l0,0.5c-0.1-1.3-0.1-2.7-0.1-4c0-27.6,16.9-51.3,41-61.6l1.4-0.6
						c17.4-6.9,37.2,1.4,44.2,18.5C157.5,7.2,149.1,26.8,131.7,33.7z"/>
				</g>
			</g>
			<g id="g80" class="st6">
				<g id="use76">
					
						<linearGradient id="path-9_00000044895814839537629290000002949822330899864500_" gradientUnits="userSpaceOnUse" x1="269.9997" y1="1166.5245" x2="267.3498" y2="1181.7797" gradientTransform="matrix(2.6523 -3.0485 -2.2255 -3.6331 2016.183 5100.9883)">
						<stop  offset="0" style="stop-color:#FFB000"/>
						<stop  offset="1" style="stop-color:#FF7725"/>
					</linearGradient>
					
						<path id="path-9" inkscape:connector-curvature="0" style="fill-rule:evenodd;clip-rule:evenodd;fill:url(#path-9_00000044895814839537629290000002949822330899864500_);" d="
						M105.7-28.3l0.5-0.2c17.4-6.9,37.2,1.4,44.2,18.5c7,17.2-1.4,36.7-18.8,43.7c-0.1-2.7-0.6-5.4-1.4-7.9
						c9.3-5,15.7-14.8,15.7-26.1c0-16.4-13.5-29.7-30.1-29.7C112.3-30,108.9-29.4,105.7-28.3z"/>
				</g>
				<g id="use78">
					<path id="path-9_00000041279033419933900070000016865105576933992321_" inkscape:connector-curvature="0" class="st8" d="
						M105.7-28.3l0.5-0.2c17.4-6.9,37.2,1.4,44.2,18.5c7,17.2-1.4,36.7-18.8,43.7c-0.1-2.7-0.6-5.4-1.4-7.9
						c9.3-5,15.7-14.8,15.7-26.1c0-16.4-13.5-29.7-30.1-29.7C112.3-30,108.9-29.4,105.7-28.3z"/>
				</g>
			</g>
			<g id="Combined-Shape-Copy-7" transform="rotate(72,37.055527,20.178799)" class="st9">
				<g id="use82">
					
						<linearGradient id="path-11_00000183208993866509195170000016703736679987660970_" gradientUnits="userSpaceOnUse" x1="1519.1312" y1="256.2068" x2="1546.7729" y2="257.9018" gradientTransform="matrix(-1.297 -4.3973 -3.2102 1.7766 2808.2549 6121.7241)">
						<stop  offset="0" style="stop-color:#9EE85D"/>
						<stop  offset="1" style="stop-color:#0ED061"/>
					</linearGradient>
					
						<path id="path-11" inkscape:connector-curvature="0" style="fill-rule:evenodd;clip-rule:evenodd;fill:url(#path-11_00000183208993866509195170000016703736679987660970_);" d="
						M53.3-128l0.5-0.2c17.4-6.9,37.2,1.4,44.2,18.5c7,17.2-1.4,36.7-18.8,43.7c-0.1-2.7-0.6-5.4-1.4-7.9c9.3-5,15.7-14.8,15.7-26.1
						c0-16.4-13.5-29.7-30.1-29.7C59.9-129.7,56.5-129.1,53.3-128L53.3-128z"/>
				</g>
				<g id="use84">
					<path id="path-11_00000096035700788886535640000000221478770473265337_" inkscape:connector-curvature="0" class="st11" d="
						M53.3-128l0.5-0.2c17.4-6.9,37.2,1.4,44.2,18.5c7,17.2-1.4,36.7-18.8,43.7c-0.1-2.7-0.6-5.4-1.4-7.9c9.3-5,15.7-14.8,15.7-26.1
						c0-16.4-13.5-29.7-30.1-29.7C59.9-129.7,56.5-129.1,53.3-128L53.3-128z"/>
				</g>
			</g>
			<g id="Combined-Shape-Copy-8" transform="rotate(143,33.811317,33.641001)" class="st12">
				<g id="use87">
					
						<linearGradient id="path-13_00000111174686235028243380000004847234085302766241_" gradientUnits="userSpaceOnUse" x1="1107.7648" y1="-1218.2886" x2="1101.5613" y2="-1234.7627" gradientTransform="matrix(-3.4576 0.2482 0.1812 4.7362 4018.1689 5472.1157)">
						<stop  offset="0" style="stop-color:#21EFE3"/>
						<stop  offset="1" style="stop-color:#2598FF"/>
					</linearGradient>
					
						<path id="path-13" inkscape:connector-curvature="0" style="fill-rule:evenodd;clip-rule:evenodd;fill:url(#path-13_00000111174686235028243380000004847234085302766241_);" d="
						M-70.5-87.5l0.5-0.2c17.4-6.9,37.2,1.4,44.2,18.5s-1.4,36.7-18.8,43.7c-0.1-2.7-0.6-5.4-1.4-7.9c9.3-5,15.7-14.8,15.7-26.1
						c0-16.4-13.5-29.7-30.1-29.7C-63.9-89.2-67.3-88.6-70.5-87.5z"/>
				</g>
				<g id="use89">
					<path id="path-13_00000110467171465195601290000014345966944787894148_" inkscape:connector-curvature="0" class="st14" d="
						M-70.5-87.5l0.5-0.2c17.4-6.9,37.2,1.4,44.2,18.5s-1.4,36.7-18.8,43.7c-0.1-2.7-0.6-5.4-1.4-7.9c9.3-5,15.7-14.8,15.7-26.1
						c0-16.4-13.5-29.7-30.1-29.7C-63.9-89.2-67.3-88.6-70.5-87.5z"/>
				</g>
			</g>
			<g id="Combined-Shape-Copy-9" transform="rotate(-143,19.330169,34.673473)" class="st15">
				<g id="use92">
					
						<linearGradient id="path-15_00000048475220223070369280000008896958507797951109_" gradientUnits="userSpaceOnUse" x1="-598.8109" y1="-1316.0123" x2="-624.6622" y2="-1313.8163" gradientTransform="matrix(-0.7788 4.6211 3.3736 1.0669 3924.3801 4238.5449)">
						<stop  offset="0" style="stop-color:#A63FDB"/>
						<stop  offset="1" style="stop-color:#FF257E"/>
					</linearGradient>
					
						<path id="path-15" inkscape:connector-curvature="0" style="fill-rule:evenodd;clip-rule:evenodd;fill:url(#path-15_00000048475220223070369280000008896958507797951109_);" d="
						M-95.6,40.9l0.5-0.2c17.4-6.9,37.2,1.4,44.2,18.5s-1.4,36.7-18.8,43.7c-0.1-2.7-0.6-5.4-1.4-7.9c9.3-5,15.7-14.8,15.7-26.1
						c0-16.4-13.5-29.7-30.1-29.7C-89,39.2-92.4,39.8-95.6,40.9L-95.6,40.9z"/>
				</g>
				<g id="use94">
					<path id="path-15_00000151506519614183293210000002543953263582066344_" inkscape:connector-curvature="0" class="st17" d="
						M-95.6,40.9l0.5-0.2c17.4-6.9,37.2,1.4,44.2,18.5s-1.4,36.7-18.8,43.7c-0.1-2.7-0.6-5.4-1.4-7.9c9.3-5,15.7-14.8,15.7-26.1
						c0-16.4-13.5-29.7-30.1-29.7C-89,39.2-92.4,39.8-95.6,40.9L-95.6,40.9z"/>
				</g>
			</g>
			<g id="Combined-Shape-Copy-10" transform="rotate(-71,14.22193,21.605855)" class="st18">
				<g id="use97">
					
						<linearGradient id="path-16_00000180354701480093370130000011099013305679983270_" gradientUnits="userSpaceOnUse" x1="-1101.2296" y1="306.5674" x2="-1114.8608" y2="305.9798" gradientTransform="matrix(2.9678 2.4427 1.7832 -4.0653 2783.5459 4038.4937)">
						<stop  offset="0" style="stop-color:#FF5C34"/>
						<stop  offset="1" style="stop-color:#EB0256"/>
					</linearGradient>
					
						<path id="path-16" inkscape:connector-curvature="0" style="fill-rule:evenodd;clip-rule:evenodd;fill:url(#path-16_00000180354701480093370130000011099013305679983270_);" d="
						M15,74.3l0.5-0.2c17.4-6.9,37.2,1.4,44.2,18.5s-1.4,36.7-18.8,43.7c-0.1-2.7-0.6-5.4-1.4-7.9c9.3-5,15.7-14.8,15.7-26.1
						c0-16.4-13.5-29.7-30.1-29.7C21.6,72.5,18.1,73.1,15,74.3z"/>
				</g>
				<g id="use99">
					<path id="path-16_00000045577588944108804050000003225937843616362635_" inkscape:connector-curvature="0" class="st20" d="
						M15,74.3l0.5-0.2c17.4-6.9,37.2,1.4,44.2,18.5s-1.4,36.7-18.8,43.7c-0.1-2.7-0.6-5.4-1.4-7.9c9.3-5,15.7-14.8,15.7-26.1
						c0-16.4-13.5-29.7-30.1-29.7C21.6,72.5,18.1,73.1,15,74.3z"/>
				</g>
			</g>
		</g>
		<g id="Path-6-Copy-2">
			<g id="use103">
				<path id="path-17" inkscape:connector-curvature="0" d="M107.5,126.4h12.4c11.6,0,21.1-9.1,21.1-20.4s-9.4-20.4-21.1-20.4H102
					c-6.7,0-12.2,5.3-12.2,11.8v45.9L107.5,126.4z"/>
			</g>
			<g id="use105">
				<path id="path-17_00000173880314673860124020000000006783466366779797_" inkscape:connector-curvature="0" class="st21" d="
					M107.5,126.4h12.4c11.6,0,21.1-9.1,21.1-20.4s-9.4-20.4-21.1-20.4H102c-6.7,0-12.2,5.3-12.2,11.8v45.9L107.5,126.4z"/>
			</g>
		</g>
	</g>
	<g id="use63_00000001644720714145895840000003742856701527207324_">
		
			<rect id="path-1_00000065786253271032085060000009659173962027377289_" x="32.3" y="32.3" class="st22" width="136" height="135.4"/>
	</g>
	<path id="rect968" class="st23" d="M9.7-0.3h181.2c5.2,0,9.4,4.2,9.4,9.4v181.2c0,5.2-4.2,9.4-9.4,9.4H9.7c-5.2,0-9.4-4.2-9.4-9.4
		V9.2C0.3,4,4.5-0.3,9.7-0.3z"/>
	<rect id="rect968-3" x="33" y="32.6" class="st23" width="134.2" height="134.2"/>
	<path id="rect906" inkscape:connector-curvature="0" sodipodi:nodetypes="ccc" class="st23" d="M32.3,199.7v-32.3H0.3"/>
	<path id="text912" d="M8.4,178.8c-0.9,0-1.5,0.4-2,1.1c-0.5,0.7-0.7,1.7-0.7,3c0,1.3,0.2,2.3,0.7,3c0.5,0.7,1.2,1.1,2,1.1
		s1.5-0.4,2-1.1c0.5-0.7,0.7-1.7,0.7-3c0-1.3-0.2-2.3-0.7-3C10,179.2,9.3,178.8,8.4,178.8z M18.1,178.8c-0.5,0-0.9,0.1-1.2,0.3
		c-0.4,0.2-0.7,0.5-0.9,0.8c-0.2,0.4-0.3,0.8-0.3,1.2h0.9c0-0.5,0.1-0.8,0.4-1.1c0.3-0.3,0.6-0.4,1.1-0.4c0.4,0,0.8,0.1,1.1,0.4
		c0.3,0.2,0.4,0.6,0.4,1c0,0.2,0,0.5-0.1,0.7c-0.1,0.2-0.2,0.5-0.4,0.7c-0.2,0.2-0.5,0.5-0.8,0.9l-2.6,2.9v0.7h5V186h-3.7v-0.1
		l1.8-1.9c0.5-0.5,0.8-0.9,1.1-1.2c0.3-0.3,0.4-0.6,0.5-0.9c0.1-0.3,0.2-0.6,0.2-0.9c0-0.4-0.1-0.8-0.3-1.1s-0.5-0.6-0.8-0.8
		C19,178.9,18.6,178.8,18.1,178.8z M100,178.8c-0.9,0-1.5,0.4-2,1.1c-0.5,0.7-0.7,1.7-0.7,3c0,1.3,0.2,2.3,0.7,3
		c0.5,0.7,1.2,1.1,2,1.1c0.9,0,1.5-0.4,2-1.1c0.5-0.7,0.7-1.7,0.7-3c0-1.3-0.2-2.3-0.7-3C101.5,179.2,100.8,178.8,100,178.8z
		 M106.8,178.8c-0.9,0-1.5,0.4-2,1.1c-0.5,0.7-0.7,1.7-0.7,3c0,1.3,0.2,2.3,0.7,3c0.5,0.7,1.2,1.1,2,1.1c0.9,0,1.5-0.4,2-1.1
		c0.5-0.7,0.7-1.7,0.7-3c0-1.3-0.2-2.3-0.7-3C108.3,179.2,107.6,178.8,106.8,178.8z M22.8,178.9l-0.5,3.9l0.9,0.1
		c0.2-0.1,0.4-0.2,0.6-0.3c0.3-0.1,0.5-0.1,0.7-0.1c0.3,0,0.6,0.1,0.9,0.2c0.3,0.2,0.5,0.4,0.6,0.6c0.2,0.3,0.2,0.6,0.2,0.9
		c0,0.3-0.1,0.6-0.2,0.9c-0.1,0.3-0.3,0.5-0.6,0.6c-0.3,0.2-0.5,0.2-0.9,0.2c-0.4,0-0.8-0.1-1-0.3c-0.3-0.2-0.5-0.5-0.5-0.9h-0.9
		c0,0.4,0.1,0.8,0.4,1.1c0.2,0.3,0.5,0.6,0.9,0.7c0.4,0.2,0.8,0.3,1.2,0.3c0.5,0,0.9-0.1,1.3-0.3c0.4-0.2,0.7-0.5,0.9-0.9
		c0.2-0.4,0.3-0.8,0.3-1.4c0-0.5-0.1-1-0.3-1.4c-0.2-0.4-0.5-0.7-0.9-0.9c-0.4-0.2-0.8-0.3-1.3-0.3c-0.3,0-0.5,0-0.8,0.1
		s-0.4,0.2-0.6,0.3h0l0.3-2.3h3.3v-0.8H22.8z M91.7,178.9c0,0-0.1,0.1-0.1,0.2c-0.1,0.1-0.2,0.3-0.3,0.4c-0.1,0.1-0.3,0.3-0.6,0.4
		c-0.2,0.1-0.5,0.2-0.8,0.2v0.8c0.3,0,0.6,0,0.8-0.1c0.2-0.1,0.4-0.1,0.6-0.2c0.1-0.1,0.2-0.2,0.3-0.2h0.1v6.5h1v-7.9H91.7z
		 M8.4,179.6c0.6,0,1,0.3,1.3,0.8c0.3,0.6,0.5,1.4,0.5,2.4c0,1-0.2,1.8-0.5,2.4c-0.3,0.6-0.8,0.8-1.3,0.8c-0.6,0-1-0.3-1.3-0.8
		c-0.3-0.6-0.5-1.3-0.5-2.4c0-1,0.2-1.8,0.5-2.4C7.4,179.9,7.8,179.6,8.4,179.6z M100,179.6c0.6,0,1,0.3,1.3,0.8
		c0.3,0.6,0.5,1.4,0.5,2.4c0,1-0.2,1.8-0.5,2.4c-0.3,0.6-0.8,0.8-1.3,0.8c-0.6,0-1-0.3-1.3-0.8c-0.3-0.6-0.5-1.3-0.5-2.4
		c0-1,0.2-1.8,0.5-2.4C99,179.9,99.4,179.6,100,179.6z M106.8,179.6c0.6,0,1,0.3,1.3,0.8c0.3,0.6,0.5,1.4,0.5,2.4
		c0,1-0.2,1.8-0.5,2.4c-0.3,0.6-0.8,0.8-1.3,0.8c-0.6,0-1-0.3-1.3-0.8c-0.3-0.6-0.5-1.3-0.5-2.4c0-1,0.2-1.8,0.5-2.4
		C105.8,179.9,106.2,179.6,106.8,179.6z M13.3,185.5c-0.2,0-0.4,0.1-0.5,0.2s-0.2,0.3-0.2,0.5s0.1,0.4,0.2,0.5
		c0.1,0.1,0.3,0.2,0.5,0.2c0.2,0,0.4-0.1,0.5-0.2c0.1-0.1,0.2-0.3,0.2-0.5s-0.1-0.4-0.2-0.5S13.5,185.5,13.3,185.5z M95.5,185.5
		c-0.2,0-0.4,0.1-0.5,0.2c-0.1,0.1-0.2,0.3-0.2,0.5s0.1,0.4,0.2,0.5c0.1,0.1,0.3,0.2,0.5,0.2s0.4-0.1,0.5-0.2
		c0.1-0.1,0.2-0.3,0.2-0.5s-0.1-0.4-0.2-0.5C95.9,185.6,95.7,185.5,95.5,185.5z"/>
	<g>
		<rect x="33" y="32.6" class="st24" width="134.2" height="134.2"/>
		<g>
			<g>
				<circle class="st25" cx="143.5" cy="49.9" r="3.4"/>
				<circle class="st25" cx="134.1" cy="49.9" r="3.4"/>
				<circle class="st25" cx="124.7" cy="50.1" r="3.4"/>
				<circle class="st25" cx="115.3" cy="49.9" r="3.4"/>
				<circle class="st25" cx="105.9" cy="50.1" r="3.4"/>
			</g>
			<g>
				<circle class="st25" cx="134.1" cy="59.6" r="3.4"/>
				<circle class="st25" cx="124.8" cy="59.6" r="3.4"/>
				<circle class="st25" cx="115.3" cy="59.7" r="3.4"/>
				<circle class="st25" cx="105.9" cy="59.6" r="3.4"/>
				<circle class="st25" cx="96.5" cy="59.7" r="3.4"/>
			</g>
			<g>
				<circle class="st25" cx="124.7" cy="69.2" r="3.4"/>
				<circle class="st25" cx="115.4" cy="69.2" r="3.4"/>
				<circle class="st25" cx="106" cy="69.4" r="3.4"/>
				<circle class="st25" cx="96.6" cy="69.2" r="3.4"/>
				<circle class="st25" cx="87.2" cy="69.4" r="3.4"/>
			</g>
			<g>
				<circle class="st25" cx="115.4" cy="78.8" r="3.4"/>
				<circle class="st25" cx="106" cy="78.8" r="3.4"/>
				<circle class="st25" cx="96.6" cy="79" r="3.4"/>
				<circle class="st25" cx="87.2" cy="78.8" r="3.4"/>
				<circle class="st25" cx="77.8" cy="79" r="3.4"/>
			</g>
			<circle class="st25" cx="106" cy="88.5" r="3.4"/>
			<circle class="st25" cx="96.7" cy="88.5" r="3.4"/>
			<circle class="st25" cx="87.2" cy="88.6" r="3.4"/>
			<circle class="st25" cx="68.4" cy="88.6" r="3.4"/>
			<circle class="st25" cx="96.7" cy="98.1" r="3.4"/>
			<circle class="st25" cx="77.9" cy="98.3" r="3.4"/>
			<circle class="st25" cx="68.5" cy="98.1" r="3.4"/>
			<circle class="st25" cx="59.1" cy="98.3" r="3.4"/>
			<path class="st25" d="M72.6,78.5L56.1,94c0,0-6.7,8.8,1.1,16.6L99.6,153h39.6c0,0,1.5-3.2,0-4.7L73.6,82.7
				C73.6,82.7,71.3,79.7,72.6,78.5z"/>
		</g>
	</g>
</g>
</svg>
