<?xml version="1.0" encoding="utf-8"?>
<!-- Generator: Adobe Illustrator 25.4.1, SVG Export Plug-In . SVG Version: 6.00 Build 0)  -->
<svg version="1.1"
	 id="svg114" xmlns:cc="http://creativecommons.org/ns#" xmlns:dc="http://purl.org/dc/elements/1.1/" xmlns:inkscape="http://www.inkscape.org/namespaces/inkscape" xmlns:rdf="http://www.w3.org/1999/02/22-rdf-syntax-ns#" xmlns:sodipodi="http://sodipodi.sourceforge.net/DTD/sodipodi-0.dtd" xmlns:svg="http://www.w3.org/2000/svg"
	 xmlns="http://www.w3.org/2000/svg" xmlns:xlink="http://www.w3.org/1999/xlink" x="0px" y="0px" viewBox="0 0 200 200"
	 style="enable-background:new 0 0 200 200;" xml:space="preserve">
<style type="text/css">
	.st0{fill-rule:evenodd;clip-rule:evenodd;fill:url(#Combined-Shape_00000129178488225522860950000001527861718119869345_);}
	.st1{fill-rule:evenodd;clip-rule:evenodd;fill:url(#Combined-Shape-Copy-6_00000012448550488071043170000012852354295633327276_);}
	.st2{fill-rule:evenodd;clip-rule:evenodd;fill:url(#Combined-Shape-Copy-5_00000170971260372102459600000013693777156024121229_);}
	.st3{fill-rule:evenodd;clip-rule:evenodd;fill:url(#Combined-Shape-Copy-4_00000099662098343913214560000011313735345010054570_);}
	.st4{fill-rule:evenodd;clip-rule:evenodd;fill:url(#path-8_00000165926452774747833100000004951955035993145226_);}
	
		.st5{fill-rule:evenodd;clip-rule:evenodd;fill:url(#path-8_00000156578134438976862700000014583588805770697882_);fill-opacity:0.1;}
	.st6{opacity:0.5049;}
	.st7{fill-rule:evenodd;clip-rule:evenodd;fill:url(#path-9_00000088100145417467515490000001042964134361988234_);}
	.st8{fill-rule:evenodd;clip-rule:evenodd;fill-opacity:0.4962;}
	.st9{opacity:0.5443;}
	.st10{fill-rule:evenodd;clip-rule:evenodd;fill:url(#path-11_00000152226613049798907850000000183917106597578384_);}
	.st11{fill-rule:evenodd;clip-rule:evenodd;fill-opacity:0.4999;}
	.st12{opacity:0.5622;}
	.st13{fill-rule:evenodd;clip-rule:evenodd;fill:url(#path-13_00000044858321108563073820000013919901488725724311_);}
	.st14{fill-rule:evenodd;clip-rule:evenodd;}
	.st15{opacity:0.5842;}
	.st16{fill-rule:evenodd;clip-rule:evenodd;fill:url(#path-15_00000006670775478197447340000008276662485071320720_);}
	.st17{fill-rule:evenodd;clip-rule:evenodd;fill-opacity:0.5031;}
	.st18{opacity:0.1801;}
	.st19{fill-rule:evenodd;clip-rule:evenodd;fill:url(#path-16_00000105417146333195672810000011045024974187876275_);}
	.st20{fill-rule:evenodd;clip-rule:evenodd;fill-opacity:0.7728;}
	.st21{fill:#FFFFFF;}
	.st22{fill-rule:evenodd;clip-rule:evenodd;fill:#FFFFFF;}
	.st23{fill:none;stroke:#C0BFBC;stroke-dasharray:2,1;}
	.st24{fill:#F05639;}
	.st25{fill:#F3F3F3;}
</style>
<g>
	<g id="g108" transform="translate(-12.598536,-12.100617)">
		<g id="Group-5" transform="rotate(40,14.707207,46.948765)">
			
				<linearGradient id="Combined-Shape_00000114757685407841753810000000410484288760402050_" gradientUnits="userSpaceOnUse" x1="-156.3152" y1="394.8412" x2="-176.2796" y2="395.7018" gradientTransform="matrix(3.3859 1.853219e-05 2.164835e-05 4.8498 646.3074 -1888.5048)">
				<stop  offset="0" style="stop-color:#FF5C34"/>
				<stop  offset="1" style="stop-color:#EB0256"/>
			</linearGradient>
			
				<path id="Combined-Shape" inkscape:connector-curvature="0" style="fill-rule:evenodd;clip-rule:evenodd;fill:url(#Combined-Shape_00000114757685407841753810000000410484288760402050_);" d="
				M131.6,33.6c-18-4.5-36.5,6.4-41,24.3C86.1,75.7,97,94,115.3,98.5l1.3,0.4c-29-6.4-50.7-31.1-52.6-61.2l0-0.4
				c-1.1-18.5,13.3-34.1,32-35.2S130.7,15.2,131.6,33.6z"/>
			
				<linearGradient id="Combined-Shape-Copy-6_00000044164706610894482810000017740369421621022398_" gradientUnits="userSpaceOnUse" x1="-386.5077" y1="443.6178" x2="-379.1827" y2="426.3384" gradientTransform="matrix(4.9363 -1.793087e-05 2.103126e-05 3.3266 2057.6836 -1383.884)">
				<stop  offset="0" style="stop-color:#A63FDB"/>
				<stop  offset="1" style="stop-color:#FF257E"/>
			</linearGradient>
			
				<path id="Combined-Shape-Copy-6" inkscape:connector-curvature="0" style="fill-rule:evenodd;clip-rule:evenodd;fill:url(#Combined-Shape-Copy-6_00000044164706610894482810000017740369421621022398_);" d="
				M131.6,33.6c-9.7,15.9-4.5,36.3,11.6,46c16.1,9.4,36.7,4.3,46.4-11.4l0.6-1.1c-11.6,20-33.5,33.5-58.6,33.5
				c-5.2,0-10.1-0.6-15-1.7l-1.3-0.4c-18-4.5-29.2-22.5-24.7-40.6C95.1,40.1,113.6,29.3,131.6,33.6z"/>
			
				<linearGradient id="Combined-Shape-Copy-5_00000032641681360997771180000003810071678803135922_" gradientUnits="userSpaceOnUse" x1="-184.076" y1="404.4566" x2="-167.8595" y2="408.0273" gradientTransform="matrix(3.5604 -4.610610e-05 3.082776e-05 4.612 805.1826 -1809.6869)">
				<stop  offset="0" style="stop-color:#00FFF0"/>
				<stop  offset="1" style="stop-color:#0087FF"/>
			</linearGradient>
			
				<path id="Combined-Shape-Copy-5" inkscape:connector-curvature="0" style="fill-rule:evenodd;clip-rule:evenodd;fill:url(#Combined-Shape-Copy-5_00000032641681360997771180000003810071678803135922_);" d="
				M131.6,33.6c12,14.2,33.3,15.9,47.7,4.1s16.1-32.9,4.1-47l-0.2-0.4c10.1,11.6,16.1,26.8,16.1,43.4c0,12.2-3.2,23.6-9,33.3
				l-0.6,1.1c-9.7,15.9-30.5,21-46.4,11.4C127.3,70.1,122.1,49.5,131.6,33.6z"/>
			
				<linearGradient id="Combined-Shape-Copy-4_00000024697317623195727110000003119232002123611782_" gradientUnits="userSpaceOnUse" x1="-301.5371" y1="397.1024" x2="-313.8507" y2="410.2454" gradientTransform="matrix(4.2468 9.877566e-06 3.111246e-05 3.8666 1429.9724 -1562.6793)">
				<stop  offset="0" style="stop-color:#17C934"/>
				<stop  offset="1" style="stop-color:#03FF6E"/>
			</linearGradient>
			
				<path id="Combined-Shape-Copy-4" inkscape:connector-curvature="0" style="fill-rule:evenodd;clip-rule:evenodd;fill:url(#Combined-Shape-Copy-4_00000024697317623195727110000003119232002123611782_);" d="
				M131.6,33.6C149,26.7,157.4,7.2,150.3-10s-26.6-25.3-44-18.5l-1.3,0.6c8.2-3.4,17.2-5.4,26.8-5.4c20.6,0,39.1,9.2,51.5,23.6
				l0.2,0.4c12,14.2,10.1,35.2-4.1,47C165.1,49.7,143.6,47.8,131.6,33.6z"/>
			<g id="Combined-Shape-Copy-3">
				<g id="use71">
					
						<linearGradient id="path-8_00000159463908241201748820000017245379402574229893_" gradientUnits="userSpaceOnUse" x1="-353.7545" y1="418.2422" x2="-357.4971" y2="396.6973" gradientTransform="matrix(4.6167 0 3.013790e-05 3.5568 1766.7477 -1460.1554)">
						<stop  offset="0" style="stop-color:#FFB000"/>
						<stop  offset="1" style="stop-color:#FF7725"/>
					</linearGradient>
					
						<path id="path-8" inkscape:connector-curvature="0" style="fill-rule:evenodd;clip-rule:evenodd;fill:url(#path-8_00000159463908241201748820000017245379402574229893_);" d="
						M131.6,33.6c-1.1-18.5-17-32.6-35.6-31.6s-33.1,16.8-32,35.2l0,0.4c0-1.3-0.2-2.6-0.2-4.1c0-27.5,16.8-51.1,41-61.4l1.5-0.6
						c17.4-6.9,37.2,1.3,44,18.5C157.4,7.2,149,26.7,131.6,33.6z"/>
				</g>
				<g id="use73">
					
						<linearGradient id="path-8_00000025424062718541868730000017548406391287385018_" gradientUnits="userSpaceOnUse" x1="-353.7545" y1="418.2422" x2="-357.4971" y2="396.6973" gradientTransform="matrix(4.6167 0 3.013790e-05 3.5568 1766.7477 -1460.1554)">
						<stop  offset="0" style="stop-color:#FFB000"/>
						<stop  offset="1" style="stop-color:#FF7725"/>
					</linearGradient>
					
						<path id="path-8_00000024697530980511891170000013577268006353882034_" inkscape:connector-curvature="0" style="fill-rule:evenodd;clip-rule:evenodd;fill:url(#path-8_00000025424062718541868730000017548406391287385018_);fill-opacity:0.1;" d="
						M131.6,33.6c-1.1-18.5-17-32.6-35.6-31.6s-33.1,16.8-32,35.2l0,0.4c0-1.3-0.2-2.6-0.2-4.1c0-27.5,16.8-51.1,41-61.4l1.5-0.6
						c17.4-6.9,37.2,1.3,44,18.5C157.4,7.2,149,26.7,131.6,33.6z"/>
				</g>
			</g>
			<g id="g80" class="st6">
				<g id="use76">
					
						<linearGradient id="path-9_00000140015528402124730370000018436252925869741195_" gradientUnits="userSpaceOnUse" x1="-163.8561" y1="394.8326" x2="-166.4975" y2="379.6255" gradientTransform="matrix(3.4623 2.598139e-05 -3.287229e-05 4.7427 716.0121 -1852.9485)">
						<stop  offset="0" style="stop-color:#FFB000"/>
						<stop  offset="1" style="stop-color:#FF7725"/>
					</linearGradient>
					
						<path id="path-9" inkscape:connector-curvature="0" style="fill-rule:evenodd;clip-rule:evenodd;fill:url(#path-9_00000140015528402124730370000018436252925869741195_);" d="
						M105.8-28l0.4-0.2c17.4-6.9,37.2,1.3,44,18.5c7.1,17.2-1.3,36.5-18.7,43.6c-0.2-2.8-0.6-5.4-1.3-7.9c9.2-4.9,15.7-14.8,15.7-26
						c0-16.3-13.5-29.6-30.1-29.6C112.5-29.7,109-29.3,105.8-28z"/>
				</g>
				<g id="use78">
					<path id="path-9_00000041279033419933900070000016865105576933992321_" inkscape:connector-curvature="0" class="st8" d="
						M105.8-28l0.4-0.2c17.4-6.9,37.2,1.3,44,18.5c7.1,17.2-1.3,36.5-18.7,43.6c-0.2-2.8-0.6-5.4-1.3-7.9c9.2-4.9,15.7-14.8,15.7-26
						c0-16.3-13.5-29.6-30.1-29.6C112.5-29.7,109-29.3,105.8-28z"/>
				</g>
			</g>
			<g id="Combined-Shape-Copy-7" transform="rotate(72,37.055527,20.178799)" class="st9">
				<g id="use82">
					
						<linearGradient id="path-11_00000070836435990742613740000005336025743320094628_" gradientUnits="userSpaceOnUse" x1="734.0063" y1="-1080.803" x2="761.561" y2="-1079.1133" gradientTransform="matrix(3.4623 2.365676e-05 0 4.7426 -2472.3428 4987.9771)">
						<stop  offset="0" style="stop-color:#9EE85D"/>
						<stop  offset="1" style="stop-color:#0ED061"/>
					</linearGradient>
					
						<path id="path-11" inkscape:connector-curvature="0" style="fill-rule:evenodd;clip-rule:evenodd;fill:url(#path-11_00000070836435990742613740000005336025743320094628_);" d="
						M53.4-127.9l0.4-0.2c17.4-6.9,37.2,1.3,44,18.5C105-92.4,96.6-73.1,79.2-66c-0.2-2.8-0.6-5.4-1.3-7.9
						c9.2-4.9,15.7-14.8,15.7-26c0-16.3-13.5-29.6-30.1-29.6C60.1-129.6,56.6-128.9,53.4-127.9L53.4-127.9z"/>
				</g>
				<g id="use84">
					<path id="path-11_00000096035700788886535640000000221478770473265337_" inkscape:connector-curvature="0" class="st11" d="
						M53.4-127.9l0.4-0.2c17.4-6.9,37.2,1.3,44,18.5C105-92.4,96.6-73.1,79.2-66c-0.2-2.8-0.6-5.4-1.3-7.9
						c9.2-4.9,15.7-14.8,15.7-26c0-16.3-13.5-29.6-30.1-29.6C60.1-129.6,56.6-128.9,53.4-127.9L53.4-127.9z"/>
				</g>
			</g>
			<g id="Combined-Shape-Copy-8" transform="rotate(143,33.811317,33.641001)" class="st12">
				<g id="use87">
					
						<linearGradient id="path-13_00000163042418476163113660000008601794822692809387_" gradientUnits="userSpaceOnUse" x1="-548.3217" y1="-2417.4548" x2="-554.5056" y2="-2433.877" gradientTransform="matrix(3.4623 1.403949e-05 0 4.7427 1842.8834 11432.3311)">
						<stop  offset="0" style="stop-color:#21EFE3"/>
						<stop  offset="1" style="stop-color:#2598FF"/>
					</linearGradient>
					
						<path id="path-13" inkscape:connector-curvature="0" style="fill-rule:evenodd;clip-rule:evenodd;fill:url(#path-13_00000163042418476163113660000008601794822692809387_);" d="
						M-70.5-87.3l0.4-0.2c17.4-6.9,37.2,1.3,44,18.5c7.1,17.2-1.3,36.5-18.7,43.6c-0.2-2.8-0.6-5.4-1.3-7.9
						c9.2-4.9,15.7-14.8,15.7-26c0-16.3-13.5-29.6-30.1-29.6C-63.8-89-67.2-88.4-70.5-87.3z"/>
				</g>
				<g id="use89">
					<path id="path-13_00000110467171465195601290000014345966944787894148_" inkscape:connector-curvature="0" class="st14" d="
						M-70.5-87.3l0.4-0.2c17.4-6.9,37.2,1.3,44,18.5c7.1,17.2-1.3,36.5-18.7,43.6c-0.2-2.8-0.6-5.4-1.3-7.9
						c9.2-4.9,15.7-14.8,15.7-26c0-16.3-13.5-29.6-30.1-29.6C-63.8-89-67.2-88.4-70.5-87.3z"/>
				</g>
			</g>
			<g id="Combined-Shape-Copy-9" transform="rotate(-143,19.330169,34.673473)" class="st15">
				<g id="use92">
					
						<linearGradient id="path-15_00000068645304165766363790000012454698923646660489_" gradientUnits="userSpaceOnUse" x1="-2286.0542" y1="-1835.2885" x2="-2311.8245" y2="-1833.0992" gradientTransform="matrix(3.4623 3.544425e-05 5.630907e-05 4.7427 7843.4336 8761.6504)">
						<stop  offset="0" style="stop-color:#A63FDB"/>
						<stop  offset="1" style="stop-color:#FF257E"/>
					</linearGradient>
					
						<path id="path-15" inkscape:connector-curvature="0" style="fill-rule:evenodd;clip-rule:evenodd;fill:url(#path-15_00000068645304165766363790000012454698923646660489_);" d="
						M-95.5,41.2l0.4-0.2c17.4-6.9,37.2,1.3,44,18.5c7.1,17.2-1.3,36.5-18.7,43.6c-0.2-2.8-0.6-5.4-1.3-7.9
						c9.2-5.2,15.7-14.8,15.7-26c0-16.3-13.5-29.6-30.1-29.6C-89,39.5-92.3,39.9-95.5,41.2L-95.5,41.2z"/>
				</g>
				<g id="use94">
					<path id="path-15_00000151506519614183293210000002543953263582066344_" inkscape:connector-curvature="0" class="st17" d="
						M-95.5,41.2l0.4-0.2c17.4-6.9,37.2,1.3,44,18.5c7.1,17.2-1.3,36.5-18.7,43.6c-0.2-2.8-0.6-5.4-1.3-7.9
						c9.2-5.2,15.7-14.8,15.7-26c0-16.3-13.5-29.6-30.1-29.6C-89,39.5-92.3,39.9-95.5,41.2L-95.5,41.2z"/>
				</g>
			</g>
			<g id="Combined-Shape-Copy-10" transform="rotate(-71,14.22193,21.605855)" class="st18">
				<g id="use97">
					
						<linearGradient id="path-16_00000062912584567734981840000007606149578025623482_" gradientUnits="userSpaceOnUse" x1="-2029.9114" y1="-86.8452" x2="-2043.4998" y2="-86.2596" gradientTransform="matrix(3.4623 1.874520e-05 2.936892e-05 4.7427 7084.6182 528.0119)">
						<stop  offset="0" style="stop-color:#FF5C34"/>
						<stop  offset="1" style="stop-color:#EB0256"/>
					</linearGradient>
					
						<path id="path-16" inkscape:connector-curvature="0" style="fill-rule:evenodd;clip-rule:evenodd;fill:url(#path-16_00000062912584567734981840000007606149578025623482_);" d="
						M15.1,74.4l0.4-0.2c17.4-6.9,37.2,1.3,44,18.5s-1.3,36.5-18.7,43.6c-0.2-2.8-0.6-5.4-1.3-7.9c9.2-4.9,15.7-14.8,15.7-26
						c0-16.3-13.5-29.6-30.1-29.6C21.5,72.7,18.3,73.4,15.1,74.4z"/>
				</g>
				<g id="use99">
					<path id="path-16_00000045577588944108804050000003225937843616362635_" inkscape:connector-curvature="0" class="st20" d="
						M15.1,74.4l0.4-0.2c17.4-6.9,37.2,1.3,44,18.5s-1.3,36.5-18.7,43.6c-0.2-2.8-0.6-5.4-1.3-7.9c9.2-4.9,15.7-14.8,15.7-26
						c0-16.3-13.5-29.6-30.1-29.6C21.5,72.7,18.3,73.4,15.1,74.4z"/>
				</g>
			</g>
		</g>
		<g id="Path-6-Copy-2">
			<g id="use103">
				<path id="path-17" inkscape:connector-curvature="0" d="M107.6,126.3h12.2c11.6,0,21-9,21-20.4s-9.4-20.4-21-20.4H102
					c-6.7,0-12,5.4-12,11.8v45.7L107.6,126.3z"/>
			</g>
			<g id="use105">
				<path id="path-17_00000173880314673860124020000000006783466366779797_" inkscape:connector-curvature="0" class="st21" d="
					M107.6,126.3h12.2c11.6,0,21-9,21-20.4s-9.4-20.4-21-20.4H102c-6.7,0-12,5.4-12,11.8v45.7L107.6,126.3z"/>
			</g>
		</g>
	</g>
	<g id="use63_00000001644720714145895840000003742856701527207324_">
		
			<rect id="path-1_00000065786253271032085060000009659173962027377289_" x="32.5" y="32.4" class="st22" width="135.5" height="134.9"/>
	</g>
	<path id="rect968" class="st23" d="M9.9,0h180.6c5.2,0,9.4,4.3,9.4,9.4v180.6c0,5.2-4.3,9.4-9.4,9.4H9.9c-5.2,0-9.4-4.3-9.4-9.4
		V9.4C0.5,4.3,4.8,0,9.9,0z"/>
	<rect id="rect968-3" x="33.1" y="32.9" class="st23" width="133.8" height="133.8"/>
	<path id="rect906" inkscape:connector-curvature="0" sodipodi:nodetypes="ccc" class="st23" d="M32.5,199.5v-32.2h-32"/>
	<path id="text912" d="M8.7,178.5c-0.9,0-1.5,0.4-1.9,1.1c-0.4,0.6-0.6,1.7-0.6,3c0,1.3,0.2,2.4,0.6,3c0.4,0.6,1.1,1.1,1.9,1.1
		s1.5-0.4,1.9-1.1c0.4-0.6,0.6-1.7,0.6-3c0-1.3-0.2-2.4-0.6-3S9.5,178.5,8.7,178.5z M18.3,178.5c-0.4,0-0.9,0-1.3,0.2
		c-0.4,0.2-0.6,0.4-0.9,0.9c-0.2,0.4-0.2,0.9-0.2,1.3h0.9c0-0.4,0.2-0.9,0.4-1.1c0.2-0.2,0.6-0.4,1.1-0.4c0.4,0,0.9,0.2,1.1,0.4
		c0.2,0.2,0.4,0.6,0.4,1.1c0,0.2,0,0.4-0.2,0.6c0,0.2-0.2,0.4-0.4,0.6c-0.2,0.2-0.4,0.4-0.9,0.9l-2.6,2.8v0.6h4.9v-0.9H17l0,0
		l1.7-1.9c0.4-0.4,0.9-0.9,1.1-1.3c0.2-0.4,0.4-0.6,0.6-0.9c0-0.2,0.2-0.6,0.2-0.9c0-0.4,0-0.9-0.2-1.1c-0.2-0.2-0.4-0.6-0.9-0.9
		C19.2,178.7,18.8,178.5,18.3,178.5z M99.9,178.5c-0.9,0-1.5,0.4-1.9,1.1c-0.4,0.6-0.6,1.7-0.6,3c0,1.3,0.2,2.4,0.6,3
		c0.4,0.6,1.1,1.1,1.9,1.1s1.5-0.4,1.9-1.1c0.4-0.6,0.6-1.7,0.6-3c0-1.3-0.2-2.4-0.6-3C101.4,178.9,100.8,178.5,99.9,178.5z
		 M106.8,178.5c-0.9,0-1.5,0.4-1.9,1.1c-0.4,0.6-0.6,1.7-0.6,3c0,1.3,0.2,2.4,0.6,3c0.4,0.6,1.1,1.1,1.9,1.1c0.9,0,1.5-0.4,1.9-1.1
		c0.4-0.6,0.6-1.7,0.6-3c0-1.3-0.2-2.4-0.6-3S107.7,178.5,106.8,178.5z M23,178.7l-0.4,3.9l0.9,0.2c0.2-0.2,0.4-0.2,0.6-0.2
		c0.2,0,0.4-0.2,0.6-0.2c0.4,0,0.6,0,0.9,0.2c0.2,0.2,0.4,0.4,0.6,0.6c0.2,0.2,0.2,0.6,0.2,0.9c0,0.4,0,0.6-0.2,0.9
		c-0.2,0.2-0.4,0.4-0.6,0.6c-0.2,0.2-0.6,0.2-0.9,0.2c-0.4,0-0.6-0.2-1.1-0.4c-0.2-0.2-0.4-0.4-0.4-0.9h-0.9c0,0.4,0.2,0.9,0.4,1.1
		c0.2,0.2,0.4,0.6,0.9,0.6c0.4,0.2,0.9,0.2,1.3,0.2s0.9-0.2,1.3-0.4c0.4-0.2,0.6-0.6,0.9-0.9c0.2-0.4,0.4-0.9,0.4-1.3
		c0-0.4-0.2-0.9-0.4-1.3c-0.2-0.4-0.4-0.6-0.9-0.9c-0.4-0.2-0.9-0.4-1.3-0.4c-0.2,0-0.4,0-0.9,0.2c-0.2,0-0.4,0.2-0.6,0.2l0,0
		l0.2-2.4h3.2v-0.9H23V178.7z M91.8,178.7L91.8,178.7c-0.2,0.4-0.4,0.4-0.4,0.6c-0.2,0.2-0.4,0.2-0.6,0.4c-0.2,0.2-0.4,0.2-0.9,0.2
		v0.9c0.2,0,0.6,0,0.9,0s0.4-0.2,0.6-0.2c0.2,0,0.2-0.2,0.2-0.2l0,0v6.4h0.9v-7.9h-0.6V178.7z M8.7,179.3c0.6,0,1.1,0.2,1.3,0.9
		c0.2,0.6,0.4,1.3,0.4,2.4c0,1.1-0.2,1.7-0.4,2.4c-0.2,0.6-0.9,0.9-1.3,0.9c-0.6,0-1.1-0.2-1.3-0.9c-0.2-0.6-0.4-1.3-0.4-2.4
		c0-1.1,0.2-1.7,0.4-2.4C7.6,179.7,8.2,179.3,8.7,179.3z M99.9,179.3c0.6,0,1.1,0.2,1.3,0.9c0.2,0.6,0.4,1.3,0.4,2.4
		c0,1.1-0.2,1.7-0.4,2.4c-0.2,0.6-0.9,0.9-1.3,0.9c-0.6,0-1.1-0.2-1.3-0.9c-0.2-0.6-0.4-1.3-0.4-2.4c0-1.1,0.2-1.7,0.4-2.4
		C98.9,179.7,99.5,179.3,99.9,179.3z M106.8,179.3c0.6,0,1.1,0.2,1.3,0.9c0.2,0.6,0.4,1.3,0.4,2.4c0,1.1-0.2,1.7-0.4,2.4
		c-0.2,0.6-0.9,0.9-1.3,0.9c-0.6,0-1.1-0.2-1.3-0.9c-0.2-0.6-0.4-1.3-0.4-2.4c0-1.1,0.2-1.7,0.4-2.4
		C105.7,179.7,106.2,179.3,106.8,179.3z M13.6,185.3c-0.2,0-0.4,0-0.4,0.2c-0.2,0.2-0.2,0.2-0.2,0.4c0,0.2,0,0.4,0.2,0.4
		c0.2,0.2,0.2,0.2,0.4,0.2s0.4,0,0.4-0.2c0.2-0.2,0.2-0.2,0.2-0.4c0-0.2,0-0.4-0.2-0.4C14,185.3,13.8,185.3,13.6,185.3z M95.4,185.3
		c-0.2,0-0.4,0-0.4,0.2c-0.2,0.2-0.2,0.2-0.2,0.4c0,0.2,0,0.4,0.2,0.4c0.2,0.2,0.2,0.2,0.4,0.2c0.2,0,0.4,0,0.4-0.2
		c0.2-0.2,0.2-0.2,0.2-0.4c0-0.2,0-0.4-0.2-0.4C95.8,185.3,95.6,185.3,95.4,185.3z"/>
	<g>
		<rect x="33.1" y="32.9" class="st24" width="133.8" height="133.8"/>
		<g>
			<g>
				<circle class="st25" cx="143.3" cy="50" r="3.4"/>
				<circle class="st25" cx="134.1" cy="50" r="3.4"/>
				<circle class="st25" cx="124.6" cy="50.3" r="3.4"/>
				<circle class="st25" cx="115.2" cy="50" r="3.4"/>
				<circle class="st25" cx="105.9" cy="50.3" r="3.4"/>
			</g>
			<g>
				<circle class="st25" cx="134.1" cy="59.7" r="3.4"/>
				<circle class="st25" cx="124.6" cy="59.7" r="3.4"/>
				<circle class="st25" cx="115.4" cy="59.9" r="3.4"/>
				<circle class="st25" cx="105.9" cy="59.7" r="3.4"/>
				<circle class="st25" cx="96.5" cy="59.9" r="3.4"/>
			</g>
			<g>
				<circle class="st25" cx="124.6" cy="69.4" r="3.4"/>
				<circle class="st25" cx="115.4" cy="69.4" r="3.4"/>
				<circle class="st25" cx="105.9" cy="69.4" r="3.4"/>
				<circle class="st25" cx="96.5" cy="69.4" r="3.4"/>
				<circle class="st25" cx="87.3" cy="69.4" r="3.4"/>
			</g>
			<g>
				<circle class="st25" cx="115.4" cy="78.8" r="3.4"/>
				<circle class="st25" cx="105.9" cy="78.8" r="3.4"/>
				<circle class="st25" cx="96.7" cy="79" r="3.4"/>
				<circle class="st25" cx="87.3" cy="78.8" r="3.4"/>
				<circle class="st25" cx="77.8" cy="79" r="3.4"/>
			</g>
			<circle class="st25" cx="105.9" cy="88.5" r="3.4"/>
			<circle class="st25" cx="96.7" cy="88.5" r="3.4"/>
			<circle class="st25" cx="87.3" cy="88.7" r="3.4"/>
			<circle class="st25" cx="68.6" cy="88.7" r="3.4"/>
			<circle class="st25" cx="96.7" cy="98.1" r="3.4"/>
			<circle class="st25" cx="78" cy="98.4" r="3.4"/>
			<circle class="st25" cx="68.6" cy="98.1" r="3.4"/>
			<circle class="st25" cx="59.1" cy="98.4" r="3.4"/>
			<path class="st25" d="M72.7,78.6L56.1,94.1c0,0-6.7,8.8,1.1,16.5l42.3,42.3H139c0,0,1.5-3.2,0-4.7L73.7,82.9
				C73.7,82.9,71.4,79.7,72.7,78.6z"/>
		</g>
	</g>
</g>
</svg>
