<?xml version="1.0" encoding="utf-8"?>
<!-- Generator: Adobe Illustrator 25.4.1, SVG Export Plug-In . SVG Version: 6.00 Build 0)  -->
<svg version="1.1"
	 id="svg114" xmlns:cc="http://creativecommons.org/ns#" xmlns:dc="http://purl.org/dc/elements/1.1/" xmlns:inkscape="http://www.inkscape.org/namespaces/inkscape" xmlns:rdf="http://www.w3.org/1999/02/22-rdf-syntax-ns#" xmlns:sodipodi="http://sodipodi.sourceforge.net/DTD/sodipodi-0.dtd" xmlns:svg="http://www.w3.org/2000/svg"
	 xmlns="http://www.w3.org/2000/svg" xmlns:xlink="http://www.w3.org/1999/xlink" x="0px" y="0px" viewBox="0 0 300 300"
	 style="enable-background:new 0 0 300 300;" xml:space="preserve">
<style type="text/css">
	.st0{fill-rule:evenodd;clip-rule:evenodd;fill:url(#Combined-Shape_00000057827778912772335560000008773479914139982995_);}
	.st1{fill-rule:evenodd;clip-rule:evenodd;fill:url(#Combined-Shape-Copy-6_00000127013027580605020650000001974636589474322560_);}
	.st2{fill-rule:evenodd;clip-rule:evenodd;fill:url(#Combined-Shape-Copy-5_00000071529546259386838350000007445274708620063135_);}
	.st3{fill-rule:evenodd;clip-rule:evenodd;fill:url(#Combined-Shape-Copy-4_00000170274410710280138810000005474364172632838821_);}
	.st4{fill-rule:evenodd;clip-rule:evenodd;fill:url(#path-8_00000064348050267111839480000011476058586057413015_);}
	
		.st5{fill-rule:evenodd;clip-rule:evenodd;fill:url(#path-8_00000124865880064197571560000007746053411829434267_);fill-opacity:0.1;}
	.st6{opacity:0.5049;}
	.st7{fill-rule:evenodd;clip-rule:evenodd;fill:url(#path-9_00000145049167553832285340000006461784458006643599_);}
	.st8{fill-rule:evenodd;clip-rule:evenodd;fill-opacity:0.4962;}
	.st9{opacity:0.5443;}
	.st10{fill-rule:evenodd;clip-rule:evenodd;fill:url(#path-11_00000155121527703683688290000009955154990318190208_);}
	.st11{fill-rule:evenodd;clip-rule:evenodd;fill-opacity:0.4999;}
	.st12{opacity:0.5622;}
	.st13{fill-rule:evenodd;clip-rule:evenodd;fill:url(#path-13_00000139996207539338642320000015897651059324110500_);}
	.st14{fill-rule:evenodd;clip-rule:evenodd;}
	.st15{opacity:0.5842;}
	.st16{fill-rule:evenodd;clip-rule:evenodd;fill:url(#path-15_00000013911551304701523710000000507146852273749168_);}
	.st17{fill-rule:evenodd;clip-rule:evenodd;fill-opacity:0.5031;}
	.st18{opacity:0.1801;}
	.st19{fill-rule:evenodd;clip-rule:evenodd;fill:url(#path-16_00000136402299256919620120000002441883885625955493_);}
	.st20{fill-rule:evenodd;clip-rule:evenodd;fill-opacity:0.7728;}
	.st21{fill:#FFFFFF;}
	.st22{fill-rule:evenodd;clip-rule:evenodd;fill:#FFFFFF;}
	.st23{fill:none;stroke:#C0BFBC;stroke-dasharray:2,1;}
	.st24{fill:#F05639;}
	.st25{fill:#F3F3F3;}
</style>
<sodipodi:namedview  bordercolor="#666666" borderopacity="1" gridtolerance="10" guidetolerance="10" id="namedview84" inkscape:current-layer="svg114" inkscape:cx="177.05496" inkscape:cy="82.980987" inkscape:guide-bbox="true" inkscape:pageopacity="0" inkscape:pageshadow="2" inkscape:window-height="1016" inkscape:window-maximized="1" inkscape:window-width="1920" inkscape:window-x="0" inkscape:window-y="27" inkscape:zoom="2.2389646" objecttolerance="10" pagecolor="#ffffff" showgrid="false" showguides="true">
	</sodipodi:namedview>
<desc  id="desc4">Created with Sketch.</desc>
<g id="Rectangle">
</g>
<g id="g108" transform="translate(-12.598536,-12.100617)">
	<g id="Group-5" transform="rotate(40,14.707207,46.948765)">
		
			<linearGradient id="Combined-Shape_00000044178296291416353720000010908946256262672300_" gradientUnits="userSpaceOnUse" x1="344.3058" y1="1166.2161" x2="314.4673" y2="1164.9298" gradientTransform="matrix(2.5937 -3.1174 -2.1764 -3.7152 1846.9633 5468.7354)">
			<stop  offset="0" style="stop-color:#FF5C34"/>
			<stop  offset="1" style="stop-color:#EB0256"/>
		</linearGradient>
		
			<path id="Combined-Shape" inkscape:connector-curvature="0" style="fill-rule:evenodd;clip-rule:evenodd;fill:url(#Combined-Shape_00000044178296291416353720000010908946256262672300_);" d="
			M202.2,39.9c-27.1-6.7-54.6,9.6-61.3,36.4s9.7,53.9,36.8,60.6l2.1,0.5c-43.2-9.6-75.9-46.6-78.6-91.5l0-0.8
			c-1.5-27.6,20-51.1,47.9-52.5S200.7,12.3,202.2,39.9z"/>
		
			<linearGradient id="Combined-Shape-Copy-6_00000046337249250300366260000012759506001591635630_" gradientUnits="userSpaceOnUse" x1="220.2682" y1="1213.0283" x2="231.2158" y2="1238.8538" gradientTransform="matrix(3.7814 -2.1383 -3.173 -2.5483 3195.8987 3699.3083)">
			<stop  offset="0" style="stop-color:#A63FDB"/>
			<stop  offset="1" style="stop-color:#FF257E"/>
		</linearGradient>
		
			<path id="Combined-Shape-Copy-6" inkscape:connector-curvature="0" style="fill-rule:evenodd;clip-rule:evenodd;fill:url(#Combined-Shape-Copy-6_00000046337249250300366260000012759506001591635630_);" d="
			M202.2,39.9c-14.4,23.7-6.6,54.4,17.3,68.6c24,14.2,55,6.6,69.4-17.1l1-1.6c-17.5,29.9-50.2,50-87.7,50c-7.7,0-15.2-0.9-22.4-2.5
			l-2.1-0.5c-27.1-6.7-43.6-33.8-36.8-60.6C147.6,49.5,175.1,33.2,202.2,39.9z"/>
		
			<linearGradient id="Combined-Shape-Copy-5_00000101800871905952851560000004553338833602811541_" gradientUnits="userSpaceOnUse" x1="334.9753" y1="1179.4723" x2="359.2124" y2="1174.1356" gradientTransform="matrix(2.7274 -2.9646 -2.2886 -3.533 1998.8225 5192.5581)">
			<stop  offset="0" style="stop-color:#00FFF0"/>
			<stop  offset="1" style="stop-color:#0087FF"/>
		</linearGradient>
		
			<path id="Combined-Shape-Copy-5" inkscape:connector-curvature="0" style="fill-rule:evenodd;clip-rule:evenodd;fill:url(#Combined-Shape-Copy-5_00000101800871905952851560000004553338833602811541_);" d="
			M202.2,39.9c18,21.1,49.9,23.9,71.3,6.2s24.2-49.3,6.2-70.4l-0.4-0.5c15,17.4,24.1,40,24.1,64.7c0,18.2-4.9,35.2-13.5,49.9l-1,1.6
			c-14.4,23.7-45.5,31.3-69.4,17.1S187.8,63.6,202.2,39.9z"/>
		
			<linearGradient id="Combined-Shape-Copy-4_00000054986027048449531100000007126625399912075166_" gradientUnits="userSpaceOnUse" x1="307.1674" y1="1219.6803" x2="288.7636" y2="1200.0371" gradientTransform="matrix(3.2532 -2.4854 -2.7298 -2.962 2595.9719 4326.7153)">
			<stop  offset="0" style="stop-color:#17C934"/>
			<stop  offset="1" style="stop-color:#03FF6E"/>
		</linearGradient>
		
			<path id="Combined-Shape-Copy-4" inkscape:connector-curvature="0" style="fill-rule:evenodd;clip-rule:evenodd;fill:url(#Combined-Shape-Copy-4_00000054986027048449531100000007126625399912075166_);" d="
			M202.2,39.9c25.9-10.3,38.4-39.5,28-65.1c-10.5-25.6-40-38-65.9-27.6l-2.1,0.8c12.3-5.2,25.8-8.1,40-8.1
			c30.9,0,58.5,13.7,77.1,35.2l0.4,0.5c18,21.1,15.2,52.7-6.2,70.4S220.1,61.1,202.2,39.9z"/>
		<g id="Combined-Shape-Copy-3">
			<g id="use71">
				
					<linearGradient id="path-8_00000126291420710570170240000009395619224758111144_" gradientUnits="userSpaceOnUse" x1="251.7312" y1="1223.769" x2="246.1377" y2="1255.9701" gradientTransform="matrix(3.5366 -2.2863 -2.9676 -2.7247 2917.8467 3966.7947)">
					<stop  offset="0" style="stop-color:#FFB000"/>
					<stop  offset="1" style="stop-color:#FF7725"/>
				</linearGradient>
				
					<path id="path-8" inkscape:connector-curvature="0" style="fill-rule:evenodd;clip-rule:evenodd;fill:url(#path-8_00000126291420710570170240000009395619224758111144_);" d="
					M202.2,39.9C200.7,12.3,176.9-8.8,149-7.4s-49.3,25-47.9,52.5l0,0.8c-0.1-2-0.2-4-0.2-6c0-41.2,25.2-76.5,61.2-91.8l2.1-0.8
					c25.9-10.3,55.4,2,65.9,27.6S228.1,29.6,202.2,39.9z"/>
			</g>
			<g id="use73">
				
					<linearGradient id="path-8_00000125574768290046825340000004640850911418421651_" gradientUnits="userSpaceOnUse" x1="251.7312" y1="1223.769" x2="246.1377" y2="1255.9701" gradientTransform="matrix(3.5366 -2.2863 -2.9676 -2.7247 2917.8467 3966.7947)">
					<stop  offset="0" style="stop-color:#FFB000"/>
					<stop  offset="1" style="stop-color:#FF7725"/>
				</linearGradient>
				
					<path id="path-8_00000024697530980511891170000013577268006353882034_" inkscape:connector-curvature="0" style="fill-rule:evenodd;clip-rule:evenodd;fill:url(#path-8_00000125574768290046825340000004640850911418421651_);fill-opacity:0.1;" d="
					M202.2,39.9C200.7,12.3,176.9-8.8,149-7.4s-49.3,25-47.9,52.5l0,0.8c-0.1-2-0.2-4-0.2-6c0-41.2,25.2-76.5,61.2-91.8l2.1-0.8
					c25.9-10.3,55.4,2,65.9,27.6S228.1,29.6,202.2,39.9z"/>
			</g>
		</g>
		<g id="g80" class="st6">
			<g id="use76">
				
					<linearGradient id="path-9_00000016065947405521865550000006621175290178428078_" gradientUnits="userSpaceOnUse" x1="340.523" y1="1171.7838" x2="336.575" y2="1194.5118" gradientTransform="matrix(2.6523 -3.0485 -2.2255 -3.6331 1913.5088 5344.2852)">
					<stop  offset="0" style="stop-color:#FFB000"/>
					<stop  offset="1" style="stop-color:#FF7725"/>
				</linearGradient>
				
					<path id="path-9" inkscape:connector-curvature="0" style="fill-rule:evenodd;clip-rule:evenodd;fill:url(#path-9_00000016065947405521865550000006621175290178428078_);" d="
					M163.5-52.5l0.8-0.3c25.9-10.3,55.4,2,65.9,27.6c10.5,25.6-2,54.7-28,65.1c-0.2-4.1-0.9-8-2.1-11.8C214,20.6,223.4,6,223.4-10.7
					c0-24.5-20.1-44.3-44.8-44.3C173.3-55,168.2-54.1,163.5-52.5z"/>
			</g>
			<g id="use78">
				<path id="path-9_00000041279033419933900070000016865105576933992321_" inkscape:connector-curvature="0" class="st8" d="
					M163.5-52.5l0.8-0.3c25.9-10.3,55.4,2,65.9,27.6c10.5,25.6-2,54.7-28,65.1c-0.2-4.1-0.9-8-2.1-11.8C214,20.6,223.4,6,223.4-10.7
					c0-24.5-20.1-44.3-44.8-44.3C173.3-55,168.2-54.1,163.5-52.5z"/>
			</g>
		</g>
		<g id="Combined-Shape-Copy-7" transform="rotate(72,37.055527,20.178799)" class="st9">
			<g id="use82">
				
					<linearGradient id="path-11_00000111879134858676394290000011779095193847159432_" gradientUnits="userSpaceOnUse" x1="1553.7327" y1="198.0015" x2="1594.9152" y2="200.5268" gradientTransform="matrix(-1.297 -4.3973 -3.2102 1.7766 2662.7681 6293.769)">
					<stop  offset="0" style="stop-color:#9EE85D"/>
					<stop  offset="1" style="stop-color:#0ED061"/>
				</linearGradient>
				
					<path id="path-11" inkscape:connector-curvature="0" style="fill-rule:evenodd;clip-rule:evenodd;fill:url(#path-11_00000111879134858676394290000011779095193847159432_);" d="
					M68.4-223.7l0.8-0.3c25.9-10.3,55.4,2,65.9,27.6s-2,54.7-28,65.1c-0.2-4.1-0.9-8-2.1-11.8c13.9-7.5,23.3-22.1,23.3-38.9
					c0-24.5-20.1-44.3-44.8-44.3C78.2-226.2,73.1-225.3,68.4-223.7L68.4-223.7z"/>
			</g>
			<g id="use84">
				<path id="path-11_00000096035700788886535640000000221478770473265337_" inkscape:connector-curvature="0" class="st11" d="
					M68.4-223.7l0.8-0.3c25.9-10.3,55.4,2,65.9,27.6s-2,54.7-28,65.1c-0.2-4.1-0.9-8-2.1-11.8c13.9-7.5,23.3-22.1,23.3-38.9
					c0-24.5-20.1-44.3-44.8-44.3C78.2-226.2,73.1-225.3,68.4-223.7L68.4-223.7z"/>
			</g>
		</g>
		<g id="Combined-Shape-Copy-8" transform="rotate(143,33.811317,33.641001)" class="st12">
			<g id="use87">
				
					<linearGradient id="path-13_00000073687173891637624030000012145017735289923760_" gradientUnits="userSpaceOnUse" x1="1053.5957" y1="-1265.2903" x2="1044.3533" y2="-1289.8346" gradientTransform="matrix(-3.4576 0.2482 0.1812 4.7362 3792.5046 5661.9355)">
					<stop  offset="0" style="stop-color:#21EFE3"/>
					<stop  offset="1" style="stop-color:#2598FF"/>
				</linearGradient>
				
					<path id="path-13" inkscape:connector-curvature="0" style="fill-rule:evenodd;clip-rule:evenodd;fill:url(#path-13_00000073687173891637624030000012145017735289923760_);" d="
					M-135.8-165.3l0.8-0.3c25.9-10.3,55.4,2,65.9,27.6s-2,54.7-28,65.1c-0.2-4.1-0.9-8-2.1-11.8c13.9-7.5,23.3-22.1,23.3-38.9
					c0-24.5-20.1-44.3-44.8-44.3C-126-167.9-131.1-167-135.8-165.3z"/>
			</g>
			<g id="use89">
				<path id="path-13_00000110467171465195601290000014345966944787894148_" inkscape:connector-curvature="0" class="st14" d="
					M-135.8-165.3l0.8-0.3c25.9-10.3,55.4,2,65.9,27.6s-2,54.7-28,65.1c-0.2-4.1-0.9-8-2.1-11.8c13.9-7.5,23.3-22.1,23.3-38.9
					c0-24.5-20.1-44.3-44.8-44.3C-126-167.9-131.1-167-135.8-165.3z"/>
			</g>
		</g>
		<g id="Combined-Shape-Copy-9" transform="rotate(-143,19.330169,34.673473)" class="st15">
			<g id="use92">
				
					<linearGradient id="path-15_00000044160610383155957700000016302742602290035856_" gradientUnits="userSpaceOnUse" x1="-663.037" y1="-1276.5093" x2="-701.5522" y2="-1273.2375" gradientTransform="matrix(-0.7788 4.6211 3.3736 1.0669 3691.2981 4513.1509)">
					<stop  offset="0" style="stop-color:#A63FDB"/>
					<stop  offset="1" style="stop-color:#FF257E"/>
				</linearGradient>
				
					<path id="path-15" inkscape:connector-curvature="0" style="fill-rule:evenodd;clip-rule:evenodd;fill:url(#path-15_00000044160610383155957700000016302742602290035856_);" d="
					M-168.2,48l0.8-0.3c25.9-10.3,55.4,2,65.9,27.6s-2,54.7-28,65.1c-0.2-4.1-0.9-8-2.1-11.8c13.9-7.5,23.3-22.1,23.3-38.9
					c0-24.5-20.1-44.3-44.8-44.3C-158.4,45.4-163.5,46.3-168.2,48L-168.2,48z"/>
			</g>
			<g id="use94">
				<path id="path-15_00000151506519614183293210000002543953263582066344_" inkscape:connector-curvature="0" class="st17" d="
					M-168.2,48l0.8-0.3c25.9-10.3,55.4,2,65.9,27.6s-2,54.7-28,65.1c-0.2-4.1-0.9-8-2.1-11.8c13.9-7.5,23.3-22.1,23.3-38.9
					c0-24.5-20.1-44.3-44.8-44.3C-158.4,45.4-163.5,46.3-168.2,48L-168.2,48z"/>
			</g>
		</g>
		<g id="Combined-Shape-Copy-10" transform="rotate(-71,14.22193,21.605855)" class="st18">
			<g id="use97">
				
					<linearGradient id="path-16_00000004529218209703266080000004940681794757398949_" gradientUnits="userSpaceOnUse" x1="-1083.4093" y1="379.7294" x2="-1103.7179" y2="378.8539" gradientTransform="matrix(2.9678 2.4427 1.7832 -4.0653 2627.5364 4344.2383)">
					<stop  offset="0" style="stop-color:#FF5C34"/>
					<stop  offset="1" style="stop-color:#EB0256"/>
				</linearGradient>
				
					<path id="path-16" inkscape:connector-curvature="0" style="fill-rule:evenodd;clip-rule:evenodd;fill:url(#path-16_00000004529218209703266080000004940681794757398949_);" d="
					M19.3,112.4l0.8-0.3c25.9-10.3,55.4,2,65.9,27.6s-2,54.7-28,65.1c-0.2-4.1-0.9-8-2.1-11.8c13.9-7.5,23.3-22.1,23.3-38.9
					c0-24.5-20.1-44.3-44.8-44.3C29.1,109.8,24,110.7,19.3,112.4z"/>
			</g>
			<g id="use99">
				<path id="path-16_00000045577588944108804050000003225937843616362635_" inkscape:connector-curvature="0" class="st20" d="
					M19.3,112.4l0.8-0.3c25.9-10.3,55.4,2,65.9,27.6s-2,54.7-28,65.1c-0.2-4.1-0.9-8-2.1-11.8c13.9-7.5,23.3-22.1,23.3-38.9
					c0-24.5-20.1-44.3-44.8-44.3C29.1,109.8,24,110.7,19.3,112.4z"/>
			</g>
		</g>
	</g>
	<g id="Path-6-Copy-2">
		<g id="use103">
			<path id="path-17" inkscape:connector-curvature="0" d="M154.9,183.6h18.4c17.3,0,31.4-13.6,31.4-30.4s-14.1-30.4-31.4-30.4
				h-26.6c-10,0-18.1,7.9-18.1,17.6v68.4L154.9,183.6z"/>
		</g>
		<g id="use105">
			<path id="path-17_00000173880314673860124020000000006783466366779797_" inkscape:connector-curvature="0" class="st21" d="
				M154.9,183.6h18.4c17.3,0,31.4-13.6,31.4-30.4s-14.1-30.4-31.4-30.4h-26.6c-10,0-18.1,7.9-18.1,17.6v68.4L154.9,183.6z"/>
		</g>
	</g>
</g>
<g id="use63_00000001644720714145895840000003742856701527207324_">
	
		<rect id="path-1_00000065786253271032085060000009659173962027377289_" x="49" y="49.3" class="st22" width="202.6" height="201.7"/>
</g>
<path id="rect968" class="st23" d="M15.3,0.8h269.9c7.7,0,14,6.3,14,14v269.9c0,7.7-6.3,14-14,14H15.3c-7.7,0-14-6.3-14-14V14.8
	C1.3,7,7.5,0.8,15.3,0.8z"/>
<rect id="rect968-3" x="50.1" y="49.8" class="st23" width="200" height="200"/>
<path id="rect906" inkscape:connector-curvature="0" sodipodi:nodetypes="ccc" class="st23" d="M49,298.7v-48.1H1.3"/>
<path id="text912" d="M13.4,267.5c-1.3,0-2.3,0.5-3,1.6c-0.7,1.1-1.1,2.5-1.1,4.5c0,1.9,0.4,3.4,1.1,4.5c0.7,1.1,1.7,1.6,3,1.6
	s2.3-0.5,3-1.6c0.7-1.1,1.1-2.5,1.1-4.5c0-1.9-0.4-3.4-1.1-4.5C15.7,268.1,14.7,267.5,13.4,267.5z M27.9,267.5
	c-0.7,0-1.3,0.1-1.9,0.4c-0.5,0.3-1,0.7-1.3,1.2s-0.5,1.1-0.5,1.8h1.4c0-0.7,0.2-1.2,0.6-1.6c0.4-0.4,0.9-0.6,1.6-0.6
	c0.6,0,1.2,0.2,1.6,0.5c0.4,0.4,0.7,0.9,0.7,1.5c0,0.4-0.1,0.7-0.2,1c-0.1,0.3-0.4,0.7-0.7,1c-0.3,0.4-0.7,0.8-1.1,1.3l-3.9,4.3v1
	h7.4v-1.3h-5.5v-0.1l2.6-2.8c0.7-0.7,1.2-1.3,1.6-1.8c0.4-0.5,0.7-1,0.8-1.4c0.2-0.4,0.2-0.8,0.2-1.3c0-0.6-0.1-1.2-0.5-1.7
	s-0.7-0.9-1.3-1.2S28.5,267.5,27.9,267.5z M149.8,267.5c-1.3,0-2.3,0.5-3,1.6c-0.7,1.1-1.1,2.5-1.1,4.5c0,1.9,0.4,3.4,1.1,4.5
	c0.7,1.1,1.7,1.6,3,1.6c1.3,0,2.3-0.5,3-1.6c0.7-1.1,1.1-2.5,1.1-4.5c0-1.9-0.4-3.4-1.1-4.5C152.1,268.1,151.1,267.5,149.8,267.5z
	 M160,267.5c-1.3,0-2.3,0.5-3,1.6c-0.7,1.1-1.1,2.5-1.1,4.5c0,1.9,0.4,3.4,1.1,4.5c0.7,1.1,1.7,1.6,3,1.6c1.3,0,2.3-0.5,3-1.6
	c0.7-1.1,1.1-2.5,1.1-4.5c0-1.9-0.4-3.4-1.1-4.5C162.3,268.1,161.3,267.5,160,267.5z M34.9,267.7l-0.7,5.8l1.3,0.2
	c0.2-0.2,0.6-0.3,0.9-0.4c0.4-0.1,0.8-0.2,1.1-0.2c0.5,0,0.9,0.1,1.3,0.4s0.7,0.6,0.9,1c0.2,0.4,0.3,0.9,0.3,1.4
	c0,0.5-0.1,1-0.3,1.4c-0.2,0.4-0.5,0.7-0.9,0.9c-0.4,0.2-0.8,0.3-1.3,0.3c-0.6,0-1.1-0.2-1.6-0.5c-0.4-0.3-0.7-0.8-0.7-1.3H34
	c0,0.6,0.2,1.1,0.5,1.6s0.8,0.8,1.3,1.1s1.1,0.4,1.8,0.4c0.7,0,1.4-0.2,2-0.5c0.6-0.3,1-0.8,1.4-1.4c0.3-0.6,0.5-1.3,0.5-2
	c0-0.8-0.2-1.4-0.5-2c-0.3-0.6-0.8-1.1-1.3-1.4c-0.6-0.3-1.2-0.5-1.9-0.5c-0.4,0-0.8,0.1-1.1,0.2s-0.7,0.3-0.9,0.5h-0.1l0.4-3.5H41
	v-1.3H34.9z M137.5,267.7c0,0-0.1,0.1-0.2,0.3c-0.1,0.2-0.3,0.4-0.5,0.6c-0.2,0.2-0.5,0.4-0.8,0.6s-0.7,0.2-1.2,0.2v1.2
	c0.5,0,0.9-0.1,1.2-0.2c0.4-0.1,0.6-0.2,0.9-0.4c0.2-0.1,0.4-0.3,0.4-0.4h0.1v9.7h1.4v-11.8H137.5z M13.4,268.8c0.9,0,1.5,0.4,2,1.3
	c0.5,0.8,0.7,2,0.7,3.6c0,1.5-0.2,2.7-0.7,3.5s-1.1,1.2-2,1.2c-0.9,0-1.5-0.4-2-1.2c-0.5-0.8-0.7-2-0.7-3.5c0-1.5,0.2-2.7,0.7-3.6
	C11.9,269.2,12.6,268.8,13.4,268.8z M149.8,268.8c0.9,0,1.5,0.4,2,1.3c0.5,0.8,0.7,2,0.7,3.6c0,1.5-0.2,2.7-0.7,3.5s-1.1,1.2-2,1.2
	c-0.9,0-1.5-0.4-2-1.2c-0.5-0.8-0.7-2-0.7-3.5c0-1.5,0.2-2.7,0.7-3.6C148.3,269.2,149,268.8,149.8,268.8z M160,268.8
	c0.9,0,1.5,0.4,2,1.3c0.5,0.8,0.7,2,0.7,3.6c0,1.5-0.2,2.7-0.7,3.5s-1.1,1.2-2,1.2c-0.9,0-1.5-0.4-2-1.2c-0.5-0.8-0.7-2-0.7-3.5
	c0-1.5,0.2-2.7,0.7-3.6C158.4,269.2,159.1,268.8,160,268.8z M20.7,277.5c-0.3,0-0.5,0.1-0.7,0.3s-0.3,0.4-0.3,0.7s0.1,0.5,0.3,0.7
	s0.4,0.3,0.7,0.3s0.5-0.1,0.7-0.3s0.3-0.4,0.3-0.7s-0.1-0.5-0.3-0.7S21,277.5,20.7,277.5z M143.2,277.5c-0.3,0-0.5,0.1-0.7,0.3
	c-0.2,0.2-0.3,0.4-0.3,0.7s0.1,0.5,0.3,0.7c0.2,0.2,0.4,0.3,0.7,0.3s0.5-0.1,0.7-0.3s0.3-0.4,0.3-0.7s-0.1-0.5-0.3-0.7
	S143.5,277.5,143.2,277.5z"/>
<g>
	<rect x="50.1" y="49.8" class="st24" width="200" height="200"/>
	<g>
		<g>
			<circle class="st25" cx="214.6" cy="75.5" r="5.1"/>
			<circle class="st25" cx="200.7" cy="75.5" r="5.1"/>
			<circle class="st25" cx="186.7" cy="75.7" r="5.1"/>
			<circle class="st25" cx="172.7" cy="75.5" r="5.1"/>
			<circle class="st25" cx="158.6" cy="75.7" r="5.1"/>
		</g>
		<g>
			<circle class="st25" cx="200.7" cy="89.9" r="5.1"/>
			<circle class="st25" cx="186.8" cy="89.9" r="5.1"/>
			<circle class="st25" cx="172.7" cy="90.1" r="5.1"/>
			<circle class="st25" cx="158.7" cy="89.9" r="5.1"/>
			<circle class="st25" cx="144.7" cy="90.1" r="5.1"/>
		</g>
		<g>
			<circle class="st25" cx="186.7" cy="104.2" r="5.1"/>
			<circle class="st25" cx="172.8" cy="104.2" r="5.1"/>
			<circle class="st25" cx="158.8" cy="104.5" r="5.1"/>
			<circle class="st25" cx="144.8" cy="104.2" r="5.1"/>
			<circle class="st25" cx="130.7" cy="104.5" r="5.1"/>
		</g>
		<g>
			<circle class="st25" cx="172.8" cy="118.6" r="5.1"/>
			<circle class="st25" cx="158.9" cy="118.6" r="5.1"/>
			<circle class="st25" cx="144.8" cy="118.8" r="5.1"/>
			<circle class="st25" cx="130.8" cy="118.6" r="5.1"/>
			<circle class="st25" cx="116.8" cy="118.8" r="5.1"/>
		</g>
		<circle class="st25" cx="158.8" cy="133" r="5.1"/>
		<circle class="st25" cx="144.9" cy="133" r="5.1"/>
		<circle class="st25" cx="130.9" cy="133.2" r="5.1"/>
		<circle class="st25" cx="102.8" cy="133.2" r="5.1"/>
		<circle class="st25" cx="144.9" cy="147.4" r="5.1"/>
		<circle class="st25" cx="116.9" cy="147.6" r="5.1"/>
		<circle class="st25" cx="102.9" cy="147.4" r="5.1"/>
		<circle class="st25" cx="88.9" cy="147.6" r="5.1"/>
		<path class="st25" d="M109.1,118l-24.6,23.2c0,0-10,13.1,1.6,24.7l63.2,63.2h58.9c0,0,2.3-4.8,0-7.1l-97.6-97.6
			C110.5,124.4,107.1,119.9,109.1,118z"/>
	</g>
</g>
</svg>
