<?xml version="1.0" encoding="utf-8"?>
<!-- Generator: Adobe Illustrator 25.4.1, SVG Export Plug-In . SVG Version: 6.00 Build 0)  -->
<svg version="1.1"
	 id="svg114" xmlns:cc="http://creativecommons.org/ns#" xmlns:dc="http://purl.org/dc/elements/1.1/" xmlns:inkscape="http://www.inkscape.org/namespaces/inkscape" xmlns:rdf="http://www.w3.org/1999/02/22-rdf-syntax-ns#" xmlns:sodipodi="http://sodipodi.sourceforge.net/DTD/sodipodi-0.dtd" xmlns:svg="http://www.w3.org/2000/svg"
	 xmlns="http://www.w3.org/2000/svg" xmlns:xlink="http://www.w3.org/1999/xlink" x="0px" y="0px" viewBox="0 0 200 200"
	 style="enable-background:new 0 0 200 200;" xml:space="preserve">
<style type="text/css">
	.st0{fill-rule:evenodd;clip-rule:evenodd;fill:url(#Combined-Shape_00000111156222861518343470000007542103382172097462_);}
	.st1{fill-rule:evenodd;clip-rule:evenodd;fill:url(#Combined-Shape-Copy-6_00000142895477166651646080000007275036830100936072_);}
	.st2{fill-rule:evenodd;clip-rule:evenodd;fill:url(#Combined-Shape-Copy-5_00000035518650810311097270000010997800981266379199_);}
	.st3{fill-rule:evenodd;clip-rule:evenodd;fill:url(#Combined-Shape-Copy-4_00000169523586447972800430000013622089672802614461_);}
	.st4{fill-rule:evenodd;clip-rule:evenodd;fill:url(#path-8_00000011709372604182809240000006146119158118414256_);}
	
		.st5{fill-rule:evenodd;clip-rule:evenodd;fill:url(#path-8_00000038407135197721280660000001809631288610447025_);fill-opacity:0.1;}
	.st6{opacity:0.5049;}
	.st7{fill-rule:evenodd;clip-rule:evenodd;fill:url(#path-9_00000132052206305514459000000000643365704772002209_);}
	.st8{fill-rule:evenodd;clip-rule:evenodd;fill-opacity:0.4962;}
	.st9{opacity:0.5443;}
	.st10{fill-rule:evenodd;clip-rule:evenodd;fill:url(#path-11_00000165233561279457633270000015289829701022723247_);}
	.st11{fill-rule:evenodd;clip-rule:evenodd;fill-opacity:0.4999;}
	.st12{opacity:0.5622;}
	.st13{fill-rule:evenodd;clip-rule:evenodd;fill:url(#path-13_00000008845659146897825730000011749345855841308074_);}
	.st14{fill-rule:evenodd;clip-rule:evenodd;}
	.st15{opacity:0.5842;}
	.st16{fill-rule:evenodd;clip-rule:evenodd;fill:url(#path-15_00000014599749897474305750000010248012614930503560_);}
	.st17{fill-rule:evenodd;clip-rule:evenodd;fill-opacity:0.5031;}
	.st18{opacity:0.1801;}
	.st19{fill-rule:evenodd;clip-rule:evenodd;fill:url(#path-16_00000180361917185596688430000007646959771615381935_);}
	.st20{fill-rule:evenodd;clip-rule:evenodd;fill-opacity:0.7728;}
	.st21{fill:#FFFFFF;}
	.st22{fill-rule:evenodd;clip-rule:evenodd;fill:#FFFFFF;}
	.st23{fill:none;stroke:#C0BFBC;stroke-dasharray:2,1;}
	.st24{fill:#F05639;}
	.st25{fill:#F3F3F3;}
</style>
<sodipodi:namedview  bordercolor="#666666" borderopacity="1" gridtolerance="10" guidetolerance="10" id="namedview84" inkscape:current-layer="svg114" inkscape:cx="177.05496" inkscape:cy="82.980987" inkscape:guide-bbox="true" inkscape:pageopacity="0" inkscape:pageshadow="2" inkscape:window-height="1016" inkscape:window-maximized="1" inkscape:window-width="1920" inkscape:window-x="0" inkscape:window-y="27" inkscape:zoom="2.2389646" objecttolerance="10" pagecolor="#ffffff" showgrid="false" showguides="true">
	</sodipodi:namedview>
<desc  id="desc4">Created with Sketch.</desc>
<g id="Rectangle">
</g>
<g>
	<g id="g108" transform="translate(-12.598536,-12.100617)">
		<g id="Group-5" transform="rotate(40,14.707207,46.948765)">
			
				<linearGradient id="Combined-Shape_00000170249705285714846910000011146388101867185064_" gradientUnits="userSpaceOnUse" x1="275.9863" y1="1162.5244" x2="266.6896" y2="1162.1237" gradientTransform="matrix(2.5937 -3.1174 -2.1764 -3.7152 1945.8131 5220.0811)">
				<stop  offset="0" style="stop-color:#FF5C34"/>
				<stop  offset="1" style="stop-color:#EB0256"/>
			</linearGradient>
			
				<path id="Combined-Shape" inkscape:connector-curvature="0" style="fill-rule:evenodd;clip-rule:evenodd;fill:url(#Combined-Shape_00000170249705285714846910000011146388101867185064_);" d="
				M131.6,33.6c-8.4-2.1-17,3-19.1,11.3c-2.1,8.3,3,16.8,11.5,18.9l0.6,0.2c-13.5-3-23.6-14.5-24.5-28.5l0-0.2
				c-0.5-8.6,6.2-15.9,14.9-16.4S131.2,25,131.6,33.6z"/>
			
				<linearGradient id="Combined-Shape-Copy-6_00000114770467581350017970000000963147372210564765_" gradientUnits="userSpaceOnUse" x1="165.1586" y1="1220.3309" x2="168.5696" y2="1228.3773" gradientTransform="matrix(3.7814 -2.1383 -3.173 -2.5483 3372.2717 3526.8193)">
				<stop  offset="0" style="stop-color:#A63FDB"/>
				<stop  offset="1" style="stop-color:#FF257E"/>
			</linearGradient>
			
				<path id="Combined-Shape-Copy-6" inkscape:connector-curvature="0" style="fill-rule:evenodd;clip-rule:evenodd;fill:url(#Combined-Shape-Copy-6_00000114770467581350017970000000963147372210564765_);" d="
				M131.6,33.6c-4.5,7.4-2.1,16.9,5.4,21.4c7.5,4.4,17.1,2,21.6-5.3l0.3-0.5c-5.4,9.3-15.6,15.6-27.3,15.6c-2.4,0-4.7-0.3-7-0.8
				l-0.6-0.2c-8.4-2.1-13.6-10.5-11.5-18.9C114.6,36.6,123.2,31.6,131.6,33.6z"/>
			
				<linearGradient id="Combined-Shape-Copy-5_00000161627636991685272350000013748215056548030852_" gradientUnits="userSpaceOnUse" x1="262.1845" y1="1173.8436" x2="269.736" y2="1172.1809" gradientTransform="matrix(2.7274 -2.9646 -2.2886 -3.533 2106.3997 4955.792)">
				<stop  offset="0" style="stop-color:#00FFF0"/>
				<stop  offset="1" style="stop-color:#0087FF"/>
			</linearGradient>
			
				<path id="Combined-Shape-Copy-5" inkscape:connector-curvature="0" style="fill-rule:evenodd;clip-rule:evenodd;fill:url(#Combined-Shape-Copy-5_00000161627636991685272350000013748215056548030852_);" d="
				M131.6,33.6c5.6,6.6,15.5,7.4,22.2,1.9c6.7-5.5,7.5-15.3,1.9-21.9l-0.1-0.2c4.7,5.4,7.5,12.5,7.5,20.2c0,5.7-1.5,11-4.2,15.5
				l-0.3,0.5c-4.5,7.4-14.2,9.8-21.6,5.3C129.6,50.6,127.2,41,131.6,33.6z"/>
			
				<linearGradient id="Combined-Shape-Copy-4_00000126325766252129224850000016795681787208997040_" gradientUnits="userSpaceOnUse" x1="218.598" y1="1207.9957" x2="212.864" y2="1201.8755" gradientTransform="matrix(3.2532 -2.4854 -2.7298 -2.962 2737.8674 4127.2192)">
				<stop  offset="0" style="stop-color:#17C934"/>
				<stop  offset="1" style="stop-color:#03FF6E"/>
			</linearGradient>
			
				<path id="Combined-Shape-Copy-4" inkscape:connector-curvature="0" style="fill-rule:evenodd;clip-rule:evenodd;fill:url(#Combined-Shape-Copy-4_00000126325766252129224850000016795681787208997040_);" d="
				M131.6,33.6c8.1-3.2,12-12.3,8.7-20.3c-3.3-8-12.4-11.8-20.5-8.6L119.2,5c3.8-1.6,8-2.5,12.5-2.5c9.6,0,18.2,4.3,24,11l0.1,0.2
				c5.6,6.6,4.7,16.4-1.9,21.9C147.2,41.1,137.2,40.2,131.6,33.6z"/>
			<g id="Combined-Shape-Copy-3">
				<g id="use71">
					
						<linearGradient id="path-8_00000161632752322200690180000007252742087139364786_" gradientUnits="userSpaceOnUse" x1="186.3427" y1="1217.703" x2="184.5999" y2="1227.7357" gradientTransform="matrix(3.5366 -2.2863 -2.9676 -2.7247 3078.2402 3782.7917)">
						<stop  offset="0" style="stop-color:#FFB000"/>
						<stop  offset="1" style="stop-color:#FF7725"/>
					</linearGradient>
					
						<path id="path-8" inkscape:connector-curvature="0" style="fill-rule:evenodd;clip-rule:evenodd;fill:url(#path-8_00000161632752322200690180000007252742087139364786_);" d="
						M131.6,33.6c-0.5-8.6-7.9-15.2-16.6-14.7s-15.4,7.8-14.9,16.4l0,0.2c0-0.6-0.1-1.2-0.1-1.9c0-12.8,7.8-23.8,19.1-28.6l0.7-0.3
						c8.1-3.2,17.3,0.6,20.5,8.6C143.6,21.3,139.7,30.4,131.6,33.6z"/>
				</g>
				<g id="use73">
					
						<linearGradient id="path-8_00000162341827772051083670000009270333513461812148_" gradientUnits="userSpaceOnUse" x1="186.3427" y1="1217.703" x2="184.5999" y2="1227.7357" gradientTransform="matrix(3.5366 -2.2863 -2.9676 -2.7247 3078.2402 3782.7917)">
						<stop  offset="0" style="stop-color:#FFB000"/>
						<stop  offset="1" style="stop-color:#FF7725"/>
					</linearGradient>
					
						<path id="path-8_00000024697530980511891170000013577268006353882034_" inkscape:connector-curvature="0" style="fill-rule:evenodd;clip-rule:evenodd;fill:url(#path-8_00000162341827772051083670000009270333513461812148_);fill-opacity:0.1;" d="
						M131.6,33.6c-0.5-8.6-7.9-15.2-16.6-14.7s-15.4,7.8-14.9,16.4l0,0.2c0-0.6-0.1-1.2-0.1-1.9c0-12.8,7.8-23.8,19.1-28.6l0.7-0.3
						c8.1-3.2,17.3,0.6,20.5,8.6C143.6,21.3,139.7,30.4,131.6,33.6z"/>
				</g>
			</g>
			<g id="g80" class="st6">
				<g id="use76">
					
						<linearGradient id="path-9_00000119815445475578494800000005556492099329797267_" gradientUnits="userSpaceOnUse" x1="269.9103" y1="1167.5128" x2="268.6803" y2="1174.5942" gradientTransform="matrix(2.6523 -3.0485 -2.2255 -3.6331 2016.183 5100.9883)">
						<stop  offset="0" style="stop-color:#FFB000"/>
						<stop  offset="1" style="stop-color:#FF7725"/>
					</linearGradient>
					
						<path id="path-9" inkscape:connector-curvature="0" style="fill-rule:evenodd;clip-rule:evenodd;fill:url(#path-9_00000119815445475578494800000005556492099329797267_);" d="
						M119.6,4.9l0.2-0.1c8.1-3.2,17.3,0.6,20.5,8.6c3.3,8-0.6,17-8.7,20.3c-0.1-1.3-0.3-2.5-0.6-3.7c4.3-2.3,7.3-6.9,7.3-12.1
						c0-7.6-6.3-13.8-14-13.8C122.7,4.1,121.1,4.3,119.6,4.9z"/>
				</g>
				<g id="use78">
					<path id="path-9_00000041279033419933900070000016865105576933992321_" inkscape:connector-curvature="0" class="st8" d="
						M119.6,4.9l0.2-0.1c8.1-3.2,17.3,0.6,20.5,8.6c3.3,8-0.6,17-8.7,20.3c-0.1-1.3-0.3-2.5-0.6-3.7c4.3-2.3,7.3-6.9,7.3-12.1
						c0-7.6-6.3-13.8-14-13.8C122.7,4.1,121.1,4.3,119.6,4.9z"/>
				</g>
			</g>
			<g id="Combined-Shape-Copy-7" transform="rotate(72,37.055527,20.178799)" class="st9">
				<g id="use82">
					
						<linearGradient id="path-11_00000125563977752250437170000014205361666181308815_" gradientUnits="userSpaceOnUse" x1="1511.5049" y1="248.677" x2="1524.3361" y2="249.4638" gradientTransform="matrix(-1.297 -4.3973 -3.2102 1.7766 2808.2549 6121.7241)">
						<stop  offset="0" style="stop-color:#9EE85D"/>
						<stop  offset="1" style="stop-color:#0ED061"/>
					</linearGradient>
					
						<path id="path-11" inkscape:connector-curvature="0" style="fill-rule:evenodd;clip-rule:evenodd;fill:url(#path-11_00000125563977752250437170000014205361666181308815_);" d="
						M67.1-94.6l0.2-0.1c8.1-3.2,17.3,0.6,20.5,8.6c3.3,8-0.6,17-8.7,20.3c-0.1-1.3-0.3-2.5-0.6-3.7c4.3-2.3,7.3-6.9,7.3-12.1
						c0-7.6-6.3-13.8-14-13.8C70.2-95.4,68.6-95.1,67.1-94.6L67.1-94.6z"/>
				</g>
				<g id="use84">
					<path id="path-11_00000096035700788886535640000000221478770473265337_" inkscape:connector-curvature="0" class="st11" d="
						M67.1-94.6l0.2-0.1c8.1-3.2,17.3,0.6,20.5,8.6c3.3,8-0.6,17-8.7,20.3c-0.1-1.3-0.3-2.5-0.6-3.7c4.3-2.3,7.3-6.9,7.3-12.1
						c0-7.6-6.3-13.8-14-13.8C70.2-95.4,68.6-95.1,67.1-94.6L67.1-94.6z"/>
				</g>
			</g>
			<g id="Combined-Shape-Copy-8" transform="rotate(143,33.811317,33.641001)" class="st12">
				<g id="use87">
					
						<linearGradient id="path-13_00000023244852747581100430000015905311669989464504_" gradientUnits="userSpaceOnUse" x1="1109.5375" y1="-1218.6309" x2="1106.6578" y2="-1226.2781" gradientTransform="matrix(-3.4576 0.2482 0.1812 4.7362 4018.1689 5472.1157)">
						<stop  offset="0" style="stop-color:#21EFE3"/>
						<stop  offset="1" style="stop-color:#2598FF"/>
					</linearGradient>
					
						<path id="path-13" inkscape:connector-curvature="0" style="fill-rule:evenodd;clip-rule:evenodd;fill:url(#path-13_00000023244852747581100430000015905311669989464504_);" d="
						M-56.5-54.1l0.2-0.1c8.1-3.2,17.3,0.6,20.5,8.6c3.3,8-0.6,17-8.7,20.3c-0.1-1.3-0.3-2.5-0.6-3.7c4.3-2.3,7.3-6.9,7.3-12.1
						c0-7.6-6.3-13.8-14-13.8C-53.4-54.9-55-54.6-56.5-54.1z"/>
				</g>
				<g id="use89">
					<path id="path-13_00000110467171465195601290000014345966944787894148_" inkscape:connector-curvature="0" class="st14" d="
						M-56.5-54.1l0.2-0.1c8.1-3.2,17.3,0.6,20.5,8.6c3.3,8-0.6,17-8.7,20.3c-0.1-1.3-0.3-2.5-0.6-3.7c4.3-2.3,7.3-6.9,7.3-12.1
						c0-7.6-6.3-13.8-14-13.8C-53.4-54.9-55-54.6-56.5-54.1z"/>
				</g>
			</g>
			<g id="Combined-Shape-Copy-9" transform="rotate(-143,19.330169,34.673473)" class="st15">
				<g id="use92">
					
						<linearGradient id="path-15_00000002365453392215156180000009389341338715347842_" gradientUnits="userSpaceOnUse" x1="-594.1512" y1="-1318.2349" x2="-606.1514" y2="-1317.2155" gradientTransform="matrix(-0.7788 4.6211 3.3736 1.0669 3924.3801 4238.5449)">
						<stop  offset="0" style="stop-color:#A63FDB"/>
						<stop  offset="1" style="stop-color:#FF257E"/>
					</linearGradient>
					
						<path id="path-15" inkscape:connector-curvature="0" style="fill-rule:evenodd;clip-rule:evenodd;fill:url(#path-15_00000002365453392215156180000009389341338715347842_);" d="
						M-81.7,74.3l0.2-0.1c8.1-3.2,17.3,0.6,20.5,8.6c3.3,8-0.6,17-8.7,20.3c-0.1-1.3-0.3-2.5-0.6-3.7C-66,97-63,92.5-63,87.3
						c0-7.6-6.3-13.8-14-13.8C-78.7,73.5-80.2,73.7-81.7,74.3L-81.7,74.3z"/>
				</g>
				<g id="use94">
					<path id="path-15_00000151506519614183293210000002543953263582066344_" inkscape:connector-curvature="0" class="st17" d="
						M-81.7,74.3l0.2-0.1c8.1-3.2,17.3,0.6,20.5,8.6c3.3,8-0.6,17-8.7,20.3c-0.1-1.3-0.3-2.5-0.6-3.7C-66,97-63,92.5-63,87.3
						c0-7.6-6.3-13.8-14-13.8C-78.7,73.5-80.2,73.7-81.7,74.3L-81.7,74.3z"/>
				</g>
			</g>
			<g id="Combined-Shape-Copy-10" transform="rotate(-71,14.22193,21.605855)" class="st18">
				<g id="use97">
					
						<linearGradient id="path-16_00000009565424494951156560000000832357710556915644_" gradientUnits="userSpaceOnUse" x1="-1102.0104" y1="301.5889" x2="-1108.338" y2="301.3162" gradientTransform="matrix(2.9678 2.4427 1.7832 -4.0653 2783.5459 4038.4937)">
						<stop  offset="0" style="stop-color:#FF5C34"/>
						<stop  offset="1" style="stop-color:#EB0256"/>
					</linearGradient>
					
						<path id="path-16" inkscape:connector-curvature="0" style="fill-rule:evenodd;clip-rule:evenodd;fill:url(#path-16_00000009565424494951156560000000832357710556915644_);" d="
						M29,107.6l0.2-0.1c8.1-3.2,17.3,0.6,20.5,8.6s-0.6,17-8.7,20.3c-0.1-1.3-0.3-2.5-0.6-3.7c4.3-2.3,7.3-6.9,7.3-12.1
						c0-7.6-6.3-13.8-14-13.8C32,106.8,30.5,107.1,29,107.6z"/>
				</g>
				<g id="use99">
					<path id="path-16_00000045577588944108804050000003225937843616362635_" inkscape:connector-curvature="0" class="st20" d="
						M29,107.6l0.2-0.1c8.1-3.2,17.3,0.6,20.5,8.6s-0.6,17-8.7,20.3c-0.1-1.3-0.3-2.5-0.6-3.7c4.3-2.3,7.3-6.9,7.3-12.1
						c0-7.6-6.3-13.8-14-13.8C32,106.8,30.5,107.1,29,107.6z"/>
				</g>
			</g>
		</g>
		<g id="Path-6-Copy-2">
			<g id="use103">
				<path id="path-17" inkscape:connector-curvature="0" d="M110.4,118.6h5.7c5.4,0,9.8-4.2,9.8-9.5s-4.4-9.5-9.8-9.5h-8.3
					c-3.1,0-5.6,2.5-5.6,5.5v21.3L110.4,118.6z"/>
			</g>
			<g id="use105">
				<path id="path-17_00000173880314673860124020000000006783466366779797_" inkscape:connector-curvature="0" class="st21" d="
					M110.4,118.6h5.7c5.4,0,9.8-4.2,9.8-9.5s-4.4-9.5-9.8-9.5h-8.3c-3.1,0-5.6,2.5-5.6,5.5v21.3L110.4,118.6z"/>
			</g>
		</g>
	</g>
	<g id="use63_00000001644720714145895840000003742856701527207324_">
		
			<rect id="path-1_00000065786253271032085060000009659173962027377289_" x="68.7" y="68.4" class="st22" width="63.1" height="62.8"/>
	</g>
	<path id="rect968" class="st23" d="M58.2,53.3h84.1c2.4,0,4.4,2,4.4,4.4v84.1c0,2.4-2,4.4-4.4,4.4H58.2c-2.4,0-4.4-2-4.4-4.4V57.7
		C53.8,55.3,55.8,53.3,58.2,53.3z"/>
	<rect id="rect968-3" x="69" y="68.6" class="st23" width="62.3" height="62.3"/>
	<path id="rect906" inkscape:connector-curvature="0" sodipodi:nodetypes="ccc" class="st23" d="M68.7,146.2v-15H53.8"/>
	<path id="text912" d="M57.6,136.4c-0.4,0-0.7,0.2-0.9,0.5c-0.2,0.3-0.3,0.8-0.3,1.4c0,0.6,0.1,1.1,0.3,1.4c0.2,0.3,0.5,0.5,0.9,0.5
		s0.7-0.2,0.9-0.5c0.2-0.3,0.3-0.8,0.3-1.4c0-0.6-0.1-1.1-0.3-1.4C58.3,136.6,58,136.4,57.6,136.4z M62.1,136.4
		c-0.2,0-0.4,0-0.6,0.1c-0.2,0.1-0.3,0.2-0.4,0.4c-0.1,0.2-0.1,0.4-0.1,0.6h0.4c0-0.2,0.1-0.4,0.2-0.5c0.1-0.1,0.3-0.2,0.5-0.2
		c0.2,0,0.4,0.1,0.5,0.2c0.1,0.1,0.2,0.3,0.2,0.5c0,0.1,0,0.2-0.1,0.3c0,0.1-0.1,0.2-0.2,0.3c-0.1,0.1-0.2,0.2-0.4,0.4l-1.2,1.3v0.3
		h2.3v-0.4h-1.7v0l0.8-0.9c0.2-0.2,0.4-0.4,0.5-0.6c0.1-0.2,0.2-0.3,0.3-0.4c0-0.1,0.1-0.3,0.1-0.4c0-0.2,0-0.4-0.1-0.5
		s-0.2-0.3-0.4-0.4C62.5,136.5,62.3,136.4,62.1,136.4z M100.1,136.4c-0.4,0-0.7,0.2-0.9,0.5c-0.2,0.3-0.3,0.8-0.3,1.4
		c0,0.6,0.1,1.1,0.3,1.4c0.2,0.3,0.5,0.5,0.9,0.5c0.4,0,0.7-0.2,0.9-0.5c0.2-0.3,0.3-0.8,0.3-1.4c0-0.6-0.1-1.1-0.3-1.4
		C100.8,136.6,100.5,136.4,100.1,136.4z M103.3,136.4c-0.4,0-0.7,0.2-0.9,0.5c-0.2,0.3-0.3,0.8-0.3,1.4c0,0.6,0.1,1.1,0.3,1.4
		c0.2,0.3,0.5,0.5,0.9,0.5c0.4,0,0.7-0.2,0.9-0.5c0.2-0.3,0.3-0.8,0.3-1.4c0-0.6-0.1-1.1-0.3-1.4C104,136.6,103.7,136.4,103.3,136.4
		z M64.3,136.5l-0.2,1.8l0.4,0.1c0.1-0.1,0.2-0.1,0.3-0.1c0.1,0,0.2-0.1,0.3-0.1c0.2,0,0.3,0,0.4,0.1c0.1,0.1,0.2,0.2,0.3,0.3
		c0.1,0.1,0.1,0.3,0.1,0.4c0,0.2,0,0.3-0.1,0.4c-0.1,0.1-0.2,0.2-0.3,0.3c-0.1,0.1-0.3,0.1-0.4,0.1c-0.2,0-0.3-0.1-0.5-0.2
		c-0.1-0.1-0.2-0.2-0.2-0.4H64c0,0.2,0.1,0.4,0.2,0.5c0.1,0.1,0.2,0.3,0.4,0.3c0.2,0.1,0.4,0.1,0.6,0.1c0.2,0,0.4-0.1,0.6-0.2
		c0.2-0.1,0.3-0.3,0.4-0.4c0.1-0.2,0.2-0.4,0.2-0.6c0-0.2-0.1-0.4-0.2-0.6c-0.1-0.2-0.2-0.3-0.4-0.4c-0.2-0.1-0.4-0.2-0.6-0.2
		c-0.1,0-0.2,0-0.4,0.1c-0.1,0-0.2,0.1-0.3,0.1h0l0.1-1.1h1.5v-0.4H64.3z M96.3,136.5C96.3,136.5,96.3,136.5,96.3,136.5
		c-0.1,0.2-0.2,0.2-0.2,0.3c-0.1,0.1-0.2,0.1-0.3,0.2s-0.2,0.1-0.4,0.1v0.4c0.1,0,0.3,0,0.4,0c0.1,0,0.2-0.1,0.3-0.1
		c0.1,0,0.1-0.1,0.1-0.1h0v3h0.4v-3.7H96.3z M57.6,136.8c0.3,0,0.5,0.1,0.6,0.4c0.1,0.3,0.2,0.6,0.2,1.1c0,0.5-0.1,0.8-0.2,1.1
		c-0.1,0.3-0.4,0.4-0.6,0.4c-0.3,0-0.5-0.1-0.6-0.4c-0.1-0.3-0.2-0.6-0.2-1.1c0-0.5,0.1-0.8,0.2-1.1C57.1,137,57.4,136.8,57.6,136.8
		z M100.1,136.8c0.3,0,0.5,0.1,0.6,0.4c0.1,0.3,0.2,0.6,0.2,1.1c0,0.5-0.1,0.8-0.2,1.1c-0.1,0.3-0.4,0.4-0.6,0.4
		c-0.3,0-0.5-0.1-0.6-0.4c-0.1-0.3-0.2-0.6-0.2-1.1c0-0.5,0.1-0.8,0.2-1.1C99.6,137,99.9,136.8,100.1,136.8z M103.3,136.8
		c0.3,0,0.5,0.1,0.6,0.4c0.1,0.3,0.2,0.6,0.2,1.1c0,0.5-0.1,0.8-0.2,1.1c-0.1,0.3-0.4,0.4-0.6,0.4c-0.3,0-0.5-0.1-0.6-0.4
		c-0.1-0.3-0.2-0.6-0.2-1.1c0-0.5,0.1-0.8,0.2-1.1C102.8,137,103,136.8,103.3,136.8z M59.9,139.6c-0.1,0-0.2,0-0.2,0.1
		c-0.1,0.1-0.1,0.1-0.1,0.2c0,0.1,0,0.2,0.1,0.2c0.1,0.1,0.1,0.1,0.2,0.1s0.2,0,0.2-0.1c0.1-0.1,0.1-0.1,0.1-0.2
		c0-0.1,0-0.2-0.1-0.2C60.1,139.6,60,139.6,59.9,139.6z M98,139.6c-0.1,0-0.2,0-0.2,0.1c-0.1,0.1-0.1,0.1-0.1,0.2
		c0,0.1,0,0.2,0.1,0.2c0.1,0.1,0.1,0.1,0.2,0.1c0.1,0,0.2,0,0.2-0.1c0.1-0.1,0.1-0.1,0.1-0.2c0-0.1,0-0.2-0.1-0.2
		C98.2,139.6,98.1,139.6,98,139.6z"/>
	<g>
		<rect x="69" y="68.6" class="st24" width="62.3" height="62.3"/>
		<g>
			<g>
				<circle class="st25" cx="120.3" cy="76.6" r="1.6"/>
				<circle class="st25" cx="116" cy="76.6" r="1.6"/>
				<circle class="st25" cx="111.6" cy="76.7" r="1.6"/>
				<circle class="st25" cx="107.2" cy="76.6" r="1.6"/>
				<circle class="st25" cx="102.9" cy="76.7" r="1.6"/>
			</g>
			<g>
				<circle class="st25" cx="116" cy="81.1" r="1.6"/>
				<circle class="st25" cx="111.6" cy="81.1" r="1.6"/>
				<circle class="st25" cx="107.3" cy="81.2" r="1.6"/>
				<circle class="st25" cx="102.9" cy="81.1" r="1.6"/>
				<circle class="st25" cx="98.5" cy="81.2" r="1.6"/>
			</g>
			<g>
				<circle class="st25" cx="111.6" cy="85.6" r="1.6"/>
				<circle class="st25" cx="107.3" cy="85.6" r="1.6"/>
				<circle class="st25" cx="102.9" cy="85.6" r="1.6"/>
				<circle class="st25" cx="98.5" cy="85.6" r="1.6"/>
				<circle class="st25" cx="94.2" cy="85.6" r="1.6"/>
			</g>
			<g>
				<circle class="st25" cx="107.3" cy="90" r="1.6"/>
				<circle class="st25" cx="102.9" cy="90" r="1.6"/>
				<circle class="st25" cx="98.6" cy="90.1" r="1.6"/>
				<circle class="st25" cx="94.2" cy="90" r="1.6"/>
				<circle class="st25" cx="89.8" cy="90.1" r="1.6"/>
			</g>
			<circle class="st25" cx="102.9" cy="94.5" r="1.6"/>
			<circle class="st25" cx="98.6" cy="94.5" r="1.6"/>
			<circle class="st25" cx="94.2" cy="94.6" r="1.6"/>
			<circle class="st25" cx="85.5" cy="94.6" r="1.6"/>
			<circle class="st25" cx="98.6" cy="99" r="1.6"/>
			<circle class="st25" cx="89.9" cy="99.1" r="1.6"/>
			<circle class="st25" cx="85.5" cy="99" r="1.6"/>
			<circle class="st25" cx="81.1" cy="99.1" r="1.6"/>
			<path class="st25" d="M87.4,89.9l-7.7,7.2c0,0-3.1,4.1,0.5,7.7l19.7,19.7h18.4c0,0,0.7-1.5,0-2.2L87.9,91.9
				C87.9,91.9,86.8,90.4,87.4,89.9z"/>
		</g>
	</g>
</g>
</svg>
