<svg width="384" height="384" viewBox="0 0 384 384" fill="none" xmlns="http://www.w3.org/2000/svg">
<g clip-path="url(#clip0_850_479)">
<path d="M0.720551 92.6001C3.35055 76.9001 12.3005 66.2701 27.2505 61.3501C42.5805 56.3501 56.3606 59.9701 67.6606 71.4701C73.1294 77.0084 76.7821 84.0807 78.1326 91.746C79.4831 99.4114 78.4674 107.306 75.2206 114.38C74.2206 116.61 74.3205 117.63 76.5905 118.9C87.2572 124.853 97.8172 130.947 108.271 137.18C110.561 138.54 111.481 138.09 112.861 136.06C118.917 127.335 126.402 119.695 135.001 113.46C136.851 112.1 137.791 112.01 138.941 114.12C140.241 116.49 143.081 118.77 142.941 120.93C142.831 122.71 139.321 124.26 137.311 125.93C95.4105 160.63 96.4405 226.21 139.391 258.74C139.751 259.02 140.151 259.26 141.131 259.92C141.131 255.32 141.351 251.27 141.061 247.25C140.851 244.38 141.981 242.71 144.161 241.06C153.391 234.06 162.441 226.82 171.701 219.85C173.921 218.18 173.791 217.2 172.021 215.35C168.401 211.58 165.021 207.55 161.491 203.7C161.003 203.235 160.616 202.675 160.354 202.054C160.093 201.432 159.962 200.764 159.971 200.09C160.061 192.73 159.841 185.37 160.131 178.02C160.596 169.973 164.123 162.409 169.988 156.881C175.854 151.352 183.613 148.279 191.673 148.29C199.733 148.302 207.484 151.398 213.333 156.943C219.183 162.488 222.689 170.062 223.131 178.11C223.411 185.33 223.191 192.57 223.281 199.81C223.314 200.55 223.191 201.288 222.921 201.977C222.65 202.666 222.238 203.291 221.711 203.81C218.061 207.73 214.661 211.88 210.941 215.74C209.221 217.51 209.541 218.31 211.361 219.69C220.771 226.86 230.041 234.22 239.461 241.38C240.386 241.977 241.129 242.817 241.609 243.808C242.089 244.8 242.287 245.904 242.181 247C241.971 251.09 242.121 255.21 242.121 260C247.738 256.044 252.764 251.31 257.051 245.94C277.241 220.35 282.691 191.86 271.051 161.38C259.311 130.65 236.161 112.65 203.731 107.25C187.241 104.5 171.201 107.1 156.021 114.2C153.591 115.34 152.381 115.59 151.021 112.69C147.581 105.41 147.411 105.53 155.021 102.38C163.744 98.6848 173.006 96.4224 182.451 95.6801C184.981 95.4901 186.291 94.9101 186.061 91.9801C185.836 88.3669 185.836 84.7432 186.061 81.1301C186.171 78.8401 185.461 78.1301 183.061 77.5301C175.795 75.9192 169.138 72.2755 163.865 67.0242C158.592 61.7729 154.921 55.1305 153.28 47.8718C151.64 40.6132 152.097 33.0377 154.599 26.0291C157.1 19.0204 161.543 12.8677 167.41 8.28859C173.276 3.70951 180.323 0.892922 187.729 0.167416C195.136 -0.55809 202.595 0.837398 209.239 4.19108C215.882 7.54477 221.435 12.7184 225.249 19.1083C229.063 25.4982 230.981 32.841 230.781 40.2801C230.131 57.8501 218.711 72.6201 202.021 76.9801C198.561 77.8801 196.571 78.7601 197.121 82.9001C197.641 86.8101 196.011 91.7601 197.881 94.5301C199.751 97.3001 205.041 95.8401 208.791 96.5901C234.351 101.71 254.911 114.67 270.131 135.87C271.781 138.17 272.851 138.48 275.311 137C285.561 130.88 295.931 124.95 306.311 119.08C308.461 117.86 309.251 117.08 308.011 114.35C304.732 107.091 303.768 98.9977 305.252 91.1716C306.735 83.3455 310.593 76.1662 316.301 70.6101C322.015 64.9719 329.32 61.22 337.231 59.8594C345.143 58.4988 353.281 59.5949 360.551 63.0001C375.151 69.8301 384.461 85.4101 382.951 101.57C381.501 117.1 373.501 128.57 359.091 134.57C344.681 140.57 330.761 138.34 318.521 128.38C316.521 126.72 315.281 126.64 313.171 127.89C302.244 134.337 291.244 140.69 280.171 146.95C278.271 148.03 277.971 148.86 278.901 150.95C291.087 178.177 291.004 205.39 278.651 232.59C277.781 234.49 278.071 235.27 279.821 236.27C291.074 242.67 302.274 249.143 313.421 255.69C315.281 256.79 316.291 256.46 317.881 255.13C331.021 244.19 345.741 241.9 361.041 249.39C376.341 256.88 383.511 269.79 382.951 286.69C382.291 306.54 365.861 322.54 345.381 323.77C326.311 324.91 308.311 310.31 305.151 291.33C303.728 283.561 304.752 275.542 308.081 268.38C308.971 266.46 308.581 265.72 306.831 264.73C295.897 258.537 285.017 252.253 274.191 245.88C272.371 244.81 271.631 245.06 270.441 246.71C254.241 269.297 232.394 282.74 204.901 287.04C202.451 287.42 199.181 286.43 197.731 288.22C196.091 290.22 197.251 293.49 197.181 296.22C197.111 298.95 196.441 302.13 197.581 304.29C198.721 306.45 202.221 305.9 204.631 306.76C222.151 312.99 232.631 330.25 230.401 349.28C228.461 365.88 213.951 380.56 197.631 382.45C196.431 383.14 194.951 382.21 193.781 383.1H189.291C188.071 382.31 186.721 382.89 185.441 382.71C169.881 381.52 159.771 372.46 154.361 358.82C145.361 336.02 157.051 312.33 180.431 305.27C183.431 304.35 184.891 303.11 184.611 299.86C184.381 297.14 184.561 294.38 184.561 291.64C184.561 289.54 183.701 288.49 181.491 288.28C159.001 286.14 139.841 276.47 123.431 261.14C119.575 257.412 116.101 253.308 113.061 248.89C111.501 246.69 110.061 246.35 107.791 247.69C98.1105 253.36 88.4306 259.03 78.6606 264.53C76.2406 265.89 75.8906 267.35 76.8806 270C86.1006 294.65 70.4605 320.56 44.4505 324.39C25.9005 327.13 7.07055 314.66 1.45055 297.95C0.610546 295.45 0.720547 292.82 0.0605469 290.32V278.32C3.52055 259.78 15.1405 247.79 32.9305 244.82C38.365 243.852 43.9438 244.06 49.2911 245.43C54.6385 246.8 59.6303 249.299 63.9305 252.76C66.9305 255.09 69.2306 254.99 72.2706 253.12C81.7206 247.32 91.4406 241.95 101.071 236.44C103.551 235.03 103.871 233.71 102.671 231.07C96.5328 217.619 93.6483 202.913 94.2505 188.14C94.5751 175.629 97.4469 163.314 102.691 151.95C103.911 149.38 103.421 148.33 101.111 147.02C91.1505 141.34 81.2239 135.597 71.3306 129.79C68.5606 128.15 66.5705 128.41 63.9505 130.28C48.0705 141.6 30.8306 141.8 15.2606 130.62C11.0016 127.663 7.43825 123.812 4.81842 119.338C2.19859 114.863 0.58521 109.872 0.0905457 104.71V96.4701C1.00055 95.3001 0.0605505 93.8201 0.720551 92.6001Z" fill="#FD5435"/>
<path d="M0.719849 92.5999C0.922813 93.2512 0.97155 93.9408 0.862213 94.6142C0.752876 95.2875 0.488454 95.9263 0.0898438 96.4799V92.7399C0.119297 92.6864 0.159804 92.6398 0.208664 92.6032C0.257524 92.5666 0.313623 92.5408 0.373222 92.5276C0.432822 92.5143 0.494555 92.5139 0.554321 92.5264C0.614088 92.5389 0.670517 92.5639 0.719849 92.5999Z" fill="#FD5435"/>
<path d="M185.649 383.08C185.65 382.861 185.609 382.644 185.529 382.44C186.179 382.244 186.865 382.2 187.534 382.311C188.203 382.422 188.838 382.685 189.389 383.08H185.649Z" fill="#FD5435"/>
<path d="M193.881 383.08C194.431 382.685 195.063 382.422 195.731 382.309C196.398 382.196 197.082 382.238 197.731 382.43C197.65 382.637 197.613 382.858 197.621 383.08H193.881Z" fill="#FD5435"/>
<path d="M220.861 123.54C221.171 123.68 221.861 123.95 222.541 124.27C239.541 132.35 251.811 145.04 259.621 162.15C260.751 164.63 260.431 165.71 257.741 166.67C250.741 169.18 250.831 169.29 247.481 162.89C241.163 150.447 230.818 140.511 218.131 134.7C215.741 133.6 215.281 132.58 216.451 130.35C217.371 128.59 217.931 126.66 218.761 124.85C219.071 124.14 219.141 122.97 220.861 123.54Z" fill="#FD5435"/>
<path d="M349.501 180.67C349.501 188.13 349.401 195.6 349.561 203.05C349.611 205.38 348.981 205.93 346.691 205.92C338.281 205.92 338.281 206.01 338.281 197.45C338.281 184.27 338.361 171.09 338.211 157.9C338.211 155.29 338.861 154.61 341.471 154.66C349.471 154.79 349.471 154.66 349.471 162.76L349.501 180.67Z" fill="#FD5435"/>
<path d="M246.77 54.6099L248.77 55.3599C255.77 58.1099 262.84 60.9099 269.92 63.5699C271.98 64.3399 272.84 64.9899 271.84 67.4899C268.72 75.2999 268.84 75.3299 261.14 72.2899C255.49 70.0599 249.83 67.8499 244.14 65.6999C242.61 65.1299 241.9 64.4799 242.72 62.6999C243.72 60.5699 244.52 58.3499 245.37 56.1499C245.63 55.3999 245.76 54.4599 246.77 54.6099Z" fill="#FD5435"/>
<path d="M120.169 72.21C120.339 73.59 119.109 73.52 118.459 73.78C110.949 76.78 103.389 79.61 95.899 82.62C94.209 83.3 93.579 82.94 92.899 81.33C89.239 73.11 89.189 73.13 97.669 69.84C103.229 67.69 108.829 65.64 114.329 63.34C116.059 62.61 116.719 62.92 117.329 64.59C118.129 67.14 119.189 69.7 120.169 72.21Z" fill="#FD5435"/>
<path d="M292.65 309.04C293.05 310.73 291.93 310.83 291.23 311.11C283.62 314.11 276.14 317.55 268.32 319.85C263.69 321.2 265.46 315.57 263.68 313.52C262.97 312.7 261.15 310.67 264.3 309.52C271.99 306.73 279.58 303.67 287.17 300.62C288.69 300.01 289.3 300.14 289.83 301.79C290.65 304.39 291.79 306.88 292.65 309.04Z" fill="#FD5435"/>
<path d="M259.719 191.52C258.72 191.469 257.719 191.469 256.719 191.52C255.059 191.69 254.099 191.27 254.339 189.35C254.382 188.605 254.345 187.857 254.229 187.12C253.439 178.44 253.449 178.5 262.229 177.34C263.949 177.12 264.419 177.72 264.569 179.18C264.779 181.18 265.079 183.12 265.309 185.09C266.059 191.52 266.049 191.52 259.719 191.52Z" fill="#FD5435"/>
<path d="M136.58 54.6801C137.46 54.6301 137.58 55.2001 137.86 55.8101C138.86 58.3501 139.86 60.8701 140.81 63.4001C140.86 63.5201 140.95 63.6701 140.92 63.7501C139.39 67.3201 135.42 66.4401 132.86 68.1601C131.51 69.0601 130.86 68.6201 130.18 67.0801C126.32 58.5701 126.65 57.7301 135.64 55.0801C135.963 54.9719 136.278 54.8382 136.58 54.6801Z" fill="#FD5435"/>
<path d="M293.45 73.5299C292.23 76.5299 291.07 79.5299 289.81 82.5299C289.39 83.5299 288.57 82.97 287.91 82.71C285.72 81.85 283.52 81.02 281.36 80.1C280.5 79.73 278.74 79.87 279.64 78.1C281.12 75.1 280.85 70.3 284.05 69.49C286.58 68.85 289.95 71.4899 292.92 72.6799C293.17 72.7399 293.27 73.2099 293.45 73.5299Z" fill="#FD5435"/>
<path d="M349.51 223.03C349.51 228.31 349.51 228.31 342.51 228.31C338.32 228.31 338.32 228.31 338.32 221.31C338.32 217.09 338.32 217.09 345.32 217.09C349.51 217.08 349.51 217.08 349.51 223.03Z" fill="#FD5435"/>
<path d="M246.651 328.47C246.485 328.535 246.307 328.565 246.128 328.557C245.95 328.548 245.776 328.503 245.616 328.423C245.457 328.342 245.316 328.229 245.203 328.091C245.09 327.953 245.008 327.792 244.961 327.62C243.901 324.97 241.861 322.22 242.081 319.62C242.401 315.98 246.901 316.95 249.331 315.43C250.141 314.92 251.511 313.58 252.331 315.64C253.381 318.29 254.331 320.97 255.461 323.64C255.771 324.37 255.641 324.92 255.031 325.18C252.161 326.36 249.261 327.46 246.651 328.47Z" fill="#FD5435"/>
<path d="M230.909 258.14C230.909 267.7 230.909 267.8 221.859 271.14C199.529 279.39 177.509 278.55 155.769 268.82C153.279 267.7 152.099 266.45 152.289 263.58C152.609 258.75 151.119 253.22 153.009 249.22C154.829 245.39 160.009 243.1 163.669 240.22C169.549 235.61 175.529 231.11 181.349 226.42C183.201 225.012 185.444 224.215 187.769 224.14C195.509 223.37 201.879 225.34 207.769 230.8C213.659 236.26 220.309 241.06 226.909 245.73C230.159 248.04 231.589 250.56 230.989 254.42C230.868 255.656 230.842 256.9 230.909 258.14Z" fill="#FEFEFE"/>
<path d="M39.5195 126.53C33.9838 126.55 28.5665 124.928 23.9521 121.87C19.3378 118.812 15.7334 114.455 13.5945 109.349C11.4556 104.243 10.8781 98.618 11.9351 93.1841C12.992 87.7502 15.636 82.7516 19.5328 78.8198C23.4297 74.888 28.4045 72.1996 33.8288 71.0942C39.253 69.9888 44.8832 70.5161 50.0079 72.6093C55.1326 74.7026 59.5218 78.268 62.6209 82.8549C65.7199 87.4418 67.3898 92.8445 67.4195 98.3801C67.4393 102.061 66.7329 105.71 65.3409 109.118C63.9488 112.526 61.8984 115.626 59.307 118.241C56.7156 120.855 53.6341 122.933 50.2387 124.356C46.8433 125.778 43.2008 126.517 39.5195 126.53Z" fill="#FEFEFE"/>
<path d="M343.759 126.53C338.223 126.494 332.822 124.818 328.238 121.714C323.654 118.609 320.094 114.216 318.006 109.088C315.919 103.961 315.398 98.3296 316.51 92.9063C317.622 87.483 320.317 82.511 324.254 78.6188C328.191 74.7266 333.193 72.0888 338.629 71.0388C344.064 69.9888 349.689 70.5736 354.793 72.7195C359.896 74.8654 364.249 78.476 367.301 83.095C370.353 87.7139 371.967 93.1339 371.939 98.67C371.921 102.35 371.177 105.991 369.75 109.384C368.324 112.776 366.242 115.855 363.625 118.442C361.008 121.03 357.906 123.076 354.497 124.464C351.088 125.852 347.44 126.554 343.759 126.53Z" fill="#FEFEFE"/>
<path d="M39.5108 256.51C45.0477 256.548 50.4491 258.226 55.0321 261.333C59.6152 264.44 63.1742 268.836 65.2592 273.965C67.3443 279.095 67.8617 284.727 66.7461 290.151C65.6305 295.574 62.932 300.545 58.9917 304.435C55.0513 308.325 50.0462 310.96 44.6088 312.005C39.1715 313.051 33.5462 312.461 28.444 310.311C23.3419 308.16 18.9919 304.545 15.944 299.922C12.8962 295.299 11.2873 289.877 11.3208 284.34C11.3431 280.661 12.09 277.023 13.519 273.633C14.948 270.243 17.031 267.168 19.649 264.583C22.2669 261.999 25.3685 259.956 28.7765 258.57C32.1845 257.185 35.8321 256.485 39.5108 256.51Z" fill="#FEFEFE"/>
<path d="M371.939 284.39C371.973 289.941 370.359 295.376 367.302 300.009C364.244 304.642 359.881 308.264 354.765 310.416C349.648 312.568 344.008 313.153 338.559 312.098C333.109 311.044 328.095 308.395 324.151 304.489C320.208 300.583 317.511 295.595 316.404 290.156C315.296 284.717 315.828 279.072 317.93 273.934C320.033 268.797 323.612 264.4 328.215 261.298C332.819 258.196 338.239 256.53 343.789 256.51C347.469 256.49 351.116 257.196 354.523 258.587C357.929 259.977 361.029 262.026 363.643 264.615C366.257 267.205 368.336 270.284 369.759 273.677C371.183 277.07 371.924 280.71 371.939 284.39Z" fill="#FEFEFE"/>
<path d="M163.629 38.7001C163.747 33.1503 165.512 27.7608 168.7 23.2162C171.887 18.6716 176.354 15.177 181.532 13.1764C186.71 11.1758 192.366 10.7594 197.781 11.9802C203.196 13.2009 208.126 16.0037 211.945 20.0325C215.763 24.0613 218.299 29.1343 219.228 34.607C220.157 40.0797 219.439 45.7051 217.164 50.7687C214.889 55.8322 211.161 60.1054 206.452 63.0453C201.744 65.9852 196.268 67.4593 190.719 67.2801C183.351 67.0422 176.373 63.9076 171.301 58.5569C166.23 53.2061 163.473 46.0709 163.629 38.7001Z" fill="#FEFEFE"/>
<path d="M219.63 344.24C219.531 349.79 217.784 355.186 214.611 359.741C211.438 364.296 206.983 367.806 201.812 369.823C196.64 371.841 190.985 372.276 185.566 371.072C180.147 369.869 175.207 367.082 171.375 363.066C167.544 359.049 164.992 353.984 164.045 348.514C163.098 343.045 163.799 337.417 166.057 332.346C168.316 327.275 172.031 322.99 176.73 320.035C181.43 317.08 186.901 315.588 192.45 315.75C199.819 315.965 206.806 319.077 211.894 324.41C216.983 329.744 219.762 336.869 219.63 344.24Z" fill="#FEFEFE"/>
<path d="M211.999 188.19C213.819 194.65 210.099 199.84 205.449 205.58C200.339 211.91 194.739 213.98 187.189 213.04C185.589 212.84 184.319 212.57 183.369 211.24C183.135 210.949 182.885 210.672 182.619 210.41C170.149 196.66 170.149 196.66 171.339 178.08C171.733 172.961 174.045 168.178 177.812 164.69C181.579 161.201 186.525 159.263 191.659 159.263C196.794 159.263 201.739 161.201 205.506 164.69C209.274 168.178 211.585 172.961 211.979 178.08C212.109 181.04 211.999 184.04 211.999 188.19Z" fill="#FEFEFE"/>
<path d="M141.369 318.49C139.989 321.92 138.829 325.05 137.439 328.08C137.069 328.9 136.119 328.14 135.439 327.89L112.619 319C112.269 318.86 111.619 318.84 111.619 318.63C110.389 315.09 113.449 312.63 114.009 309.53C114.309 307.81 115.529 308.06 116.849 308.58C124.329 311.53 131.849 314.41 139.319 317.34C140.027 317.678 140.712 318.062 141.369 318.49Z" fill="#FD5435"/>
<path d="M104 304.38C102.73 307.53 101.56 310.38 100.44 313.28C100.11 314.11 99.6298 313.94 99.0098 313.69C96.3698 312.63 93.7398 311.55 91.0098 310.6C89.8898 310.21 89.6798 309.68 90.1598 308.69C90.3583 308.236 90.5318 307.772 90.6798 307.3C93.7898 299.02 94.7998 298.67 102.68 303.09C103.43 303.45 104.12 303.71 104 304.38Z" fill="#FD5435"/>
<path d="M44.9999 202.94C44.9999 210.53 44.9199 218.12 44.9999 225.7C44.9999 227.84 44.3899 228.34 42.3099 228.36C33.7299 228.45 33.7299 228.52 33.7299 220.08C33.7299 206.77 33.7999 193.46 33.6699 180.15C33.6699 177.68 34.3399 177.09 36.7399 177.15C44.9499 177.22 44.9499 177.15 44.9499 185.45L44.9999 202.94Z" fill="#FD5435"/>
<path d="M45.0005 160.14C45.0005 165.94 45.0005 165.94 38.0005 165.93C33.7305 165.93 33.7305 165.93 33.7305 158.93C33.7305 154.68 33.7305 155.04 41.0505 154.56C46.3105 154.25 44.8005 157.55 45.0005 160.14Z" fill="#FD5435"/>
<path d="M197.271 256.66C197.271 262.37 197.271 262.37 190.861 262.37C185.991 262.37 185.991 262.37 186.001 255.49C186.001 251.1 186.001 251.07 193.001 251.12C198.001 251.14 197.181 250.35 197.271 256.66Z" fill="#FD5435"/>
</g>
<defs>
<clipPath id="clip0_850_479">
<rect width="383.16" height="383.14" fill="white"/>
</clipPath>
</defs>
</svg>
