<svg width="384" height="384" viewBox="0 0 384 384" fill="none" xmlns="http://www.w3.org/2000/svg">
<g clip-path="url(#clip0_850_515)">
<path d="M0.0605469 148.16C1.32055 147.41 1.06055 145.98 1.41055 144.87C3.28496 138.492 7.08734 132.851 12.2958 128.72C17.5042 124.59 23.8634 122.172 30.5005 121.8C32.5005 121.68 34.5005 121.63 36.5005 121.63C88.7472 121.63 140.997 121.653 193.251 121.7C196.581 121.7 197.641 120.99 197.591 117.47C197.361 103.47 197.461 89.54 197.501 75.57C197.501 59.34 208.211 48.63 224.411 48.57C258.331 48.53 292.251 48.53 326.171 48.57C342.271 48.57 353.101 59.46 353.171 75.57C353.224 90.7767 353.224 105.99 353.171 121.21C353.171 125.66 351.471 127.79 347.961 128.01C344.061 128.24 341.961 126.15 341.961 121.73C341.961 106.73 341.961 91.81 341.961 76.84C341.961 65.19 336.511 59.77 324.781 59.77H225.231C214.161 59.77 208.701 65.22 208.701 76.26C208.701 115.66 208.701 155.063 208.701 194.47C208.701 205.27 214.271 210.87 224.981 210.89C231.591 210.89 238.201 210.89 244.811 210.89C250.431 210.89 252.221 212.66 252.251 218.18C252.251 221.77 252.251 225.35 252.251 229.66C258.791 224.81 265.051 220.58 270.811 215.74C275.301 211.96 280.011 210.63 285.811 210.74C299.141 211.09 312.491 210.87 325.811 210.85C335.951 210.85 341.861 204.95 341.891 194.85C341.891 181.26 341.891 167.67 341.891 154.08C341.891 149.28 343.511 147.26 347.281 147.18C351.051 147.1 353.091 149.35 353.101 154.18C353.101 168.02 353.191 181.86 353.101 195.7C353.001 211.09 342.001 222.03 326.601 222.16C319.861 222.21 313.131 222.16 306.401 222.16C305.021 222.16 303.771 221.88 303.781 224.11C303.871 238.57 303.831 253.03 303.831 267.74C312.171 265.09 320.441 263.68 329.001 264.74C351.831 267.51 368.651 278.87 378.051 300.01C387.191 320.55 384.321 340.24 371.571 358.35C361.881 372.11 348.571 380.49 331.571 382.49C331.291 382.49 331.061 382.91 330.811 383.13H327.071C325.12 382.498 323.021 382.498 321.071 383.13H316.581C305.587 382.407 295.096 378.26 286.581 371.27C275.036 362.305 267.18 349.419 264.501 335.05C263.421 329.59 263.431 329.58 257.851 329.58H191.291C186.291 329.58 186.021 329.87 187.201 334.68C189.791 345.21 192.201 355.78 194.721 366.32C195.721 370.65 196.051 370.8 200.591 370.83C204.701 370.83 208.811 370.83 212.931 370.83C214.554 370.718 216.179 371.024 217.651 371.72C218.894 372.338 219.89 373.361 220.475 374.621C221.06 375.88 221.2 377.301 220.871 378.65C220.381 381.58 218.501 382.89 215.551 382.72H87.3206C83.8706 381.81 82.5306 380.17 82.7206 377.08C82.7589 375.564 83.3436 374.113 84.3671 372.994C85.3906 371.875 86.7839 371.163 88.2905 370.99C91.8705 370.45 95.5105 370.76 99.1205 370.75C109.821 370.75 107.671 371.25 109.981 362.15C112.351 352.85 114.481 343.48 116.621 334.15C117.561 330.05 117.301 329.69 112.941 329.68C100.941 329.68 88.9906 329.68 77.0206 329.68C75.1503 329.806 73.2716 329.645 71.4505 329.2C69.8744 328.75 68.5117 327.749 67.6092 326.381C66.7067 325.013 66.324 323.366 66.5305 321.74C66.9105 318.56 69.0006 316.66 72.6306 316.28C74.4971 316.14 76.3698 316.1 78.2406 316.16H256.341H260.451C262.451 316.16 263.791 315.33 264.171 313.26C266.271 301.96 271.451 292.14 278.891 283.35C277.891 282.21 276.681 282.58 275.671 282.58C189.737 282.58 103.807 282.58 17.8805 282.58C12.6805 282.58 12.4606 282.82 12.4406 288.12C12.4406 292.12 12.3306 296.12 12.4406 300.12C12.7706 308.43 17.7605 314.18 25.8905 315.73C30.4705 316.61 35.1005 316.07 39.7105 316.24C41.7105 316.32 43.7105 316.47 45.3205 317.91C46.1669 318.727 46.7829 319.752 47.1066 320.883C47.4302 322.014 47.4501 323.21 47.1641 324.351C46.8781 325.491 46.2965 326.537 45.4777 327.381C44.6589 328.225 43.6321 328.839 42.5005 329.16C31.1005 332.86 13.5006 327.88 5.69055 318.85C2.43654 315.049 0.466152 310.317 0.0605469 305.33V148.16Z" fill="#FD5435"/>
<path d="M0.060124 305.28C0.290124 305.55 0.630128 305.79 0.720128 306.1C5.15013 320.95 14.9101 328.29 30.3501 328.34C33.8401 328.34 37.3501 328.45 40.8201 328.29C44.6701 328.12 46.6801 325.93 46.5501 322.39C46.4201 318.85 44.5501 317.2 40.6801 317.13C36.8101 317.06 32.9501 317.13 29.0901 317.13C18.3301 316.94 11.3501 309.91 11.2901 299.24C11.2901 294.24 11.4601 289.24 11.2201 284.24C11.0801 281.49 12.0601 280.97 14.5701 281.07C19.5701 281.27 24.5701 281.13 29.5701 281.13H281.46C282 281.82 281.58 282.13 281.25 282.49C272.785 291.049 267.221 302.05 265.34 313.94C264.89 316.75 263.81 317.15 261.34 317.15C199.64 317.077 137.933 317.06 76.2201 317.1C74.9701 317.1 73.7201 317.1 72.4801 317.1C69.3401 317.27 67.7201 319.1 67.4801 322.1C67.2401 325.1 68.4801 327.23 71.4801 327.98C72.8234 328.241 74.193 328.342 75.5601 328.28C89.0201 328.28 102.48 328.35 115.95 328.28C118.63 328.28 119.21 328.72 118.51 331.53C115.46 343.71 112.65 355.96 109.89 368.21C109.29 370.87 108.4 372.13 105.31 371.93C100.1 371.59 94.8501 371.84 89.6101 371.84C86.6701 371.84 84.4801 373.05 83.7901 376.03C83.1501 378.86 83.8901 381.2 86.8901 382.33C87.1301 382.51 87.2001 382.68 87.1201 382.84C87.0401 383 86.9601 383.09 86.8701 383.09C58.8701 383.09 30.8701 383.09 2.87013 383.15C0.570129 383.15 -0.00987356 382.66 0.000126439 380.3C0.100126 355.3 0.060124 330.29 0.060124 305.28Z" fill="#FEFEFE"/>
<path d="M216.641 382.48C219.871 381.48 220.741 379 220.061 376.02C219.381 373.04 217.191 371.84 214.231 371.85C208.751 371.85 203.231 371.77 197.791 371.85C195.791 371.85 194.791 371.52 194.281 369.26C191.381 356.41 188.281 343.6 185.171 330.8C184.671 328.74 185.111 328.26 187.171 328.26C212.211 328.32 237.257 328.32 262.311 328.26C263.931 328.26 264.651 328.6 264.921 330.45C269.061 358.64 287.381 377.45 315.361 382.38C315.795 382.531 316.201 382.754 316.561 383.04H216.321C216.001 382.68 216.121 382.47 216.641 382.48Z" fill="#FEFEFE"/>
<path d="M216.639 382.48C216.657 382.604 216.636 382.73 216.579 382.841C216.521 382.953 216.431 383.043 216.319 383.1H86.8594C86.9307 382.94 86.9843 382.772 87.0194 382.6C87.0194 382.52 86.9294 382.43 86.8794 382.34H212.879C214.149 382.36 215.389 382.44 216.639 382.48Z" fill="#FD5435"/>
<path d="M321.08 383.1C321.981 382.541 323.02 382.245 324.08 382.245C325.14 382.245 326.179 382.541 327.08 383.1H321.08Z" fill="#FD5435"/>
<path d="M76.2292 52.38C76.2292 37.4134 76.2292 22.45 76.2292 7.49002C76.2292 1.73002 77.9992 0.0200195 83.8692 0.0200195C93.7092 0.0200195 103.556 0.0200195 113.409 0.0200195C118.679 0.0200195 120.559 1.93002 120.569 7.25002C120.569 37.2967 120.569 67.3433 120.569 97.39C120.569 101.94 118.709 104.11 114.949 104.08C111.189 104.05 109.369 101.84 109.369 97.29C109.369 69.86 109.299 42.43 109.439 15C109.439 11.91 108.749 11 105.599 11.16C100.603 11.4268 95.5957 11.4268 90.5992 11.16C87.9492 11.04 87.3392 11.86 87.3492 14.45C87.4492 41.13 87.4092 67.81 87.4092 94.45C87.4092 95.32 87.4092 96.19 87.4092 97.07C87.3292 101.72 85.2692 104.26 81.6192 104.19C77.9692 104.12 76.1992 101.79 76.1992 97.19C76.1992 82.2767 76.2092 67.34 76.2292 52.38Z" fill="#FD5435"/>
<path d="M171.399 70.9C171.399 79.5 171.399 88.0967 171.399 96.69C171.399 101.84 169.609 104.13 165.669 104.08C161.729 104.03 160.179 101.87 160.179 96.87C160.179 81.8 160.109 66.73 160.239 51.65C160.239 49.06 159.639 48.25 156.989 48.37C151.989 48.6 146.989 48.63 141.989 48.37C138.989 48.21 137.989 48.94 138.059 52.16C138.259 66.73 138.159 81.31 138.129 95.88C138.19 97.3701 138.063 98.8619 137.749 100.32C136.999 103.1 134.929 104.32 132.129 104.2C130.925 104.214 129.756 103.793 128.838 103.014C127.919 102.235 127.312 101.15 127.129 99.96C126.949 98.8564 126.879 97.7376 126.919 96.62C126.919 79.4334 126.919 62.24 126.919 45.04C126.919 38.82 128.469 37.27 134.569 37.27C144.289 37.27 154.006 37.27 163.719 37.27C169.589 37.27 171.329 38.98 171.339 44.74C171.393 53.46 171.413 62.18 171.399 70.9Z" fill="#FD5435"/>
<path d="M25.431 81.26C25.431 75.78 25.431 70.26 25.431 64.81C25.431 60.47 27.491 58.42 31.861 58.4C42.3276 58.34 52.7976 58.34 63.271 58.4C67.651 58.4 69.701 60.45 69.721 64.79C69.781 75.8767 69.781 86.9666 69.721 98.06C69.721 102.06 67.811 104.06 64.211 104.06C60.611 104.06 58.591 101.98 58.551 98.06C58.461 89.59 58.441 81.11 58.551 72.64C58.551 70.33 58.161 69.38 55.551 69.48C50.201 69.71 44.831 69.67 39.471 69.48C37.221 69.41 36.471 69.93 36.541 72.31C36.701 80.79 36.661 89.26 36.541 97.74C36.541 102.61 32.631 105.53 28.671 103.74C26.271 102.66 25.291 100.64 25.321 98C25.481 92.48 25.431 86.87 25.431 81.26Z" fill="#FD5435"/>
<path d="M294.94 178.5C295.09 176.44 294.58 173.5 295.39 170.5C296.067 167.63 297.735 165.091 300.1 163.329C302.465 161.568 305.376 160.697 308.32 160.87C311.273 160.857 314.131 161.918 316.36 163.855C318.59 165.792 320.04 168.474 320.44 171.4C321.257 176.701 321.277 182.093 320.5 187.4C319.5 194.4 314.16 198.57 307.21 198.3C304.013 198.208 300.971 196.901 298.703 194.646C296.434 192.391 295.11 189.357 295 186.16C294.81 183.89 294.94 181.65 294.94 178.5Z" fill="#FD5435"/>
<path d="M229.769 179.34C229.769 177.23 229.669 175.11 229.769 173C229.863 169.796 231.185 166.752 233.462 164.496C235.738 162.24 238.795 160.945 241.999 160.88C249.079 160.6 254.579 165.16 255.309 172.19C255.834 177.143 255.834 182.137 255.309 187.09C254.569 193.94 249.219 198.43 242.309 198.29C239.101 198.299 236.014 197.071 233.688 194.863C231.361 192.654 229.976 189.634 229.819 186.43C229.669 184.08 229.819 181.71 229.819 179.34H229.769Z" fill="#FD5435"/>
<path d="M295 93.0401C295.09 89.8301 294.62 86.5901 295.65 83.4201C297.52 77.7001 302.46 74.4201 308.86 74.7201C311.62 74.7833 314.275 75.7966 316.375 77.5891C318.475 79.3817 319.893 81.8438 320.39 84.5601C321.328 90.0838 321.372 95.7225 320.52 101.26C320.143 104.385 318.588 107.247 316.172 109.264C313.756 111.28 310.661 112.298 307.52 112.11C304.309 112.068 301.234 110.812 298.911 108.595C296.589 106.379 295.191 103.365 295 100.16C294.79 97.7801 295 95.4001 295 93.0401Z" fill="#FD5435"/>
<path d="M229.789 93.33C229.789 90.97 229.639 88.59 229.789 86.25C229.988 83.1109 231.378 80.1661 233.675 78.0175C235.973 75.8689 239.004 74.6787 242.149 74.6901C249.149 74.5301 254.519 78.89 255.279 85.6901C255.849 90.7607 255.849 95.8793 255.279 100.95C254.981 104.092 253.494 107.002 251.122 109.085C248.751 111.169 245.674 112.268 242.519 112.16C239.312 112.182 236.217 110.984 233.859 108.81C231.502 106.636 230.058 103.648 229.819 100.45C229.639 98.07 229.789 95.69 229.789 93.33Z" fill="#FD5435"/>
<path d="M288.131 137.86C287.991 139.86 288.541 143.13 287.501 146.31C285.601 152.12 280.711 155.46 274.371 155.09C268.211 154.73 263.511 150.67 262.651 144.59C261.929 139.281 261.929 133.899 262.651 128.59C263.018 125.456 264.568 122.58 266.984 120.55C269.4 118.521 272.5 117.491 275.651 117.67C278.862 117.695 281.944 118.941 284.271 121.154C286.598 123.368 287.996 126.384 288.181 129.59C288.281 131.95 288.131 134.33 288.131 137.86Z" fill="#FD5435"/>
<path d="M302.311 136.43C302.311 132.32 302.231 128.21 302.311 124.1C302.391 120.51 304.511 118.3 307.701 118.22C308.454 118.169 309.209 118.277 309.917 118.537C310.626 118.797 311.271 119.204 311.812 119.73C312.353 120.257 312.776 120.891 313.055 121.593C313.334 122.294 313.462 123.046 313.431 123.8C313.584 132.273 313.584 140.74 313.431 149.2C313.445 149.954 313.302 150.703 313.013 151.399C312.723 152.095 312.292 152.724 311.747 153.245C311.202 153.767 310.555 154.17 309.846 154.429C309.138 154.688 308.384 154.797 307.631 154.75C304.491 154.61 302.391 152.33 302.321 148.75C302.241 144.65 302.311 140.54 302.311 136.43Z" fill="#FD5435"/>
<path d="M280.78 93.5301C280.78 97.6301 280.87 101.74 280.78 105.84C280.68 109.33 278.73 111.35 275.63 111.52C272.36 111.71 269.78 109.71 269.7 106.21C269.506 97.6301 269.506 89.0467 269.7 80.4601C269.698 79.7369 269.842 79.0207 270.123 78.3543C270.404 77.6878 270.816 77.0847 271.334 76.5809C271.853 76.077 272.468 75.6827 273.142 75.4214C273.817 75.1601 274.537 75.0372 275.26 75.0601C278.44 75.0601 280.68 77.3001 280.78 80.8301C280.87 85.0601 280.78 89.2901 280.78 93.5301Z" fill="#FD5435"/>
<path d="M248.299 136.8C248.299 140.65 248.399 144.51 248.299 148.37C248.179 152.37 245.849 154.85 242.519 154.75C239.189 154.65 237.159 152.31 237.129 148.45C237.056 140.49 237.056 132.527 237.129 124.56C237.129 120.56 239.129 118.35 242.429 118.23C245.729 118.11 248.169 120.39 248.299 124.48C248.429 128.57 248.299 132.69 248.299 136.8Z" fill="#FD5435"/>
<path d="M280.79 179.57C280.79 183.67 280.86 187.78 280.79 191.88C280.7 195.63 278.79 197.65 275.46 197.75C272.13 197.85 269.71 195.75 269.65 191.91C269.51 183.71 269.51 175.503 269.65 167.29C269.71 163.47 272.02 161.34 275.43 161.42C278.84 161.5 280.73 163.58 280.8 167.63C280.87 171.68 280.8 175.59 280.79 179.57Z" fill="#FD5435"/>
<path d="M152 269.92C106.374 269.92 60.7437 269.947 15.1103 270C12.0003 270 11.2303 269.25 11.2403 266.15C11.3603 229.24 11.3103 192.34 11.3203 155.44C11.3203 141.97 19.9003 132.93 33.3203 132.9C87.0503 132.79 140.79 132.9 194.52 132.79C197.18 132.79 197.52 133.79 197.52 136.04C197.447 155.607 197.447 175.18 197.52 194.76C197.52 211.42 208.21 222.11 224.8 222.16C229.41 222.16 234.03 222.26 238.63 222.16C240.63 222.1 241.16 222.7 241.11 224.65C240.98 229.76 241.11 234.88 241.05 239.99C241 242.62 241.92 244.7 244.26 245.84C246.6 246.98 248.8 246.4 250.88 244.84C259.94 238.04 269.21 231.5 278.07 224.44C282.42 220.98 287.07 222.67 291.61 222.27C292.95 222.16 292.61 223.42 292.61 224.21C292.61 238.8 292.61 253.39 292.61 267.97C292.61 269.36 292.24 270.1 290.73 269.97C289.86 269.9 288.98 269.97 288.11 269.97L152 269.92Z" fill="#FEFEFE"/>
<path d="M183.35 371.73H120.5C123.79 357.79 127.07 344.02 130.25 330.22C130.62 328.61 131.43 328.32 132.86 328.32C145.567 328.32 158.28 328.32 171 328.32C172.46 328.32 173.26 328.68 173.62 330.23C176.81 344.03 180.07 357.81 183.35 371.73Z" fill="#FEFEFE"/>
<path d="M323.861 347.23C317.696 347.238 311.772 344.838 307.351 340.541C302.929 336.245 300.36 330.392 300.191 324.23C300.051 311.23 310.871 300.13 323.691 300.16C336.511 300.19 347.181 310.64 347.291 323.27C347.336 326.384 346.764 329.477 345.609 332.37C344.454 335.262 342.739 337.898 340.561 340.125C338.383 342.352 335.787 344.126 332.92 345.345C330.054 346.565 326.975 347.205 323.861 347.23Z" fill="#FEFEFE"/>
<path d="M284 350.5C284.4 350.23 284.59 350.06 284.81 349.95C288 348.29 291.06 345.79 294.44 345.21C298.33 344.53 299.72 349.21 302.44 351.26C308.044 355.593 314.845 358.099 321.921 358.439C328.997 358.779 336.006 356.936 342 353.16C354.85 345.32 360.89 331.4 357.63 316.22C357.03 313.46 357.8 312.44 360.01 311.57C361.16 311.11 362.23 310.45 363.34 309.89C369.29 306.89 369.29 306.89 370.84 313.31C376.09 335.23 363.55 359.23 342.14 368.24C321.28 376.99 296 369.31 284 350.5Z" fill="#FEFEFE"/>
<path d="M318.13 282.89C318.13 288.95 318.13 288.95 312.63 290.81C304.497 293.625 297.686 299.337 293.499 306.856C289.311 314.375 288.041 323.174 289.93 331.57C290.5 334.03 289.88 334.92 287.93 335.75C286.33 336.43 284.82 337.31 283.28 338.11C278.35 340.62 278.35 340.62 277.03 335.4C270.45 309.4 287.58 282.09 313.83 276.69C318.15 275.8 318.15 275.8 318.15 280.27L318.13 282.89Z" fill="#FEFEFE"/>
<path d="M363.8 297.03C360.1 298.93 356.8 300.53 353.53 302.34C352.09 303.15 351.41 302.69 350.53 301.58C345.713 295.631 339.01 291.503 331.53 289.88C329.96 289.52 329.2 289.09 329.31 287.29C329.5 284.31 329.5 281.32 329.31 278.34C329.15 276.06 330.14 275.92 331.92 276.27C338.359 277.403 344.502 279.825 349.981 283.393C355.459 286.961 360.16 291.599 363.8 297.03Z" fill="#FEFEFE"/>
<path d="M306.11 179.22C306.11 177.6 306.11 175.98 306.11 174.36C306.11 173.12 306.47 172.07 307.94 172.1C309.19 172.1 309.62 173.1 309.63 174.16C309.683 177.773 309.683 181.383 309.63 184.99C309.63 185.99 309.21 186.99 307.95 187.07C306.48 187.07 306.11 186.07 306.11 184.82C306.1 182.95 306.11 181.08 306.11 179.22Z" fill="#F2F2F2"/>
<path d="M241 179.62V174.43C241 173.24 241.2 172.13 242.73 172.12C244.08 172.12 244.35 173.19 244.36 174.12C244.41 177.82 244.36 181.53 244.36 185.24C244.36 186.12 243.98 186.97 242.86 187C241.74 187.03 241 186.35 241 185.16C241 183.3 241 181.45 241 179.59V179.62Z" fill="#FDFDFD"/>
<path d="M309.66 93.4501C309.66 95.2001 309.72 96.9401 309.66 98.6801C309.61 99.8801 309.14 100.98 307.66 100.85C306.49 100.75 306.09 99.8001 306.1 98.6901C306.1 95.0901 306.1 91.4835 306.1 87.8701C306.1 86.7301 306.6 85.8701 307.83 85.8701C309.06 85.8701 309.56 86.7801 309.6 87.8701C309.68 89.7301 309.6 91.6001 309.6 93.4601L309.66 93.4501Z" fill="#F1F1F1"/>
<path d="M244.249 93.66C244.249 95.51 244.319 97.37 244.249 99.21C244.264 99.4292 244.232 99.649 244.155 99.8547C244.077 100.06 243.957 100.247 243.802 100.402C243.646 100.558 243.46 100.678 243.254 100.755C243.048 100.832 242.829 100.865 242.609 100.85C242.389 100.856 242.17 100.816 241.967 100.732C241.763 100.649 241.58 100.523 241.428 100.364C241.276 100.204 241.16 100.015 241.086 99.8074C241.012 99.6 240.982 99.3795 240.999 99.16C240.999 95.33 240.999 91.5 240.999 87.67C240.971 87.4545 240.989 87.2354 241.051 87.0271C241.113 86.8188 241.218 86.6259 241.359 86.4608C241.501 86.2958 241.676 86.1624 241.872 86.0692C242.068 85.976 242.282 85.9252 242.499 85.92C243.819 85.79 244.269 86.65 244.309 87.73C244.369 89.73 244.309 91.68 244.309 93.65L244.249 93.66Z" fill="#FDFDFD"/>
<path d="M277 136.74C277 138.36 277 139.97 277 141.58C277 142.83 276.71 143.89 275.25 143.91C274.01 143.91 273.54 142.97 273.53 141.91C273.48 138.31 273.46 134.71 273.53 131.11C273.53 129.91 274.07 128.82 275.53 128.98C276.7 129.1 277.04 130.06 277.03 131.17C277 133.02 277 134.88 277 136.74Z" fill="#F1F1F1"/>
<path d="M102.7 224.52H39.8701C38.7497 224.567 37.6275 224.544 36.5101 224.45C35.2387 224.299 34.0589 223.712 33.1715 222.789C32.2841 221.866 31.7437 220.664 31.6424 219.387C31.541 218.111 31.8849 216.839 32.6156 215.788C33.3462 214.736 34.4185 213.97 35.6501 213.62C36.7409 213.366 37.8612 213.262 38.9801 213.31C81.4934 213.31 124.003 213.31 166.51 213.31C167.75 213.267 168.989 213.402 170.19 213.71C172.97 214.54 174.14 216.65 173.93 219.43C173.933 220.701 173.452 221.925 172.584 222.854C171.717 223.783 170.528 224.346 169.26 224.43C168.144 224.545 167.021 224.575 165.9 224.52H102.7Z" fill="#FD5435"/>
<path d="M143.46 175.74C145.23 169.57 146.73 164.33 148.24 159.09C149.51 154.66 151.45 152.98 155.12 153.09C158.79 153.2 160.69 155.18 161.54 159.59C163.54 169.983 165.54 180.373 167.54 190.76C167.709 191.617 167.799 192.487 167.81 193.36C167.81 196.56 166.23 198.6 163.05 199.03C159.65 199.48 157.52 197.68 156.8 194.48C155.8 190.13 155.08 185.71 153.68 181.26C152.5 185.34 151.25 189.41 150.15 193.51C149.21 197.03 147.15 199.41 143.42 199.38C139.86 199.38 137.93 197.01 137.03 193.62C135.986 189.485 134.581 185.449 132.83 181.56C132.05 185.68 131.34 189.82 130.46 193.93C129.62 197.88 126.98 199.75 123.59 199C120.49 198.32 118.91 195.51 119.59 191.72C121.463 181.053 123.356 170.387 125.27 159.72C126.07 155.29 128.04 153.28 131.58 153.06C135.12 152.84 137.23 154.51 138.58 158.91C140.05 164.16 141.6 169.43 143.46 175.74Z" fill="#FD5435"/>
<path d="M101.52 181.37C103.97 184.19 106.35 186.86 108.65 189.61C111.21 192.66 111.24 195.61 108.83 197.9C106.42 200.19 103.04 199.98 100.29 197.01C97.5399 194.04 94.7399 190.75 91.3699 186.91C91.3699 189.85 91.4699 191.91 91.3699 193.97C91.3598 195.42 90.7849 196.808 89.7672 197.841C88.7496 198.874 87.3694 199.469 85.9199 199.5C85.1974 199.525 84.477 199.407 83.8004 199.152C83.1239 198.898 82.5045 198.511 81.9782 198.015C81.4519 197.52 81.029 196.925 80.7341 196.265C80.4391 195.605 80.278 194.893 80.2599 194.17C80.1399 182.09 80.1399 170.013 80.2599 157.94C80.2479 157.272 80.3699 156.608 80.6189 155.987C80.868 155.367 81.2388 154.803 81.7097 154.328C82.1805 153.854 82.7417 153.478 83.3601 153.224C83.9785 152.97 84.6415 152.843 85.3099 152.85C89.5199 152.61 93.7799 152.31 97.9699 153.08C104.41 154.26 108.97 158.64 110.14 164.65C111.44 171.16 109.14 176.46 103.25 180.25L101.52 181.37Z" fill="#FD5435"/>
<path d="M55.4592 152.73C59.6347 152.837 63.6972 154.108 67.1892 156.4C70.1892 158.4 71.0892 161.34 69.5792 164.08C67.9992 166.97 64.7792 167.89 61.5092 166C56.9592 163.37 52.5092 163.28 48.1392 166.08C46.767 166.946 45.5869 168.084 44.6718 169.424C43.7566 170.763 43.1259 172.277 42.8185 173.87C42.5111 175.463 42.5336 177.102 42.8846 178.686C43.2356 180.27 43.9077 181.766 44.8592 183.08C48.0592 187.59 55.9492 190.94 61.7492 185.22C64.4892 182.53 67.8092 182.7 70.0192 185.07C72.2292 187.44 72.0192 190.77 69.3392 193.42C63.6192 199.12 56.6292 200.71 49.0192 198.72C40.4292 196.47 34.6492 190.9 32.2792 182.27C28.1792 167.41 39.3692 152.87 55.4592 152.73Z" fill="#FD5435"/>
<path d="M72.7706 237.75C84.3606 237.75 95.9506 237.75 107.531 237.75C111.721 237.75 113.781 239.52 113.901 242.96C114.001 245.96 112.621 247.96 109.621 248.63C108.275 248.877 106.908 248.984 105.541 248.95C83.7272 248.95 61.9206 248.95 40.1206 248.95C39.3706 248.95 38.6206 248.95 37.8706 248.95C33.8706 248.67 31.4406 246.38 31.5906 243.02C31.7406 239.66 34.0706 237.77 38.0006 237.76C49.5906 237.72 61.1806 237.75 72.7706 237.75Z" fill="#FD5435"/>
<path d="M91.3906 167.46C91.4906 165.77 90.6406 163.59 93.8806 163.88C96.5006 164.12 99.2306 164.4 99.2506 167.59C99.2706 170.78 96.5706 171.12 93.9306 171.34C90.3906 171.64 91.6106 169.16 91.3906 167.46Z" fill="#F6F6F6"/>
</g>
<defs>
<clipPath id="clip0_850_515">
<rect width="383.39" height="383.15" fill="white"/>
</clipPath>
</defs>
</svg>
