<svg width="384" height="342" viewBox="0 0 384 342" fill="none" xmlns="http://www.w3.org/2000/svg">
<g clip-path="url(#clip0_850_570)">
<path d="M0 44.3399C1.09 43.7799 0.810002 42.5899 1.15 41.7099C4.33 33.3299 11.61 27.9799 20.6 27.9399C42.6 27.8499 64.5 27.8899 86.45 27.9399C90.54 27.9399 92.98 30.0799 93.03 33.4699C93.03 37.0299 90.63 39.1399 86.26 39.1399C65.18 39.1399 44.1033 39.1399 23.03 39.1399C14.62 39.1399 11.23 42.4999 11.23 50.8499C11.23 107.723 11.2033 164.59 11.15 221.45C11.15 224.65 12.03 225.26 15.07 225.26C108.61 225.18 202.147 225.16 295.68 225.2C297.175 225.148 298.672 225.201 300.16 225.36C301.422 225.469 302.596 226.053 303.445 226.994C304.293 227.935 304.752 229.163 304.73 230.43C304.89 233.26 303.6 235.31 300.81 236.02C299.228 236.343 297.613 236.471 296 236.4C202.467 236.4 108.933 236.38 15.4 236.34C12.09 236.34 11.01 237.02 11.14 240.51C11.43 248.51 11.21 256.51 11.24 264.45C11.24 271.45 14.71 275 21.74 275.24C22.61 275.24 23.48 275.24 24.35 275.24H358.84C360.335 275.273 361.831 275.217 363.32 275.07C368.43 274.46 371.78 271.02 371.86 265.89C371.99 256.79 371.8 247.68 371.97 238.58C372.02 236.11 370.69 236.41 369.18 236.41H330.27C329.026 236.464 327.781 236.397 326.55 236.21C323.55 235.62 321.88 233.64 321.96 230.71C321.924 230.017 322.028 229.323 322.267 228.672C322.505 228.02 322.874 227.423 323.349 226.918C323.825 226.412 324.398 226.008 325.034 225.73C325.67 225.452 326.356 225.306 327.05 225.3C329.05 225.13 331.05 225.2 333.05 225.2C344.9 225.2 356.75 225.12 368.59 225.25C371.07 225.25 372 224.85 371.99 222.07C371.91 164.57 371.883 107.077 371.91 49.5899C371.91 43.0699 368.21 39.1799 361.85 39.1699C332.05 39.1099 302.247 39.1099 272.44 39.1699C271.88 40.4899 273.03 41.0199 273.54 41.7199C283.745 55.494 290.351 71.5974 292.759 88.5702C295.167 105.543 293.3 122.848 287.328 138.917C281.356 154.986 271.469 169.31 258.561 180.591C245.653 191.873 230.134 199.753 213.41 203.52C157.05 216.61 99.85 178.65 89.71 121.42C79.5 63.8499 117.94 10.1899 175.94 1.18994C191.654 -1.2828 207.733 0.0897107 222.8 5.18994C226.68 6.48994 228.37 9.28994 227.35 12.4799C226.33 15.6699 223.35 16.9299 219.4 15.8399C218.8 15.6799 218.22 15.4299 217.63 15.2499C196.184 8.76597 173.107 10.3428 152.742 19.6837C132.377 29.0246 116.127 45.4857 107.05 65.9699C82.9 120.6 116.86 183.54 175.81 193.37C227.51 201.99 276.42 165.57 281.89 113.49C285.51 78.9999 272.89 50.8199 245.51 29.3799C244.63 28.6899 243.68 28.0799 242.84 27.3799C240.39 25.2199 239.96 22.1299 241.7 19.7099C242.099 19.1087 242.617 18.595 243.221 18.2002C243.825 17.8053 244.503 17.5375 245.214 17.4131C245.925 17.2887 246.654 17.3102 247.357 17.4764C248.059 17.6427 248.72 17.9501 249.3 18.3799C252.671 20.7321 255.906 23.2729 258.99 25.9899C259.705 26.6581 260.544 27.1786 261.461 27.5218C262.377 27.865 263.352 28.0241 264.33 27.9899C296.25 27.9299 328.177 27.9299 360.11 27.9899C374.92 27.9899 383.16 36.2699 383.16 51.1799V262.86C383.16 278.47 375.11 286.46 359.38 286.46C320.38 286.46 281.31 286.52 242.27 286.38C238.74 286.38 238 287.38 238.05 290.73C238.25 302.82 238.21 314.92 238.05 327.02C238.05 329.64 238.7 330.45 241.34 330.31C245.57 330.09 249.82 330.21 254.06 330.26C258.15 330.31 260.59 332.42 260.64 335.81C260.69 339.2 258.33 341.46 254.24 341.46C211.96 341.46 169.68 341.46 127.4 341.46C123.49 341.46 121.23 339.39 121.15 336.05C121.07 332.71 123.43 330.34 127.47 330.27C131.96 330.19 136.47 330.15 140.93 330.27C142.93 330.34 143.71 329.86 143.69 327.65C143.59 314.8 143.52 301.95 143.69 289.11C143.74 285.95 142.03 286.44 140.18 286.44C101.02 286.44 61.86 286.44 22.7 286.44C11.1 286.44 4.7 281.9 0.700005 271.09C0.580005 270.79 0.24 270.57 0 270.32V44.3399Z" fill="#FD5435"/>
<path d="M203.939 152.93H182.039C184.929 160.33 184.149 165.03 179.549 168.32C177.69 169.599 175.469 170.248 173.213 170.171C170.958 170.093 168.786 169.294 167.019 167.89C162.649 164.38 162.019 159.76 165.119 153.1C157.379 152.19 157.069 151.79 155.619 144.02C150.569 117.02 145.389 89.96 140.439 62.9C139.779 59.32 138.309 58.24 134.749 58.42C128.749 58.72 126.019 56.66 126.089 52.74C126.159 48.82 128.699 47.28 134.579 47.28C145.339 47.28 149.219 50.39 151.319 61.15C151.819 63.71 152.699 64.49 155.379 64.48C181.439 64.36 207.509 64.4 233.569 64.41C241.099 64.41 243.489 67.41 242.089 74.67C238.939 90.93 235.939 107.2 232.799 123.43C231.909 128.1 230.249 129.43 225.409 129.43C206.199 129.43 186.989 129.51 167.789 129.37C164.729 129.37 164.349 130.16 164.959 132.93C166.859 141.5 166.759 141.52 175.409 141.52C191.749 141.52 208.083 141.52 224.409 141.52C227.409 141.52 229.549 142.7 230.409 145.52C230.799 146.659 230.789 147.898 230.38 149.031C229.971 150.164 229.187 151.123 228.159 151.75C227.117 152.461 225.87 152.813 224.609 152.75C223.369 152.7 222.129 152.75 220.549 152.75C221.779 155.62 223.159 158.2 222.549 161.29C222.263 163.147 221.481 164.893 220.285 166.342C219.089 167.791 217.524 168.89 215.755 169.523C213.986 170.156 212.078 170.3 210.234 169.938C208.39 169.577 206.678 168.724 205.279 167.47C201.379 164.05 200.879 159.27 203.939 152.93Z" fill="#FD5435"/>
<path d="M319.319 80.0701C327.319 80.0701 327.319 80.0701 327.319 72.1801C327.243 69.9394 327.286 67.6961 327.449 65.4601C327.491 64.741 327.676 64.0376 327.993 63.3909C328.31 62.7442 328.753 62.1674 329.296 61.6942C329.839 61.2211 330.471 60.8611 331.155 60.6354C331.839 60.4098 332.561 60.323 333.279 60.3801C336.369 60.7401 338.349 62.4801 338.459 65.7201C338.589 69.4601 338.649 73.2001 338.459 76.9301C338.359 79.2801 338.929 80.2901 341.519 80.1301C345.119 79.9001 348.739 80.0001 352.349 80.1301C355.959 80.2601 358.189 82.5201 358.209 85.6001C358.205 87.0541 357.639 88.4501 356.628 89.4958C355.618 90.5416 354.242 91.1558 352.789 91.2101C348.949 91.4601 345.069 91.4101 341.219 91.2801C339.119 91.2201 338.359 91.8301 338.459 94.0001C338.619 97.6001 338.579 101.22 338.459 104.83C338.339 108.44 335.969 110.98 332.799 110.9C329.629 110.82 327.469 108.53 327.319 104.98C327.159 101.25 327.159 97.5101 327.319 93.7801C327.399 91.7801 326.729 91.2101 324.789 91.2901C321.309 91.4301 317.789 91.4001 314.329 91.2901C310.139 91.1801 307.489 88.7601 307.649 85.3701C307.809 81.9801 310.299 80.1501 314.449 80.0901C316.079 80.0501 317.699 80.0701 319.319 80.0701Z" fill="#FD5435"/>
<path d="M67.3507 199.21C77.3507 199.21 87.3507 199.21 97.2807 199.21C101.621 199.21 104.121 201.36 104.051 204.9C103.981 208.28 101.541 210.41 97.4407 210.41C77.494 210.41 57.5407 210.41 37.5807 210.41C33.5807 210.41 30.9907 208.18 30.9307 204.86C30.8707 201.54 33.4707 199.22 37.7907 199.21C47.6507 199.19 57.5007 199.21 67.3507 199.21Z" fill="#FD5435"/>
<path d="M52.9399 185.08C47.7099 185.08 42.4899 185.13 37.2599 185.08C33.4699 185.03 31.0598 182.86 30.9598 179.64C30.8598 176.42 33.4299 173.91 37.3599 173.89C47.9265 173.843 58.5032 173.843 69.0898 173.89C72.8198 173.89 75.3199 176.18 75.4099 179.35C75.4999 182.69 72.9699 185.02 68.9899 185.07C63.6199 185.13 58.2699 185.08 52.9399 185.08Z" fill="#FD5435"/>
<path d="M190.87 286.43C201.87 286.43 212.81 286.5 223.77 286.43C226.09 286.43 226.97 286.85 226.94 289.43C226.8 302.14 226.83 314.85 226.94 327.56C226.94 329.56 226.53 330.32 224.32 330.31C202.007 330.23 179.7 330.23 157.4 330.31C155.56 330.31 154.81 329.99 154.83 327.91C154.93 314.95 154.93 301.987 154.83 289.02C154.83 286.76 155.64 286.43 157.63 286.44C168.69 286.51 179.78 286.43 190.87 286.43Z" fill="#FEFEFE"/>
<path d="M154.24 75.6399C159.97 75.6399 165.55 75.6399 171.14 75.6399C172.51 75.6399 172.74 76.3999 172.81 77.5299C173.04 81.3899 173.26 85.2399 173.63 89.0899C173.81 90.9399 173.14 91.4899 171.35 91.3899C169.12 91.2599 166.87 91.3899 164.63 91.3899C157.05 91.3899 157.04 91.3899 155.73 84.0999C155.25 81.4299 154.78 78.6899 154.24 75.6399Z" fill="#FDFDFD"/>
<path d="M222.04 75.6299C224.43 75.9399 228.41 74.3199 229.98 76.3099C231.16 77.8099 229.38 81.6599 228.87 84.4599C227.61 91.3499 227.6 91.3499 220.44 91.3499H219.7C211.24 91.3499 211.24 91.3499 211.96 83.0099C212.59 75.6299 212.59 75.6299 220.02 75.6299H222.04Z" fill="#FDFDFD"/>
<path d="M192.749 75.8599C195.469 75.8599 199.029 74.8099 200.669 76.1399C202.529 77.6399 200.739 81.2199 200.609 83.8899C200.249 91.3499 200.179 91.3499 192.609 91.3499C185.209 91.3499 185.209 91.3499 184.559 84.7799C183.669 75.6299 183.669 75.6299 192.749 75.8599Z" fill="#FDFDFD"/>
<path d="M167.211 102.57C174.781 102.57 174.781 102.57 175.121 110.12C175.136 110.246 175.136 110.374 175.121 110.5C174.871 113.03 176.781 117.22 175.121 117.74C171.381 118.88 167.121 118.27 163.001 118.15C161.831 118.15 161.921 116.66 161.741 115.74C161.051 112.22 160.601 108.64 159.741 105.17C159.111 102.75 160.031 102.41 162.051 102.55C163.731 102.66 165.471 102.57 167.211 102.57Z" fill="#FDFDFD"/>
<path d="M218.069 102.57C225.429 102.57 225.429 102.57 223.979 109.79C222.269 118.29 222.259 118.1 213.569 118.38C209.969 118.5 208.989 117.38 209.659 114.07C209.887 112.723 210.034 111.364 210.099 110C210.709 102.57 210.709 102.57 218.069 102.57Z" fill="#FDFDFD"/>
<path d="M192.77 102.57C199.4 102.57 199.4 102.57 198.91 109.2C198.91 109.57 198.86 109.95 198.82 110.32C197.99 119.02 198 118.96 189.02 118.32C187.35 118.21 186.94 117.63 186.86 116.13C186.757 112.531 186.474 108.94 186.01 105.37C185.63 102.89 186.44 102.3 188.67 102.53C190.03 102.68 191.4 102.57 192.77 102.57Z" fill="#FDFDFD"/>
</g>
<defs>
<clipPath id="clip0_850_570">
<rect width="383.13" height="341.48" fill="white"/>
</clipPath>
</defs>
</svg>
