<svg width="15" height="15" viewBox="0 0 15 15" fill="none" xmlns="http://www.w3.org/2000/svg">
<path d="M7.19295 15C6.85229 14.9217 6.50537 14.8716 6.16979 14.7694C5.93212 14.6969 5.69561 14.6217 5.46498 14.5282C5.08399 14.3715 4.92227 13.9761 5.08908 13.5986C5.21477 13.3139 5.34986 13.0332 5.48064 12.7505C5.57892 12.5386 5.57893 12.5386 5.38823 12.4129C5.28251 12.3428 5.17483 12.2759 5.07107 12.2031C4.9536 12.1204 4.92579 11.9904 4.99667 11.8859C5.06754 11.7813 5.18775 11.7598 5.30561 11.8326C5.46224 11.9301 5.61886 12.0284 5.76922 12.1388C5.98341 12.2955 6.04332 12.5758 5.92585 12.8354C5.78959 13.1369 5.64745 13.4357 5.51001 13.736C5.41682 13.9404 5.46459 14.0536 5.67447 14.1358C6.17979 14.3311 6.70502 14.4703 7.24073 14.5509C7.34998 14.5677 7.37856 14.5286 7.37817 14.4275C7.37817 13.5391 7.37464 12.6502 7.37817 11.7614C7.37817 11.6365 7.30964 11.6231 7.22154 11.6C5.59381 11.1787 4.51622 10.1673 4.06592 8.54584C3.42375 6.23404 4.8698 3.8639 7.22428 3.31649C7.34175 3.28908 7.38091 3.24718 7.38091 3.12501C7.37582 2.2902 7.37817 1.45499 7.37817 0.618996C7.37817 0.428696 7.37817 0.431045 7.191 0.458063C6.66542 0.53544 6.1505 0.673136 5.65645 0.868423C5.42426 0.959266 5.38236 1.06969 5.49082 1.29914C5.60477 1.53604 5.72106 1.77176 5.83383 2.00905C6.00926 2.3783 5.90901 2.73541 5.55974 2.94489C5.1279 3.20419 4.73281 3.52026 4.38504 3.88465C4.10312 4.17989 3.73896 4.20025 3.41396 3.94691C3.1986 3.77893 2.98598 3.60742 2.77023 3.43787C2.60382 3.30826 2.47225 3.33058 2.35282 3.50796C1.9566 4.09367 1.65027 4.73537 1.444 5.41175C1.37939 5.62515 1.44009 5.7344 1.66015 5.78648C1.92523 5.84913 2.19267 5.90395 2.45776 5.96817C2.86029 6.06645 3.0596 6.35973 3.00908 6.76813C2.94348 7.26734 2.94743 7.77323 3.02083 8.27135C3.04963 8.44175 3.01287 8.61674 2.91793 8.76115C2.82299 8.90555 2.67691 9.00867 2.50906 9.04978C2.22556 9.12144 1.93972 9.18252 1.65584 9.25144C1.45692 9.29999 1.39075 9.41511 1.45105 9.60815C1.66359 10.2929 1.97844 10.9417 2.38493 11.5323C2.49731 11.696 2.63514 11.7148 2.79412 11.5891C3.00478 11.4223 3.21231 11.2523 3.42062 11.0855C3.76011 10.8157 4.10625 10.8334 4.41676 11.1329C4.49038 11.2038 4.5679 11.2715 4.64387 11.34C4.76486 11.4501 4.78483 11.5691 4.69908 11.6733C4.61333 11.7774 4.47589 11.7778 4.35059 11.6701C4.25818 11.5918 4.17125 11.5049 4.08041 11.4234C3.95785 11.313 3.858 11.306 3.728 11.4066C3.50089 11.5836 3.27887 11.7672 3.05255 11.945C2.70327 12.2191 2.27216 12.1525 2.02156 11.7884C1.5876 11.1573 1.25187 10.464 1.02581 9.73228C0.893067 9.30352 1.1143 8.91939 1.5509 8.81993C1.81677 8.75924 2.08303 8.69933 2.34851 8.63707C2.53529 8.59322 2.60577 8.49141 2.57875 8.31051C2.50294 7.78313 2.49951 7.24788 2.56857 6.71958C2.59207 6.52615 2.53294 6.43765 2.34225 6.3934C2.07207 6.33036 1.80071 6.27163 1.52975 6.21015C1.11469 6.11578 0.886022 5.74027 1.00506 5.33305C1.22763 4.57936 1.5682 3.8657 2.01412 3.2186C2.24436 2.88263 2.67978 2.81568 3.00439 3.06197C3.22993 3.23269 3.44842 3.41438 3.67005 3.58706C3.83137 3.71393 3.93827 3.70962 4.07727 3.56278C4.44282 3.18085 4.85823 2.84999 5.31227 2.57917C5.48691 2.47345 5.51628 2.37007 5.42974 2.18761C5.31227 1.9417 5.19049 1.69776 5.07381 1.45146C4.87802 1.0411 5.03818 0.636617 5.45793 0.472551C6.02534 0.249795 6.61662 0.093435 7.21997 0.00658891C7.54693 -0.041182 7.80341 0.175353 7.82103 0.508575C7.8269 0.619388 7.77169 0.775231 7.84569 0.829267C7.9197 0.883303 8.07045 0.849237 8.18675 0.849628C8.72867 0.849628 9.27099 0.849628 9.81292 0.851586C9.89867 0.851586 9.9343 0.829658 9.96484 0.743123C10.0402 0.524072 10.1907 0.338825 10.3897 0.220314C10.5888 0.101803 10.8234 0.0577074 11.0518 0.0958657C11.282 0.135681 11.4909 0.25507 11.6421 0.433195C11.7932 0.61132 11.877 0.836868 11.8788 1.07047C11.8763 1.30192 11.7933 1.52527 11.644 1.70218C11.4947 1.87909 11.2886 1.99853 11.0608 2.03999C10.8328 2.08014 10.5979 2.03818 10.3979 1.92154C10.1979 1.8049 10.0457 1.62115 9.96837 1.40291C9.93665 1.31481 9.90141 1.28544 9.80626 1.28544C9.18641 1.29053 8.56617 1.28936 7.94632 1.28544C7.85822 1.28544 7.81633 1.29601 7.81907 1.40291C7.82651 1.72478 7.82572 2.04743 7.81907 2.36968C7.81907 2.46992 7.85235 2.48715 7.94437 2.48715C9.45294 2.48454 10.9616 2.48454 12.4705 2.48715C12.5547 2.48715 12.5852 2.45974 12.6122 2.38495C12.7935 1.88297 13.2888 1.62101 13.7936 1.75336C14.0292 1.81684 14.2331 1.96509 14.3661 2.16967C14.4992 2.37425 14.552 2.62075 14.5144 2.86188C14.4758 3.10564 14.3464 3.32581 14.1524 3.47828C13.9583 3.63076 13.7138 3.70429 13.4678 3.68417C13.0508 3.65128 12.763 3.42495 12.615 3.03104C12.5848 2.95077 12.5511 2.92257 12.4634 2.92257C10.9593 2.92571 9.45542 2.92571 7.95181 2.92257C7.83434 2.92257 7.81124 2.95938 7.81985 3.06314C7.83279 3.16527 7.82614 3.26893 7.80027 3.36857C7.72901 3.5945 7.55672 3.69552 7.33705 3.74368C6.67708 3.88776 6.06829 4.20744 5.57501 4.66895C3.52125 6.55434 4.1924 10.0283 6.80061 11.0123C6.98797 11.0813 7.17926 11.1391 7.37347 11.1854C7.6922 11.2637 7.82846 11.427 7.81985 11.7571C7.81554 11.9078 7.85392 11.9497 8.00937 11.9489C9.47382 11.9424 10.9385 11.9424 12.4035 11.9489C12.5245 11.9489 12.5844 11.9278 12.6322 11.7997C12.7962 11.3577 13.2673 11.1086 13.7309 11.1963C13.9577 11.2418 14.1613 11.3653 14.3064 11.5453C14.4515 11.7254 14.5289 11.9507 14.525 12.1819C14.5195 12.6604 14.1836 13.048 13.6976 13.1365C13.4744 13.174 13.2451 13.1325 13.0491 13.0193C12.8531 12.906 12.7026 12.728 12.6236 12.5159C12.5883 12.42 12.55 12.3847 12.4435 12.3847C10.9555 12.3889 9.46638 12.3889 7.97608 12.3847C7.85861 12.3847 7.81672 12.4074 7.81946 12.5335C7.82925 12.8468 7.82572 13.16 7.81946 13.4709C7.81946 13.5618 7.84648 13.5865 7.93693 13.5861C8.56696 13.5825 9.19659 13.581 9.82662 13.5861C9.92921 13.5861 9.94409 13.5324 9.96993 13.4619C10.0448 13.2595 10.1843 13.0874 10.3667 12.972C10.5492 12.8567 10.7645 12.8046 10.9795 12.8238C11.1945 12.843 11.3972 12.9324 11.5563 13.0783C11.7154 13.2241 11.8222 13.4182 11.86 13.6307C11.9033 13.8707 11.8557 14.1183 11.7265 14.3251C11.5973 14.532 11.3957 14.6834 11.1611 14.7498C10.9267 14.8191 10.6748 14.7975 10.4556 14.6893C10.2364 14.5811 10.0661 14.3942 9.97855 14.166C9.93704 14.0567 9.89045 14.0219 9.77376 14.0234C9.1684 14.0301 8.56304 14.0289 7.95729 14.0234C7.85196 14.0234 7.80262 14.043 7.81829 14.1581C7.82729 14.2251 7.81476 14.2952 7.82063 14.3629C7.84804 14.6762 7.72078 14.8876 7.42907 15H7.19295Z" fill="#FD5435"/>
<path d="M9.7965 9.8979C9.14728 9.8979 8.49767 9.8979 7.84846 9.8979C6.64244 9.89437 5.67527 9.09206 5.44699 7.90875C5.19286 6.59113 6.18861 5.25198 7.52659 5.12668C8.15936 5.06755 8.79526 5.11297 9.42959 5.10593C9.45909 5.1039 9.48869 5.10806 9.51649 5.11813C9.54428 5.12821 9.56967 5.14398 9.59102 5.16444C9.61236 5.18491 9.6292 5.2096 9.64044 5.23695C9.65169 5.26429 9.65709 5.29369 9.65631 5.32324C9.65631 5.45364 9.5686 5.54291 9.41903 5.5437C8.90177 5.54683 8.38412 5.5437 7.86647 5.5437C6.78066 5.5437 5.96268 6.28767 5.85813 7.36878C5.76259 8.35317 6.56295 9.33209 7.5493 9.4335C7.68526 9.44727 7.82183 9.4542 7.95849 9.45425C9.22794 9.45582 10.4973 9.45582 11.7665 9.45425C12.6561 9.45425 13.4055 8.91624 13.6683 8.09983C13.7621 7.80739 13.7858 7.49699 13.7374 7.1937C13.6891 6.89042 13.5701 6.60275 13.39 6.35397C13.21 6.10518 12.9739 5.90224 12.7009 5.76155C12.4279 5.62086 12.1256 5.54636 11.8185 5.54409C11.3596 5.54017 10.9007 5.54409 10.4418 5.54409C10.3979 5.54409 10.3537 5.54409 10.3102 5.54135C10.2831 5.54171 10.2561 5.53667 10.2309 5.52652C10.2057 5.51636 10.1828 5.5013 10.1635 5.48221C10.1442 5.46311 10.1289 5.44037 10.1184 5.41529C10.108 5.39022 10.1026 5.36333 10.1027 5.33617C10.0945 5.21322 10.1685 5.10906 10.2863 5.11102C11.0017 5.12394 11.7253 5.01313 12.4305 5.18933C13.5598 5.47165 14.2944 6.55198 14.1926 7.74351C14.0998 8.84185 13.1784 9.77221 12.0644 9.87558C11.4853 9.92961 10.9031 9.88693 10.3224 9.89633C10.1481 9.8979 9.97231 9.8979 9.7965 9.8979Z" fill="#FD5435"/>
<path d="M9.90885 7.71338C10.0698 7.89585 10.2221 8.06579 10.3721 8.23926C10.4856 8.37004 10.4895 8.49652 10.3901 8.58814C10.2906 8.67977 10.1552 8.65941 10.0377 8.52706C9.8419 8.30582 9.64612 8.0842 9.42645 7.83281C9.42645 8.04582 9.42841 8.2189 9.42645 8.39197C9.4241 8.5529 9.34226 8.64492 9.20717 8.64413C9.07208 8.64335 8.98711 8.54938 8.98672 8.39001C8.98489 7.77525 8.98489 7.16076 8.98672 6.54652C8.98672 6.37423 9.06817 6.29709 9.23811 6.29475C9.39473 6.2924 9.55136 6.29475 9.70799 6.29475C10.0831 6.29827 10.3881 6.53634 10.452 6.87269C10.5181 7.22902 10.3411 7.53248 9.98208 7.68128C9.96015 7.68793 9.94135 7.69772 9.90885 7.71338Z" fill="#FD5435"/>
<path d="M11.2885 7.45491C11.2885 7.15732 11.2885 6.85934 11.2885 6.56175C11.2885 6.36871 11.3621 6.29588 11.5512 6.29431C11.7079 6.29431 11.8645 6.29431 12.0211 6.29431C12.4659 6.29784 12.8074 6.62127 12.8136 7.04377C12.8199 7.45491 12.4882 7.79126 12.0528 7.81515H12.0235C11.7306 7.82337 11.7306 7.82337 11.7306 8.12449C11.7306 8.22199 11.7349 8.32027 11.7306 8.41698C11.7216 8.56265 11.6272 8.64957 11.4956 8.64292C11.3641 8.63626 11.2924 8.55129 11.2912 8.40602C11.2865 8.08964 11.2885 7.77208 11.2885 7.45491Z" fill="#FD5435"/>
<path d="M6.98382 7.47022C6.98382 7.16754 6.98382 6.86525 6.98382 6.56297C6.98382 6.38206 7.06213 6.30258 7.2399 6.30062C7.48345 6.29827 7.7274 6.29788 7.97134 6.30062C8.12797 6.30062 8.22195 6.39185 8.21881 6.52655C8.21568 6.66125 8.12445 6.7376 7.97448 6.73995C7.82451 6.7423 7.66123 6.74309 7.5046 6.73995C7.44117 6.73995 7.41885 6.75797 7.4212 6.82218C7.42766 6.93421 7.42766 7.04651 7.4212 7.15854C7.41454 7.24546 7.45644 7.25251 7.52418 7.25055C7.65574 7.24742 7.7877 7.24625 7.91926 7.25055C8.07158 7.25564 8.15851 7.33866 8.15929 7.46944C8.16008 7.60022 8.07393 7.68402 7.92122 7.69067C7.78496 7.69655 7.64713 7.69616 7.51164 7.69067C7.43999 7.68793 7.42433 7.71182 7.4212 7.78112C7.40358 8.19932 7.40162 8.19932 7.81276 8.19932C7.88089 8.19932 7.94942 8.19618 8.01716 8.20206C8.06915 8.20265 8.1189 8.22338 8.15592 8.25989C8.19294 8.29641 8.21436 8.34586 8.21568 8.39784C8.22742 8.52353 8.16047 8.62338 8.04261 8.62925C7.74574 8.64472 7.44827 8.64472 7.15141 8.62925C7.03394 8.62299 6.98029 8.51688 6.98146 8.39432C6.98616 8.0838 6.98382 7.77643 6.98382 7.47022Z" fill="#FD5435"/>
<path d="M13.547 2.16447C13.6178 2.16493 13.6877 2.17936 13.7528 2.20694C13.818 2.23452 13.877 2.27469 13.9266 2.32516C13.9761 2.37563 14.0152 2.4354 14.0416 2.50102C14.068 2.56665 14.0812 2.63684 14.0803 2.70757C14.0805 2.77958 14.0663 2.85091 14.0386 2.91736C14.0108 2.98382 13.9701 3.04408 13.9188 3.09462C13.8675 3.14515 13.8067 3.18495 13.7398 3.21168C13.6729 3.23841 13.6014 3.25153 13.5294 3.25028C13.3865 3.24761 13.2503 3.18892 13.1501 3.08683C13.05 2.98474 12.994 2.84742 12.9941 2.70444C12.9941 2.63241 13.0084 2.5611 13.0363 2.49471C13.0643 2.42832 13.1052 2.36818 13.1567 2.31786C13.2082 2.26754 13.2693 2.22804 13.3364 2.20169C13.4034 2.17535 13.475 2.16269 13.547 2.16447Z" fill="#FEFEFE"/>
<path d="M10.3477 13.8022C10.3471 13.7314 10.3604 13.6613 10.387 13.5958C10.4137 13.5302 10.453 13.4706 10.5027 13.4204C10.5525 13.3701 10.6117 13.3302 10.677 13.3029C10.7422 13.2756 10.8122 13.2615 10.8829 13.2614C10.955 13.2603 11.0265 13.2735 11.0935 13.3002C11.1604 13.327 11.2213 13.3667 11.2727 13.4172C11.3241 13.4677 11.365 13.5279 11.3929 13.5943C11.4208 13.6608 11.4353 13.7321 11.4354 13.8041C11.433 13.9495 11.3735 14.0882 11.2698 14.1901C11.166 14.2921 11.0264 14.3492 10.881 14.3492C10.7381 14.3462 10.6021 14.2872 10.5023 14.1849C10.4026 14.0825 10.347 13.9451 10.3477 13.8022Z" fill="#FEFEFE"/>
<path d="M13.5374 11.6232C13.6082 11.6224 13.6785 11.6356 13.7441 11.662C13.8098 11.6884 13.8695 11.7276 13.92 11.7773C13.9704 11.8269 14.0106 11.8861 14.038 11.9513C14.0655 12.0165 14.0798 12.0865 14.0801 12.1573C14.0821 12.2298 14.0695 12.302 14.0431 12.3696C14.0167 12.4371 13.977 12.4987 13.9264 12.5507C13.8758 12.6027 13.8153 12.644 13.7484 12.6722C13.6816 12.7004 13.6098 12.715 13.5372 12.715C13.4647 12.715 13.3929 12.7004 13.326 12.6722C13.2592 12.644 13.1987 12.6027 13.1481 12.5507C13.0975 12.4987 13.0578 12.4371 13.0314 12.3696C13.005 12.302 12.9924 12.2298 12.9943 12.1573C12.9956 12.0145 13.0535 11.878 13.1553 11.7778C13.2572 11.6777 13.3946 11.6221 13.5374 11.6232Z" fill="#FEFEFE"/>
<path d="M10.8913 0.524682C11.0343 0.525575 11.1712 0.582284 11.273 0.682717C11.3747 0.78315 11.4332 0.91936 11.436 1.0623C11.436 1.20769 11.3782 1.34712 11.2754 1.44993C11.1726 1.55274 11.0332 1.61049 10.8878 1.61049C10.8158 1.61062 10.7445 1.59633 10.6782 1.56848C10.6118 1.54062 10.5517 1.49976 10.5014 1.44831C10.451 1.39685 10.4115 1.33584 10.3852 1.26888C10.3588 1.20191 10.3461 1.13034 10.3478 1.05839C10.3484 0.987648 10.363 0.917724 10.3906 0.852611C10.4183 0.787498 10.4585 0.728473 10.509 0.678909C10.5594 0.629344 10.6192 0.590212 10.6848 0.563749C10.7504 0.537286 10.8206 0.524011 10.8913 0.524682Z" fill="#FEFEFE"/>
<path d="M9.42802 7.01167C9.42606 6.71878 9.42606 6.71878 9.72404 6.73562C9.88419 6.74423 10.0044 6.84761 10.0169 6.987C10.0295 7.1264 9.93039 7.25288 9.76868 7.27872C9.67666 7.2873 9.58425 7.29096 9.49184 7.28968C9.43663 7.29242 9.42723 7.2611 9.42802 7.21646C9.4288 7.14833 9.42802 7.07863 9.42802 7.01167Z" fill="#FCFCFC"/>
<path d="M11.7305 7.0552V7.03954C11.7305 6.70318 11.7305 6.70318 12.0688 6.73529C12.1446 6.74179 12.2159 6.77436 12.2704 6.82748C12.325 6.88059 12.3594 6.95096 12.3679 7.02662C12.3824 7.17463 12.2744 7.31677 12.1166 7.35788C12.0108 7.38568 11.9032 7.36767 11.7963 7.37393C11.7434 7.37668 11.7301 7.34927 11.7309 7.30267C11.7309 7.22005 11.7309 7.13704 11.7309 7.05403L11.7305 7.0552Z" fill="#FDFDFD"/>
</svg>
