<svg width="384" height="292" viewBox="0 0 384 292" fill="none" xmlns="http://www.w3.org/2000/svg">
<g clip-path="url(#clip0_850_556)">
<path d="M0 65.7899C1.88 63.3399 3.92 61.1899 7.43 62.4899C10.94 63.7899 11.25 66.62 11.24 69.81C11.24 119.81 11.2067 169.81 11.14 219.81C11.14 223.63 12.22 224.62 15.98 224.62C132.953 224.527 249.933 224.507 366.92 224.56C371.92 224.56 371.92 224.56 371.92 219.65C371.92 151.81 371.947 83.9699 372 16.1299C372 12.3799 371 11.1299 367.17 11.2199C355.83 11.4499 344.48 11.3199 333.17 11.2999C328.45 11.2999 325.99 9.29995 326.08 5.58995C326.16 2.09995 328.64 0.099949 333.08 0.089949C345.18 0.089949 357.28 0.019949 369.37 0.089949C377.69 0.149949 383.16 5.65995 383.16 13.99C383.16 83.3233 383.16 152.657 383.16 221.99C383.16 230.61 377.66 235.74 368.54 235.74C324.153 235.74 279.763 235.717 235.37 235.67C231.83 235.67 230.61 236.39 230.83 240.1C231.17 245.81 231.02 251.57 230.83 257.3C230.77 259.63 231.52 260.24 233.83 260.22C245.55 260.11 257.28 260.14 269 260.22C280.57 260.22 287.36 267.04 287.39 278.53C287.39 280.9 287.47 283.27 287.39 285.64C287.24 289.3 285.23 291.33 281.56 291.64C280.56 291.72 279.56 291.64 278.56 291.64H104.56C97.25 291.64 95.81 290.21 95.82 282.93C95.7247 280.313 95.7648 277.693 95.94 275.08C96.355 271.071 98.2241 267.352 101.194 264.627C104.164 261.902 108.03 260.359 112.06 260.29C124.28 260.11 136.5 260.11 148.72 260.29C151.8 260.34 152.46 259.29 152.36 256.5C152.16 250.9 152.13 245.27 152.36 239.67C152.49 236.62 151.69 235.67 148.5 235.72C116.08 235.84 83.66 235.79 51.24 235.79C39.77 235.79 28.24 235.47 16.83 235.9C8.77 236.21 3.14 233.46 0.0400009 225.9L0 65.7899Z" fill="#FD5435"/>
<path d="M0 10.42C2.73 2.86003 8.15 -0.00997397 16.12 2.60321e-05C111.5 0.120026 206.887 0.15003 302.28 0.09003C303.88 0.09003 305.51 -0.129968 307.09 0.490032C308.301 0.847542 309.342 1.63014 310.021 2.69391C310.701 3.75768 310.974 5.03111 310.79 6.28003C310.757 7.54731 310.25 8.75608 309.368 9.66717C308.487 10.5783 307.295 11.1253 306.03 11.2C304.54 11.3234 303.044 11.3568 301.55 11.3H16.55C11.26 11.3 11.26 11.3 11.26 16.71C11.26 24.31 11.19 31.92 11.26 39.53C11.26 42.77 10.79 45.64 7.39 46.82C3.99 48 1.76999 45.99 0.00999451 43.34L0 10.42Z" fill="#FD5435"/>
<path d="M90.7106 37.3601H137.461C142.811 37.3601 144.751 39.1901 144.761 44.4701C144.801 63.4168 144.801 82.3668 144.761 101.32C144.761 106.61 142.761 108.43 137.461 108.44H43.5906C38.2306 108.44 36.3106 106.61 36.3006 101.32C36.254 82.3668 36.254 63.4168 36.3006 44.4701C36.3006 39.1801 38.2306 37.3701 43.5906 37.3601H90.7106Z" fill="#FD5435"/>
<path d="M90.8209 127.57C106.268 127.57 121.721 127.57 137.181 127.57C143.121 127.57 144.761 129.19 144.771 135.12C144.771 153.693 144.771 172.263 144.771 190.83C144.771 196.93 143.081 198.61 136.971 198.64C127.621 198.64 118.281 198.64 108.971 198.64C106.971 198.64 104.971 198.57 103.361 197.07C102.517 196.311 101.932 195.307 101.688 194.199C101.444 193.09 101.553 191.933 102.001 190.89C102.383 189.817 103.106 188.898 104.059 188.275C105.013 187.652 106.145 187.359 107.281 187.44C114.631 187.44 121.991 187.25 129.341 187.5C132.731 187.62 133.731 186.73 133.671 183.23C133.461 169.52 133.521 155.81 133.671 142.1C133.671 139.56 133.121 138.61 130.411 138.72C125.061 138.93 119.691 138.94 114.341 138.72C111.561 138.6 111.071 139.72 111.131 142.15C111.281 148.5 111.221 154.86 111.131 161.22C111.071 167.9 107.041 170.73 101.461 167.17C93.8909 162.34 87.2209 162.49 79.6709 167.17C73.9909 170.69 70.0409 167.91 69.9909 161.22C69.9909 154.74 69.9009 148.22 69.9909 141.77C69.9909 139.63 69.6309 138.65 67.1609 138.77C61.5609 138.95 55.9509 138.89 50.3409 138.77C48.3409 138.77 47.4509 139.07 47.4609 141.37C47.5609 155.83 47.5609 170.29 47.4609 184.75C47.4609 187.34 48.6409 187.48 50.6409 187.47C60.3609 187.41 70.0809 187.47 79.8009 187.47C82.9909 187.47 85.4509 188.41 86.3209 191.79C87.3209 195.61 84.5509 198.62 79.7609 198.68C71.6609 198.78 63.5609 198.68 55.4509 198.68C51.2209 198.68 46.9809 198.79 42.7409 198.68C38.2809 198.54 36.3309 196.63 36.3109 192.18C36.2375 172.847 36.2375 153.513 36.3109 134.18C36.3109 129.34 38.3109 127.61 43.3109 127.6C59.1575 127.56 74.9942 127.55 90.8209 127.57Z" fill="#FD5435"/>
<path d="M322.921 48.5799C328.651 48.5799 334.381 48.5799 340.121 48.5799C344.671 48.5799 346.751 50.5799 346.781 55.1799C346.861 67.0199 346.861 78.8599 346.781 90.6999C346.781 95.2699 344.641 97.1799 340.001 97.1999C328.294 97.1999 316.581 97.1999 304.861 97.1999C300.291 97.1999 298.231 95.1999 298.201 90.5999C298.121 78.7599 298.121 66.9199 298.201 55.0799C298.201 50.5099 300.321 48.6199 304.971 48.5899C310.921 48.5499 316.921 48.5799 322.921 48.5799Z" fill="#FD5435"/>
<path d="M298.149 163.07C298.149 157.34 298.099 151.6 298.149 145.87C298.199 140.64 299.959 138.87 305.069 138.81C316.656 138.757 328.242 138.757 339.829 138.81C344.939 138.81 346.739 140.65 346.769 145.87C346.823 157.33 346.823 168.793 346.769 180.26C346.769 185.57 344.899 187.39 339.469 187.41C328.136 187.47 316.802 187.47 305.469 187.41C299.919 187.41 298.199 185.56 298.169 179.89C298.139 174.22 298.149 168.67 298.149 163.07Z" fill="#FD5435"/>
<path d="M220.71 108.48C203.877 108.48 187.044 108.48 170.21 108.48C168.3 108.48 166.47 108.39 164.99 106.98C164.168 106.296 163.573 105.377 163.286 104.346C162.998 103.315 163.031 102.222 163.38 101.21C163.671 100.179 164.264 99.2592 165.082 98.5678C165.9 97.8764 166.905 97.4454 167.97 97.3301C169.21 97.2183 170.457 97.1916 171.7 97.2501H270.46C271.46 97.2501 272.46 97.2001 273.46 97.2501C276.72 97.4901 278.96 99.6801 279.06 102.65C279.095 103.401 278.975 104.151 278.708 104.853C278.441 105.556 278.033 106.196 277.51 106.735C276.986 107.274 276.357 107.699 275.662 107.986C274.968 108.272 274.222 108.413 273.47 108.4C267.47 108.54 261.47 108.45 255.47 108.45L220.71 108.48Z" fill="#FD5435"/>
<path d="M221.451 157.48H271.171C272.413 157.431 273.658 157.488 274.891 157.65C276.11 157.884 277.215 158.525 278.022 159.468C278.83 160.412 279.293 161.601 279.336 162.842C279.379 164.084 278.999 165.303 278.259 166.3C277.518 167.297 276.461 168.013 275.261 168.33C273.796 168.618 272.302 168.735 270.811 168.68C237.911 168.68 205.014 168.68 172.121 168.68C171.251 168.68 170.371 168.68 169.511 168.68C165.661 168.36 163.461 166.19 163.511 162.87C163.561 159.55 165.921 157.53 169.921 157.48C187.061 157.48 204.261 157.48 221.451 157.48Z" fill="#FD5435"/>
<path d="M201.211 187.48C211.561 187.48 221.911 187.48 232.211 187.48C236.001 187.48 238.461 189.78 238.501 192.95C238.541 196.12 236.111 198.38 232.371 198.65C231.251 198.74 230.131 198.65 229.001 198.65H172.921C171.801 198.65 170.671 198.7 169.551 198.65C165.671 198.36 163.471 196.24 163.551 192.92C163.631 189.6 165.921 187.48 169.801 187.48C180.271 187.39 190.741 187.48 201.211 187.48Z" fill="#FD5435"/>
<path d="M197.15 48.5801C188.15 48.5801 179.15 48.5801 170.21 48.5801C165.66 48.5801 163.01 46.3701 163.12 42.7901C163.23 39.2101 165.77 37.3801 170.21 37.3701H224.07C228.64 37.3701 231.29 39.5801 231.17 43.1601C231.05 46.7401 228.51 48.5701 224.08 48.5801C215.1 48.6001 206.12 48.5801 197.15 48.5801Z" fill="#FD5435"/>
<path d="M248.029 67.29C256.129 67.29 264.229 67.29 272.319 67.29C276.569 67.29 279.159 69.58 279.049 73.05C278.939 76.52 276.449 78.48 272.359 78.49C256.039 78.49 239.706 78.49 223.359 78.49C219.299 78.49 216.879 76.31 216.859 72.9C216.839 69.49 219.279 67.31 223.329 67.29C231.589 67.25 239.809 67.29 248.029 67.29Z" fill="#FD5435"/>
<path d="M186.62 127.57C191.85 127.57 197.08 127.51 202.31 127.57C206.24 127.57 208.58 129.64 208.72 132.87C208.86 136.1 206.44 138.68 202.43 138.72C191.604 138.84 180.77 138.84 169.93 138.72C165.8 138.72 163.48 136.4 163.55 132.97C163.62 129.54 165.97 127.59 170.18 127.54C175.66 127.53 181.14 127.57 186.62 127.57Z" fill="#FD5435"/>
<path d="M183.991 78.4801C179.141 78.4801 174.291 78.5301 169.441 78.4801C165.511 78.4801 163.011 76.0701 163.121 72.7001C163.231 69.4901 165.651 67.3201 169.431 67.3001C179.384 67.2401 189.331 67.2401 199.271 67.3001C203.171 67.3001 205.751 69.7601 205.621 73.0701C205.491 76.3801 203.041 78.4301 199.281 78.4801C194.181 78.5601 189.081 78.4801 183.991 78.4801Z" fill="#FD5435"/>
<path d="M191.489 280.41C164.809 280.41 138.129 280.41 111.489 280.31C110.049 280.31 107.219 282.2 107.009 278.45C106.819 274.89 108.429 272.18 111.389 271.59C112.502 271.431 113.627 271.378 114.749 271.43H268.439C273.989 271.43 276.149 273.43 276.129 278.16C276.129 279.99 275.569 280.48 273.779 280.45C268.049 280.34 262.309 280.45 256.579 280.45L191.489 280.41Z" fill="#FDFDFD"/>
<path d="M191.15 260.2C183.05 260.2 174.96 260.12 166.86 260.2C164.4 260.25 163.32 259.77 163.42 256.99C163.63 250.9 163.57 244.78 163.42 238.68C163.37 236.47 163.9 235.68 166.3 235.68C183.12 235.78 199.937 235.78 216.75 235.68C218.75 235.68 219.66 236.05 219.62 238.32C219.48 244.67 219.46 251.03 219.62 257.38C219.69 259.84 218.62 260.21 216.54 260.18C208.09 260.14 199.62 260.2 191.15 260.2Z" fill="#FEFEFE"/>
<path d="M90.5394 97.22C77.1994 97.22 63.8594 97.15 50.5394 97.22C48.1094 97.22 47.4394 96.62 47.4594 94.22C47.5794 80.0133 47.5794 65.8033 47.4594 51.59C47.4594 49.13 48.0894 48.44 50.5294 48.52C56.1394 48.71 61.7494 48.68 67.3594 48.52C69.5194 48.46 70.0494 49.15 70.0094 51.24C69.8794 57.97 69.8894 64.7 70.0094 71.43C70.0894 77.71 74.0094 80.49 79.2894 77.15C87.0894 72.15 94.0594 72.31 101.829 77.15C107.109 80.44 111.049 77.71 111.129 71.44C111.219 64.71 111.229 57.97 111.129 51.24C111.129 49.18 111.569 48.45 113.759 48.51C119.619 48.66 125.479 48.63 131.339 48.51C133.119 48.51 133.659 48.96 133.649 50.79C133.579 65.5 133.549 80.21 133.649 94.92C133.649 97.6 132.169 97.19 130.589 97.19L90.5394 97.22Z" fill="#FEFEFE"/>
<path d="M99.9202 64.3801C93.5902 59.3801 87.6002 59.3801 81.2402 64.4601C81.2402 58.9801 81.2402 54.5301 81.2402 50.0901C81.2402 48.5901 82.0602 48.5701 83.1302 48.5701C88.1302 48.5701 93.0702 48.5701 98.0402 48.5701C99.4502 48.5701 100.04 48.9301 99.9802 50.4401C99.8202 54.7501 99.9202 59.0801 99.9202 64.3801Z" fill="#FEFEFE"/>
<path d="M99.9207 154.48C93.5807 149.91 87.6207 149.12 81.2207 155.13C81.2207 149.43 81.2207 145.02 81.2207 140.62C81.2207 139.03 82.0707 138.81 83.3607 138.82C88.2107 138.82 93.0607 138.82 97.9107 138.82C99.2807 138.82 99.9707 139.23 99.9107 140.72C99.8507 144.98 99.9207 149.3 99.9207 154.48Z" fill="#FCFCFC"/>
<path d="M309.369 76.96C309.369 71.96 309.369 66.85 309.369 61.77C309.369 60.4 309.699 59.77 311.239 59.77C316.419 59.85 321.609 59.77 326.909 59.77L309.369 76.96Z" fill="#FBFBFB"/>
<path d="M335.57 69.22C335.57 73.88 335.57 79.07 335.57 84.22C335.57 85.83 334.76 85.99 333.48 85.98C328.4 85.98 323.32 85.98 318.66 85.98L335.57 69.22Z" fill="#FBFBFB"/>
<path d="M322.521 176.21C319.151 176.21 315.781 176.11 312.421 176.21C310.301 176.3 309.271 175.88 309.331 173.4C309.491 166.4 309.411 159.4 309.331 152.45C309.331 150.83 309.591 149.93 311.541 149.95C318.771 150.05 326.011 150.04 333.241 149.95C335.061 149.95 335.571 150.6 335.561 152.34C335.491 159.45 335.471 166.56 335.561 173.66C335.561 175.66 334.881 176.27 332.951 176.2C329.511 176.12 326.011 176.21 322.521 176.21Z" fill="#FEFEFE"/>
</g>
<defs>
<clipPath id="clip0_850_556">
<rect width="383.08" height="291.65" fill="white"/>
</clipPath>
</defs>
</svg>
